NotoSerifTamil-SemiCondensedExtraLight.ufo
<glyph name="exclam" format="2">
  <advance width="263.67373737373737"/>
  <unicode hex="0021"/>
  <outline>
    <contour>
      <point x="119.78383838383837" y="173.9787878787879" type="line"/>
      <point x="144.75454545454545" y="173.9787878787879" type="line"/>
      <point x="154.3090909090909" y="714.0" type="line"/>
      <point x="108.65353535353536" y="714.0" type="line"/>
    </contour>
    <contour>
      <point x="131.02121212121213" y="-5.424242424242424" type="curve" smooth="yes"/>
      <point x="149.71717171717174" y="-5.424242424242424"/>
      <point x="166.01111111111112" y="5.406060606060606"/>
      <point x="166.01111111111112" y="39.759595959595956" type="curve" smooth="yes"/>
      <point x="166.01111111111112" y="74.03737373737374"/>
      <point x="149.71717171717174" y="84.23434343434343"/>
      <point x="131.02121212121213" y="84.23434343434343" type="curve" smooth="yes"/>
      <point x="111.66767676767677" y="84.23434343434343"/>
      <point x="95.45353535353536" y="74.03737373737374"/>
      <point x="95.45353535353536" y="39.759595959595956" type="curve" smooth="yes"/>
      <point x="95.45353535353536" y="5.406060606060606"/>
      <point x="111.66767676767677" y="-5.424242424242424"/>
    </contour>
  </outline>
</glyph>
<glyph name="quotedbl" format="2">
  <advance width="290.1717171717172"/>
  <unicode hex="0022"/>
  <outline>
    <contour>
      <point x="205.44848484848484" y="517.5494949494949" type="line"/>
      <point x="230.2858585858586" y="517.5494949494949" type="line"/>
      <point x="244.63939393939395" y="714.0" type="line"/>
      <point x="189.7080808080808" y="714.0" type="line"/>
    </contour>
    <contour>
      <point x="59.83030303030303" y="517.5494949494949" type="line"/>
      <point x="84.589898989899" y="517.5494949494949" type="line"/>
      <point x="99.17676767676768" y="714.0" type="line"/>
      <point x="44.167676767676774" y="714.0" type="line"/>
    </contour>
  </outline>
</glyph>
<glyph name="numbersign" format="2">
  <advance width="511.2666666666667"/>
  <unicode hex="0023"/>
  <outline>
    <contour>
      <point x="71.9969696969697" y="0.0" type="line"/>
      <point x="106.39595959595958" y="0.0" type="line"/>
      <point x="146.83737373737372" y="215.99494949494948" type="line"/>
      <point x="304.59797979797975" y="215.99494949494948" type="line"/>
      <point x="264.15656565656565" y="0.0" type="line"/>
      <point x="298.55555555555554" y="0.0" type="line"/>
      <point x="338.9969696969697" y="215.99494949494948" type="line"/>
      <point x="461.65555555555557" y="215.99494949494948" type="line"/>
      <point x="461.65555555555557" y="247.5848484848485" type="line"/>
      <point x="345.32626262626263" y="247.5848484848485" type="line"/>
      <point x="387.13131313131316" y="472.33737373737375" type="line"/>
      <point x="493.65555555555557" y="472.33737373737375" type="line"/>
      <point x="493.65555555555557" y="504.0828282828283" type="line"/>
      <point x="393.32626262626263" y="504.0828282828283" type="line"/>
      <point x="432.7676767676768" y="714.0" type="line"/>
      <point x="398.29090909090905" y="714.0" type="line"/>
      <point x="358.9272727272727" y="504.0828282828283" type="line"/>
      <point x="201.16666666666666" y="504.0828282828283" type="line"/>
      <point x="240.60808080808079" y="714.0" type="line"/>
      <point x="205.9969696969697" y="714.0" type="line"/>
      <point x="166.7676767676768" y="504.0828282828283" type="line"/>
      <point x="48.666666666666664" y="504.0828282828283" type="line"/>
      <point x="48.666666666666664" y="472.33737373737375" type="line"/>
      <point x="160.4949494949495" y="472.33737373737375" type="line"/>
      <point x="118.63333333333333" y="247.5848484848485" type="line"/>
      <point x="16.666666666666664" y="247.5848484848485" type="line"/>
      <point x="16.666666666666664" y="215.99494949494948" type="line"/>
      <point x="112.43838383838384" y="215.99494949494948" type="line"/>
    </contour>
    <contour>
      <point x="153.16666666666666" y="247.5848484848485" type="line"/>
      <point x="194.9717171717172" y="472.33737373737375" type="line"/>
      <point x="352.7323232323232" y="472.33737373737375" type="line"/>
      <point x="310.9272727272727" y="247.5848484848485" type="line"/>
    </contour>
  </outline>
</glyph>
<glyph name="percent" format="2">
  <advance width="810.9121212121212"/>
  <unicode hex="0025"/>
  <outline>
    <contour>
      <point x="210.65050505050507" y="0.0" type="line"/>
      <point x="248.42929292929296" y="0.0" type="line"/>
      <point x="596.3393939393939" y="714.0" type="line"/>
      <point x="558.7727272727273" y="714.0" type="line"/>
    </contour>
    <contour>
      <point x="187.06161616161614" y="280.0" type="curve" smooth="yes"/>
      <point x="283.76666666666665" y="280.0"/>
      <point x="324.3040404040404" y="367.1090909090909"/>
      <point x="324.3040404040404" y="503.0" type="curve"/>
      <point x="324.3040404040404" y="641.4646464646465"/>
      <point x="280.5626262626262" y="724.0"/>
      <point x="188.06161616161614" y="724.0" type="curve" smooth="yes"/>
      <point x="91.65858585858585" y="724.0"/>
      <point x="50.474747474747474" y="639.8888888888889"/>
      <point x="50.474747474747474" y="503.0" type="curve" smooth="yes"/>
      <point x="50.474747474747474" y="362.67070707070707"/>
      <point x="91.44848484848485" y="280.0"/>
    </contour>
    <contour>
      <point x="186.06363636363636" y="308.0050505050505" type="curve" smooth="yes"/>
      <point x="117.16666666666667" y="308.0050505050505"/>
      <point x="89.9929292929293" y="378.1565656565657"/>
      <point x="89.9929292929293" y="503.0" type="curve"/>
      <point x="89.9929292929293" y="618.1484848484849"/>
      <point x="114.67171717171718" y="695.7828282828283"/>
      <point x="186.77474747474747" y="695.7828282828283" type="curve" smooth="yes"/>
      <point x="257.03737373737374" y="695.7828282828283"/>
      <point x="284.57373737373734" y="628.1282828282829"/>
      <point x="284.57373737373734" y="503.0" type="curve" smooth="yes"/>
      <point x="284.57373737373734" y="384.64343434343436"/>
      <point x="260.53030303030306" y="308.0050505050505"/>
    </contour>
    <contour>
      <point x="623.4838383838384" y="-10.0" type="curve" smooth="yes"/>
      <point x="720.188888888889" y="-10.0"/>
      <point x="760.7262626262626" y="77.10909090909091"/>
      <point x="760.7262626262626" y="213.0" type="curve" smooth="yes"/>
      <point x="760.7262626262626" y="351.4646464646465"/>
      <point x="716.9848484848485" y="434.0"/>
      <point x="624.4838383838384" y="434.0" type="curve" smooth="yes"/>
      <point x="528.1585858585858" y="434.0"/>
      <point x="486.8969696969697" y="349.8888888888889"/>
      <point x="486.8969696969697" y="213.0" type="curve" smooth="yes"/>
      <point x="486.8969696969697" y="72.67070707070707"/>
      <point x="527.9484848484848" y="-10.0"/>
    </contour>
    <contour>
      <point x="622.4858585858586" y="18.005050505050505" type="curve" smooth="yes"/>
      <point x="553.5888888888888" y="18.005050505050505"/>
      <point x="526.4151515151516" y="88.15656565656566"/>
      <point x="526.4151515151516" y="213.0" type="curve" smooth="yes"/>
      <point x="526.4151515151516" y="328.1484848484848"/>
      <point x="551.0939393939393" y="405.78282828282823"/>
      <point x="623.119191919192" y="405.78282828282823" type="curve" smooth="yes"/>
      <point x="693.459595959596" y="405.78282828282823"/>
      <point x="720.9959595959596" y="338.1282828282828"/>
      <point x="720.9959595959596" y="213.0" type="curve" smooth="yes"/>
      <point x="720.9959595959596" y="94.64343434343434"/>
      <point x="696.9525252525253" y="18.005050505050505"/>
    </contour>
  </outline>
</glyph>
<glyph name="quotesingle" format="2">
  <advance width="143.42222222222225"/>
  <unicode hex="0027"/>
  <outline>
    <contour>
      <point x="59.83030303030303" y="517.5494949494949" type="line"/>
      <point x="84.589898989899" y="517.5494949494949" type="line"/>
      <point x="99.17676767676768" y="714.0" type="line"/>
      <point x="44.167676767676774" y="714.0" type="line"/>
    </contour>
  </outline>
</glyph>
<glyph name="parenleft" format="2">
  <advance width="271.13535353535354"/>
  <unicode hex="0028"/>
  <outline>
    <contour>
      <point x="242.06868686868688" y="-117.18080808080809" type="curve"/>
      <point x="242.06868686868688" y="-87.5141414141414" type="line"/>
      <point x="120.63737373737374" y="-25.65555555555555"/>
      <point x="95.44343434343435" y="139.0909090909091"/>
      <point x="95.44343434343435" y="315.42424242424244" type="curve" smooth="yes"/>
      <point x="95.44343434343435" y="491.75757575757575"/>
      <point x="119.14040404040404" y="660.2060606060605"/>
      <point x="242.06868686868688" y="717.6515151515151" type="curve"/>
      <point x="242.06868686868688" y="747.5272727272727" type="line"/>
      <point x="112.50707070707071" y="694.4050505050506"/>
      <point x="52.022222222222226" y="574.5141414141415"/>
      <point x="52.022222222222226" y="315.42424242424244" type="curve" smooth="yes"/>
      <point x="52.022222222222226" y="55.75454545454545"/>
      <point x="112.50707070707071" y="-62.905050505050504"/>
    </contour>
  </outline>
</glyph>
<glyph name="parenright" format="2">
  <advance width="271.13535353535354"/>
  <unicode hex="0029"/>
  <outline>
    <contour>
      <point x="41.33030303030303" y="-117.18080808080809" type="line"/>
      <point x="170.89191919191921" y="-62.905050505050504"/>
      <point x="231.37676767676768" y="55.75454545454545"/>
      <point x="231.37676767676768" y="315.42424242424244" type="curve" smooth="yes"/>
      <point x="231.37676767676768" y="574.5141414141415"/>
      <point x="170.89191919191921" y="694.4050505050506"/>
      <point x="41.33030303030303" y="747.5272727272727" type="curve"/>
      <point x="41.33030303030303" y="717.6515151515151" type="line"/>
      <point x="164.25858585858586" y="660.2060606060605"/>
      <point x="188.03333333333333" y="491.75757575757575"/>
      <point x="188.03333333333333" y="315.42424242424244" type="curve" smooth="yes"/>
      <point x="188.03333333333333" y="139.0909090909091"/>
      <point x="162.76161616161616" y="-25.65555555555555"/>
      <point x="41.33030303030303" y="-87.5141414141414" type="curve"/>
    </contour>
  </outline>
</glyph>
<glyph name="asterisk" format="2">
  <advance width="405.08080808080814"/>
  <unicode hex="002A"/>
  <outline>
    <contour>
      <point x="175.16262626262628" y="378.8444444444445" type="line"/>
      <point x="226.96060606060607" y="378.8444444444445" type="line"/>
      <point x="210.66868686868688" y="549.3373737373737" type="line"/>
      <point x="339.2888888888889" y="462.9292929292929" type="line"/>
      <point x="359.3515151515152" y="509.8141414141415" type="line"/>
      <point x="214.20404040404043" y="569.4222222222222" type="line"/>
      <point x="359.3515151515152" y="629.3191919191919" type="line"/>
      <point x="339.2888888888889" y="678.279797979798" type="line"/>
      <point x="210.66868686868688" y="589.5070707070709" type="line"/>
      <point x="225.96262626262626" y="760.0" type="line"/>
      <point x="175.16262626262628" y="760.0" type="line"/>
      <point x="190.74141414141414" y="590.0828282828284" type="line"/>
      <point x="62.83232323232323" y="680.279797979798" type="line"/>
      <point x="41.48282828282829" y="630.3191919191919" type="line"/>
      <point x="185.9969696969697" y="569.4222222222222" type="line"/>
      <point x="41.48282828282829" y="508.8141414141415" type="line"/>
      <point x="62.83232323232323" y="460.9292929292929" type="line"/>
      <point x="189.74141414141414" y="549.1262626262626" type="line"/>
    </contour>
  </outline>
</glyph>
<glyph name="plus" format="2">
  <advance width="509.8666666666667"/>
  <unicode hex="002B"/>
  <outline>
    <contour>
      <point x="237.03939393939396" y="143.0" type="line"/>
      <point x="272.3272727272727" y="143.0" type="line"/>
      <point x="272.3272727272727" y="340.1848484848485" type="line"/>
      <point x="450.9111111111111" y="340.1848484848485" type="line"/>
      <point x="450.9111111111111" y="374.6050505050505" type="line"/>
      <point x="272.3272727272727" y="374.6050505050505" type="line"/>
      <point x="272.3272727272727" y="572.0" type="line"/>
      <point x="237.03939393939396" y="572.0" type="line"/>
      <point x="237.03939393939396" y="374.6050505050505" type="line"/>
      <point x="58.95555555555556" y="374.6050505050505" type="line"/>
      <point x="58.95555555555556" y="340.1848484848485" type="line"/>
      <point x="237.03939393939396" y="340.1848484848485" type="line"/>
    </contour>
  </outline>
</glyph>
<glyph name="comma" format="2">
  <advance width="191.84545454545454"/>
  <unicode hex="002C"/>
  <outline>
    <contour>
      <point x="27.26666666666667" y="-154.0" type="line"/>
      <point x="111.18282828282828" y="-124.66969696969696"/>
      <point x="143.14141414141415" y="-60.0090909090909"/>
      <point x="143.14141414141415" y="7.664646464646469" type="curve" smooth="yes"/>
      <point x="143.14141414141415" y="61.82424242424243"/>
      <point x="117.52929292929294" y="83.94545454545454"/>
      <point x="89.3929292929293" y="83.94545454545454" type="curve" smooth="yes"/>
      <point x="67.93030303030304" y="83.94545454545454"/>
      <point x="54.78787878787878" y="69.90404040404042"/>
      <point x="54.78787878787878" y="48.91717171717171" type="curve" smooth="yes"/>
      <point x="54.78787878787878" y="15.091919191919192"/>
      <point x="104.72525252525253" y="8.447474747474748"/>
      <point x="104.72525252525253" y="-27.45858585858586" type="curve" smooth="yes"/>
      <point x="104.72525252525253" y="-61.0"/>
      <point x="82.51717171717173" y="-108.93131313131313"/>
      <point x="27.26666666666667" y="-126.9131313131313" type="curve"/>
    </contour>
  </outline>
</glyph>
<glyph name="hyphen" format="2">
  <advance width="283.64444444444445"/>
  <unicode hex="002D"/>
  <outline>
    <contour>
      <point x="23.166666666666668" y="253.9868686868687" type="line"/>
      <point x="260.47777777777776" y="253.9868686868687" type="line"/>
      <point x="260.47777777777776" y="291.8010101010101" type="line"/>
      <point x="23.166666666666668" y="291.8010101010101" type="line"/>
    </contour>
  </outline>
</glyph>
<glyph name="period" format="2">
  <advance width="191.84545454545454"/>
  <unicode hex="002E"/>
  <outline>
    <contour>
      <point x="96.39494949494949" y="-5.713131313131313" type="curve" smooth="yes"/>
      <point x="115.09090909090908" y="-5.713131313131313"/>
      <point x="131.0959595959596" y="5.1171717171717175"/>
      <point x="131.0959595959596" y="39.47070707070707" type="curve" smooth="yes"/>
      <point x="131.0959595959596" y="73.74848484848485"/>
      <point x="115.09090909090908" y="83.94545454545454"/>
      <point x="96.39494949494949" y="83.94545454545454" type="curve" smooth="yes"/>
      <point x="77.04141414141415" y="83.94545454545454"/>
      <point x="60.749494949494945" y="73.74848484848485"/>
      <point x="60.749494949494945" y="39.47070707070707" type="curve" smooth="yes"/>
      <point x="60.749494949494945" y="5.1171717171717175"/>
      <point x="77.04141414141415" y="-5.713131313131313"/>
    </contour>
  </outline>
</glyph>
<glyph name="slash" format="2">
  <advance width="263.4"/>
  <unicode hex="002F"/>
  <outline>
    <contour>
      <point x="0.0" y="-121.0" type="line"/>
      <point x="34.663636363636364" y="-121.0" type="line"/>
      <point x="263.4" y="760.0" type="line"/>
      <point x="229.02626262626262" y="760.0" type="line"/>
    </contour>
  </outline>
</glyph>
<glyph name="zero" format="2">
  <advance width="511.1888888888889"/>
  <unicode hex="0030"/>
  <outline>
    <contour>
      <point x="255.76666666666668" y="-10.0" type="curve" smooth="yes"/>
      <point x="393.67373737373737" y="-10.0"/>
      <point x="460.3474747474748" y="113.76969696969697"/>
      <point x="460.3474747474748" y="358.0" type="curve" smooth="yes"/>
      <point x="460.3474747474748" y="601.4161616161615"/>
      <point x="398.6343434343434" y="724.0"/>
      <point x="256.76666666666665" y="724.0" type="curve" smooth="yes"/>
      <point x="108.83636363636363" y="724.0"/>
      <point x="50.474747474747474" y="596.0646464646463"/>
      <point x="50.474747474747474" y="359.0" type="curve" smooth="yes"/>
      <point x="50.474747474747474" y="112.06666666666668"/>
      <point x="111.8010101010101" y="-10.0"/>
    </contour>
    <contour>
      <point x="255.26767676767676" y="20.840404040404042" type="curve" smooth="yes"/>
      <point x="140.72727272727275" y="20.840404040404042"/>
      <point x="93.58484848484848" y="134.81717171717173"/>
      <point x="93.58484848484848" y="358.0" type="curve" smooth="yes"/>
      <point x="93.58484848484848" y="572.7"/>
      <point x="135.73737373737376" y="693.159595959596"/>
      <point x="256.26767676767673" y="693.159595959596" type="curve" smooth="yes"/>
      <point x="375.7959595959596" y="693.159595959596"/>
      <point x="417.3929292929293" y="576.1929292929293"/>
      <point x="417.3929292929293" y="358.0" type="curve" smooth="yes"/>
      <point x="417.3929292929293" y="138.8090909090909"/>
      <point x="370.3070707070707" y="20.840404040404042"/>
    </contour>
  </outline>
</glyph>
<glyph name="one" format="2">
  <advance width="511.1888888888889"/>
  <unicode hex="0031"/>
  <outline>
    <contour>
      <point x="112.1949494949495" y="0.0" type="line"/>
      <point x="395.16262626262625" y="0.0" type="line"/>
      <point x="395.16262626262625" y="24.58888888888889" type="line"/>
      <point x="338.5050505050505" y="24.58888888888889" type="line" smooth="yes"/>
      <point x="290.5323232323232" y="24.58888888888889"/>
      <point x="278.1565656565657" y="34.95353535353535"/>
      <point x="278.1565656565657" y="108.32828282828284" type="curve" smooth="yes"/>
      <point x="278.1565656565657" y="718.0" type="line"/>
      <point x="250.10101010101013" y="718.0" type="line"/>
      <point x="210.4717171717172" y="671.2777777777777" type="line" smooth="yes"/>
      <point x="159.05959595959595" y="611.7727272727273"/>
      <point x="123.54444444444442" y="599.0767676767676"/>
      <point x="80.06969696969698" y="588.5777777777778" type="curve"/>
      <point x="80.06969696969698" y="573.489898989899"/>
      <point x="92.45959595959596" y="563.8303030303031"/>
      <point x="113.66464646464647" y="563.8303030303031" type="curve" smooth="yes"/>
      <point x="152.0979797979798" y="563.8303030303031"/>
      <point x="192.75656565656564" y="603.1252525252526"/>
      <point x="235.91616161616162" y="661.8474747474747" type="curve"/>
      <point x="235.91616161616162" y="108.32828282828284" type="line" smooth="yes"/>
      <point x="235.91616161616162" y="34.72020202020202"/>
      <point x="223.54040404040404" y="24.58888888888889"/>
      <point x="175.56767676767677" y="24.58888888888889" type="curve" smooth="yes"/>
      <point x="112.1949494949495" y="24.58888888888889" type="line"/>
    </contour>
  </outline>
</glyph>
<glyph name="two" format="2">
  <advance width="511.1888888888889"/>
  <unicode hex="0032"/>
  <outline>
    <contour>
      <point x="59.024242424242416" y="0.0" type="line"/>
      <point x="440.06464646464644" y="0.0" type="line"/>
      <point x="444.04242424242426" y="137.67979797979797" type="line"/>
      <point x="419.60909090909087" y="137.67979797979797" type="line"/>
      <point x="417.4737373737374" y="107.7050505050505" type="line" smooth="yes"/>
      <point x="413.70101010101007" y="56.13333333333334"/>
      <point x="405.94747474747476" y="37.300000000000004"/>
      <point x="353.20606060606065" y="37.300000000000004" type="curve" smooth="yes"/>
      <point x="103.03838383838384" y="37.300000000000004" type="line"/>
      <point x="303.5080808080808" y="282.68686868686865" type="line" smooth="yes"/>
      <point x="376.96565656565656" y="373.9040404040404"/>
      <point x="424.1828282828283" y="442.72525252525253"/>
      <point x="424.1828282828283" y="549.0717171717172" type="curve" smooth="yes"/>
      <point x="424.1828282828283" y="644.9242424242424"/>
      <point x="368.7050505050505" y="724.0"/>
      <point x="248.72626262626264" y="724.0" type="curve" smooth="yes"/>
      <point x="134.88585858585859" y="724.0"/>
      <point x="82.39696969696969" y="656.0232323232323"/>
      <point x="82.39696969696969" y="602.3383838383838" type="curve" smooth="yes"/>
      <point x="82.39696969696969" y="571.5333333333333"/>
      <point x="96.18383838383839" y="558.3222222222222"/>
      <point x="116.32929292929293" y="558.3222222222222" type="curve"/>
      <point x="116.32929292929293" y="639.2161616161616"/>
      <point x="158.88888888888889" y="693.7747474747475"/>
      <point x="248.72626262626264" y="693.7747474747475" type="curve" smooth="yes"/>
      <point x="347.76262626262627" y="693.7747474747475"/>
      <point x="381.4757575757576" y="619.9000000000001"/>
      <point x="381.4757575757576" y="544.5858585858587" type="curve" smooth="yes"/>
      <point x="381.4757575757576" y="448.520202020202"/>
      <point x="342.8939393939394" y="386.9858585858586"/>
      <point x="256.17676767676767" y="277.2727272727273" type="curve" smooth="yes"/>
      <point x="59.024242424242416" y="32.35151515151515" type="line"/>
    </contour>
  </outline>
</glyph>
<glyph name="three" format="2">
  <advance width="511.1888888888889"/>
  <unicode hex="0033"/>
  <outline>
    <contour>
      <point x="242.66363636363636" y="-9.212121212121213" type="curve" smooth="yes"/>
      <point x="343.1787878787879" y="-9.212121212121213"/>
      <point x="447.1050505050505" y="46.991919191919195"/>
      <point x="447.1050505050505" y="193.34545454545454" type="curve" smooth="yes"/>
      <point x="447.1050505050505" y="325.0616161616162"/>
      <point x="370.9959595959596" y="370.3262626262627"/>
      <point x="300.4292929292929" y="377.32626262626263" type="curve"/>
      <point x="368.5272727272727" y="393.9434343434344"/>
      <point x="424.22727272727275" y="462.40000000000003"/>
      <point x="424.22727272727275" y="558.3878787878788" type="curve" smooth="yes"/>
      <point x="424.22727272727275" y="664.6353535353535"/>
      <point x="362.63838383838385" y="724.0"/>
      <point x="256.09595959595964" y="724.0" type="curve" smooth="yes"/>
      <point x="149.5040404040404" y="724.0"/>
      <point x="93.18181818181819" y="662.5646464646464"/>
      <point x="93.18181818181819" y="597.930303030303" type="curve" smooth="yes"/>
      <point x="93.18181818181819" y="568.5111111111111"/>
      <point x="107.52424242424242" y="555.588888888889"/>
      <point x="126.80303030303031" y="555.588888888889" type="curve"/>
      <point x="126.80303030303031" y="638.6070707070706"/>
      <point x="165.1808080808081" y="693.7747474747475"/>
      <point x="257.0484848484848" y="693.7747474747475" type="curve" smooth="yes"/>
      <point x="339.42929292929296" y="693.7747474747475"/>
      <point x="381.32929292929293" y="643.6252525252526"/>
      <point x="381.32929292929293" y="554.8848484848485" type="curve" smooth="yes"/>
      <point x="381.32929292929293" y="450.2737373737374"/>
      <point x="317.97171717171716" y="388.6969696969697"/>
      <point x="229.9272727272727" y="388.6969696969697" type="curve"/>
      <point x="203.42323232323236" y="388.6969696969697" type="line"/>
      <point x="203.42323232323236" y="358.49292929292926" type="line"/>
      <point x="233.4212121212121" y="358.49292929292926" type="line" smooth="yes"/>
      <point x="353.42929292929296" y="358.49292929292926"/>
      <point x="404.07272727272726" y="298.40000000000003"/>
      <point x="404.07272727272726" y="192.34949494949495" type="curve" smooth="yes"/>
      <point x="404.07272727272726" y="76.17575757575757"/>
      <point x="328.77676767676763" y="21.783838383838386"/>
      <point x="243.50808080808082" y="21.783838383838386" type="curve" smooth="yes"/>
      <point x="145.2868686868687" y="21.783838383838386"/>
      <point x="104.03232323232324" y="73.17474747474746"/>
      <point x="104.03232323232324" y="142.15151515151516" type="curve"/>
      <point x="86.61616161616162" y="142.15151515151516"/>
      <point x="74.74545454545456" y="128.15757575757576"/>
      <point x="74.74545454545456" y="100.710101010101" type="curve" smooth="yes"/>
      <point x="74.74545454545456" y="44.91616161616162"/>
      <point x="127.3686868686869" y="-9.212121212121213"/>
    </contour>
  </outline>
</glyph>
<glyph name="four" format="2">
  <advance width="511.1888888888889"/>
  <unicode hex="0034"/>
  <outline>
    <contour>
      <point x="230.7030303030303" y="0.0" type="line"/>
      <point x="459.92929292929296" y="0.0" type="line"/>
      <point x="459.92929292929296" y="24.58888888888889" type="line"/>
      <point x="434.68787878787884" y="24.58888888888889" type="line" smooth="yes"/>
      <point x="385.21515151515155" y="24.58888888888889"/>
      <point x="372.9727272727273" y="34.586868686868684"/>
      <point x="372.9727272727273" y="107.17272727272729" type="curve" smooth="yes"/>
      <point x="372.9727272727273" y="205.53232323232322" type="line"/>
      <point x="498.4222222222223" y="205.53232323232322" type="line"/>
      <point x="498.4222222222223" y="237.03030303030303" type="line"/>
      <point x="372.9727272727273" y="237.03030303030303" type="line"/>
      <point x="372.9727272727273" y="714.0" type="line"/>
      <point x="330.6727272727273" y="714.0" type="line"/>
      <point x="19.682828282828282" y="227.75656565656567" type="line"/>
      <point x="19.682828282828282" y="205.53232323232322" type="line"/>
      <point x="331.4818181818182" y="205.53232323232322" type="line"/>
      <point x="331.4818181818182" y="107.17272727272729" type="line" smooth="yes"/>
      <point x="331.4818181818182" y="34.586868686868684"/>
      <point x="319.0282828282829" y="24.58888888888889"/>
      <point x="269.7666666666667" y="24.58888888888889" type="curve" smooth="yes"/>
      <point x="230.7030303030303" y="24.58888888888889" type="line"/>
    </contour>
    <contour>
      <point x="61.07474747474747" y="237.03030303030303" type="line"/>
      <point x="234.33636363636367" y="506.73333333333335" type="line" smooth="yes"/>
      <point x="263.3787878787879" y="551.9969696969697"/>
      <point x="322.90909090909093" y="648.6232323232323"/>
      <point x="334.3868686868687" y="672.2828282828283" type="curve"/>
      <point x="332.3272727272727" y="609.7050505050505"/>
      <point x="331.4818181818182" y="503.61010101010095"/>
      <point x="331.4818181818182" y="445.61010101010095" type="curve" smooth="yes"/>
      <point x="331.4818181818182" y="237.03030303030303" type="line"/>
    </contour>
  </outline>
</glyph>
<glyph name="five" format="2">
  <advance width="511.1888888888889"/>
  <unicode hex="0035"/>
  <outline>
    <contour>
      <point x="226.06161616161617" y="-10.0" type="curve" smooth="yes"/>
      <point x="354.8080808080808" y="-10.0"/>
      <point x="426.69292929292925" y="80.36868686868686"/>
      <point x="426.69292929292925" y="216.42424242424244" type="curve" smooth="yes"/>
      <point x="426.69292929292925" y="354.48383838383836"/>
      <point x="343.140404040404" y="424.27272727272725"/>
      <point x="234.50202020202022" y="424.27272727272725" type="curve" smooth="yes"/>
      <point x="189.05454545454543" y="424.27272727272725"/>
      <point x="152.46969696969697" y="413.1191919191919"/>
      <point x="126.4030303030303" y="396.45656565656566" type="curve"/>
      <point x="150.02727272727273" y="673.4151515151515" type="line"/>
      <point x="320.5888888888889" y="673.4151515151515" type="line" smooth="yes"/>
      <point x="368.8757575757576" y="673.4151515151515"/>
      <point x="375.9646464646465" y="668.0818181818182"/>
      <point x="378.77777777777777" y="619.8181818181818" type="curve" smooth="yes"/>
      <point x="380.4919191919192" y="592.9606060606061" type="line"/>
      <point x="404.9252525252526" y="592.9606060606061" type="line"/>
      <point x="401.65656565656565" y="712.2121212121212" type="line"/>
      <point x="123.06060606060605" y="712.2121212121212" type="line"/>
      <point x="92.47373737373738" y="355.42626262626266" type="line"/>
      <point x="107.41818181818182" y="350.5565656565656" type="line"/>
      <point x="134.12929292929294" y="376.4989898989899"/>
      <point x="178.8030303030303" y="393.22020202020195"/>
      <point x="231.04545454545456" y="393.22020202020195" type="curve" smooth="yes"/>
      <point x="320.44242424242424" y="393.22020202020195"/>
      <point x="383.58282828282825" y="330.95757575757574"/>
      <point x="383.58282828282825" y="216.42424242424244" type="curve" smooth="yes"/>
      <point x="383.58282828282825" y="90.19191919191918"/>
      <point x="324.4858585858586" y="21.58989898989899"/>
      <point x="227.9171717171717" y="21.58989898989899" type="curve" smooth="yes"/>
      <point x="146.53232323232322" y="21.58989898989899"/>
      <point x="94.57272727272728" y="61.6929292929293"/>
      <point x="94.57272727272728" y="131.47979797979798" type="curve"/>
      <point x="76.77373737373738" y="131.47979797979798"/>
      <point x="65.44141414141413" y="119.9090909090909"/>
      <point x="65.44141414141413" y="91.36464646464646" type="curve" smooth="yes"/>
      <point x="65.44141414141413" y="46.07373737373737"/>
      <point x="116.0070707070707" y="-10.0"/>
    </contour>
  </outline>
</glyph>
<glyph name="six" format="2">
  <advance width="511.1888888888889"/>
  <unicode hex="0036"/>
  <outline>
    <contour>
      <point x="267.7444444444444" y="-10.0" type="curve" smooth="yes"/>
      <point x="382.68181818181824" y="-10.0"/>
      <point x="451.00909090909096" y="71.63838383838385"/>
      <point x="451.00909090909096" y="220.75353535353534" type="curve" smooth="yes"/>
      <point x="451.00909090909096" y="355.05757575757576"/>
      <point x="381.3424242424243" y="428.9848484848485"/>
      <point x="273.6" y="428.9848484848485" type="curve" smooth="yes"/>
      <point x="200.36969696969697" y="428.9848484848485"/>
      <point x="146.01111111111112" y="393.1939393939394"/>
      <point x="111.6888888888889" y="361.2030303030303" type="curve"/>
      <point x="112.86262626262626" y="595.0121212121212"/>
      <point x="181.81313131313132" y="694.1989898989899"/>
      <point x="288.27474747474747" y="694.1989898989899" type="curve" smooth="yes"/>
      <point x="364.05252525252524" y="694.1989898989899"/>
      <point x="396.4585858585859" y="656.1909090909091"/>
      <point x="396.4585858585859" y="582.2919191919192" type="curve"/>
      <point x="416.3949494949495" y="582.2919191919192"/>
      <point x="428.19292929292925" y="595.1555555555556"/>
      <point x="428.19292929292925" y="623.2282828282829" type="curve" smooth="yes"/>
      <point x="428.19292929292925" y="675.1010101010102"/>
      <point x="387.42121212121214" y="724.0"/>
      <point x="291.2919191919192" y="724.0" type="curve" smooth="yes"/>
      <point x="155.0949494949495" y="724.0"/>
      <point x="68.86868686868686" y="616.911111111111"/>
      <point x="68.86868686868686" y="341.40000000000003" type="curve" smooth="yes"/>
      <point x="68.86868686868686" y="96.76363636363637"/>
      <point x="145.56565656565658" y="-10.0"/>
    </contour>
    <contour>
      <point x="270.08888888888885" y="20.974747474747474" type="curve" smooth="yes"/>
      <point x="167.3787878787879" y="20.974747474747474"/>
      <point x="114.47474747474747" y="121.28888888888889"/>
      <point x="111.47676767676768" y="322.84444444444443" type="curve"/>
      <point x="139.56161616161617" y="351.21515151515155"/>
      <point x="189.17171717171718" y="398.70303030303035"/>
      <point x="269.5131313131313" y="398.70303030303035" type="curve" smooth="yes"/>
      <point x="363.07878787878786" y="398.70303030303035"/>
      <point x="408.4787878787879" y="331.7646464646465"/>
      <point x="408.4787878787879" y="219.420202020202" type="curve" smooth="yes"/>
      <point x="408.4787878787879" y="93.1969696969697"/>
      <point x="361.3808080808081" y="20.974747474747474"/>
    </contour>
  </outline>
</glyph>
<glyph name="seven" format="2">
  <advance width="511.1888888888889"/>
  <unicode hex="0037"/>
  <outline>
    <contour>
      <point x="171.59292929292928" y="0.0" type="line"/>
      <point x="207.47474747474746" y="0.0" type="line"/>
      <point x="455.1959595959596" y="688.8828282828283" type="line"/>
      <point x="455.1959595959596" y="712.2121212121212" type="line"/>
      <point x="59.34343434343434" y="712.2121212121212" type="line"/>
      <point x="54.13333333333333" y="560.5969696969697" type="line"/>
      <point x="78.80000000000001" y="560.5969696969697" type="line"/>
      <point x="82.51111111111112" y="619.739393939394" type="line" smooth="yes"/>
      <point x="85.51111111111112" y="666.0232323232324"/>
      <point x="97.08585858585857" y="673.4151515151515"/>
      <point x="132.25252525252526" y="673.4151515151515" type="curve" smooth="yes"/>
      <point x="416.0282828282828" y="673.4151515151515" type="line"/>
    </contour>
  </outline>
</glyph>
<glyph name="eight" format="2">
  <advance width="511.1888888888889"/>
  <unicode hex="0038"/>
  <outline>
    <contour>
      <point x="253.5161616161616" y="-10.0" type="curve" smooth="yes"/>
      <point x="373.78080808080813" y="-10.0"/>
      <point x="455.6424242424243" y="53.525252525252526"/>
      <point x="455.6424242424243" y="172.5242424242424" type="curve" smooth="yes"/>
      <point x="455.6424242424243" y="277.25959595959597"/>
      <point x="404.93535353535356" y="325.6272727272727"/>
      <point x="301.2909090909091" y="376.46464646464653" type="curve"/>
      <point x="385.0656565656566" y="410.1393939393939"/>
      <point x="434.5878787878788" y="466.5717171717172"/>
      <point x="434.5878787878788" y="558.6121212121212" type="curve" smooth="yes"/>
      <point x="434.5878787878788" y="653.310101010101"/>
      <point x="375.1010101010101" y="724.0"/>
      <point x="259.9020202020202" y="724.0" type="curve" smooth="yes"/>
      <point x="143.55252525252527" y="724.0"/>
      <point x="83.22525252525253" y="653.7202020202019"/>
      <point x="83.22525252525253" y="552.2454545454545" type="curve" smooth="yes"/>
      <point x="83.22525252525253" y="464.15353535353535"/>
      <point x="138.28383838383837" y="412.4555555555556"/>
      <point x="219.079797979798" y="373.70808080808075" type="curve"/>
      <point x="120.66060606060607" y="335.82525252525255"/>
      <point x="60.56060606060606" y="272.42626262626266"/>
      <point x="60.56060606060606" y="171.23232323232324" type="curve" smooth="yes"/>
      <point x="60.56060606060606" y="60.58383838383838"/>
      <point x="127.46666666666667" y="-10.0"/>
    </contour>
    <contour>
      <point x="252.84646464646468" y="19.68787878787879" type="curve" smooth="yes"/>
      <point x="152.45151515151514" y="19.68787878787879"/>
      <point x="102.03030303030302" y="76.95454545454545"/>
      <point x="102.03030303030302" y="171.63737373737374" type="curve" smooth="yes"/>
      <point x="102.03030303030302" y="252.94040404040405"/>
      <point x="149.26565656565657" y="319.1242424242424"/>
      <point x="252.3050505050505" y="357.22020202020195" type="curve"/>
      <point x="383.0474747474747" y="300.459595959596"/>
      <point x="414.74545454545455" y="247.34747474747476"/>
      <point x="414.74545454545455" y="169.13333333333335" type="curve" smooth="yes"/>
      <point x="414.74545454545455" y="71.12828282828283"/>
      <point x="351.00707070707074" y="19.68787878787879"/>
    </contour>
    <contour>
      <point x="268.7737373737374" y="392.29595959595963" type="curve"/>
      <point x="173.52727272727273" y="435.2131313131313"/>
      <point x="124.44747474747473" y="473.23838383838387"/>
      <point x="124.44747474747473" y="559.5181818181818" type="curve" smooth="yes"/>
      <point x="124.44747474747473" y="640.5464646464646"/>
      <point x="173.73131313131313" y="694.1777777777778"/>
      <point x="261.9343434343435" y="694.1777777777778" type="curve" smooth="yes"/>
      <point x="357.53939393939396" y="694.1777777777778"/>
      <point x="394.58181818181816" y="626.6838383838384"/>
      <point x="394.58181818181816" y="556.7292929292929" type="curve" smooth="yes"/>
      <point x="394.58181818181816" y="480.32222222222225"/>
      <point x="365.38787878787883" y="429.66363636363633"/>
    </contour>
  </outline>
</glyph>
<glyph name="nine" format="2">
  <advance width="511.1888888888889"/>
  <unicode hex="0039"/>
  <outline>
    <contour>
      <point x="209.1888888888889" y="-11.577777777777778" type="curve"/>
      <point x="372.9474747474748" y="-11.577777777777778"/>
      <point x="442.1090909090909" y="123.39898989898988"/>
      <point x="442.1090909090909" y="388.0" type="curve"/>
      <point x="442.1090909090909" y="622.5767676767678"/>
      <point x="363.34444444444443" y="724.0"/>
      <point x="237.14141414141415" y="724.0" type="curve" smooth="yes"/>
      <point x="119.97676767676768" y="724.0"/>
      <point x="59.89090909090908" y="630.4282828282829"/>
      <point x="59.89090909090908" y="486.1878787878788" type="curve" smooth="yes"/>
      <point x="59.89090909090908" y="361.1121212121212"/>
      <point x="122.65454545454544" y="284.3434343434343"/>
      <point x="241.1222222222222" y="284.3434343434343" type="curve" smooth="yes"/>
      <point x="318.17575757575753" y="284.3434343434343"/>
      <point x="377.68383838383835" y="329.31616161616165"/>
      <point x="399.3666666666666" y="354.840404040404" type="curve"/>
      <point x="396.30404040404045" y="129.920202020202"/>
      <point x="336.91818181818184" y="19.70808080808081"/>
      <point x="214.14848484848483" y="19.70808080808081" type="curve" smooth="yes"/>
      <point x="154.7141414141414" y="19.70808080808081"/>
      <point x="121.0171717171717" y="47.43737373737374"/>
      <point x="102.56666666666666" y="88.96565656565657" type="curve"/>
      <point x="94.26868686868687" y="85.38585858585857"/>
      <point x="89.11212121212121" y="75.97474747474747"/>
      <point x="89.11212121212121" y="61.348484848484844" type="curve" smooth="yes"/>
      <point x="89.11212121212121" y="27.59292929292929"/>
      <point x="125.83939393939394" y="-11.577777777777778"/>
    </contour>
    <contour>
      <point x="244.3707070707071" y="315.7777777777778" type="curve" smooth="yes"/>
      <point x="149.3919191919192" y="316.0111111111111"/>
      <point x="102.63333333333333" y="378.49292929292926"/>
      <point x="102.63333333333333" y="488.0" type="curve" smooth="yes"/>
      <point x="102.63333333333333" y="609.2"/>
      <point x="142.67373737373737" y="693.0252525252525"/>
      <point x="239.44848484848487" y="693.0252525252525" type="curve" smooth="yes"/>
      <point x="341.6232323232323" y="693.0252525252525"/>
      <point x="399.02020202020196" y="593.8929292929294"/>
      <point x="399.65656565656565" y="395.58181818181816" type="curve"/>
      <point x="379.9737373737374" y="371.789898989899"/>
      <point x="330.969696969697" y="316.0111111111111"/>
    </contour>
  </outline>
</glyph>
<glyph name="colon" format="2">
  <advance width="221.04040404040404"/>
  <unicode hex="003A"/>
  <outline>
    <contour>
      <point x="109.94545454545455" y="426.50505050505046" type="curve" smooth="yes"/>
      <point x="128.64141414141415" y="426.50505050505046"/>
      <point x="144.93535353535353" y="436.96868686868686"/>
      <point x="144.93535353535353" y="471.6111111111111" type="curve" smooth="yes"/>
      <point x="144.93535353535353" y="505.8888888888889"/>
      <point x="128.64141414141415" y="515.719191919192"/>
      <point x="109.94545454545455" y="515.719191919192" type="curve" smooth="yes"/>
      <point x="90.59191919191919" y="515.719191919192"/>
      <point x="74.37777777777778" y="505.8888888888889"/>
      <point x="74.37777777777778" y="471.6111111111111" type="curve" smooth="yes"/>
      <point x="74.37777777777778" y="436.96868686868686"/>
      <point x="90.59191919191919" y="426.50505050505046"/>
    </contour>
    <contour>
      <point x="109.94545454545455" y="-5.424242424242424" type="curve" smooth="yes"/>
      <point x="128.64141414141415" y="-5.424242424242424"/>
      <point x="144.93535353535353" y="5.1171717171717175"/>
      <point x="144.93535353535353" y="39.759595959595956" type="curve" smooth="yes"/>
      <point x="144.93535353535353" y="74.03737373737374"/>
      <point x="128.64141414141415" y="83.94545454545454"/>
      <point x="109.94545454545455" y="83.94545454545454" type="curve" smooth="yes"/>
      <point x="90.59191919191919" y="83.94545454545454"/>
      <point x="74.37777777777778" y="74.03737373737374"/>
      <point x="74.37777777777778" y="39.759595959595956" type="curve" smooth="yes"/>
      <point x="74.37777777777778" y="5.1171717171717175"/>
      <point x="90.59191919191919" y="-5.424242424242424"/>
    </contour>
  </outline>
</glyph>
<glyph name="semicolon" format="2">
  <advance width="221.04040404040404"/>
  <unicode hex="003B"/>
  <outline>
    <contour>
      <point x="40.26161616161617" y="-154.0" type="line"/>
      <point x="124.25555555555557" y="-124.66969696969696"/>
      <point x="156.21414141414144" y="-60.0090909090909"/>
      <point x="156.21414141414144" y="7.664646464646469" type="curve" smooth="yes"/>
      <point x="156.21414141414144" y="61.82424242424243"/>
      <point x="130.60202020202019" y="83.94545454545454"/>
      <point x="102.38787878787878" y="83.94545454545454" type="curve" smooth="yes"/>
      <point x="81.0030303030303" y="83.94545454545454"/>
      <point x="67.86060606060606" y="69.90404040404042"/>
      <point x="67.86060606060606" y="48.91717171717171" type="curve" smooth="yes"/>
      <point x="67.86060606060606" y="15.091919191919192"/>
      <point x="117.87575757575759" y="8.447474747474748"/>
      <point x="117.87575757575759" y="-27.45858585858586" type="curve" smooth="yes"/>
      <point x="117.87575757575759" y="-61.077777777777776"/>
      <point x="95.66767676767678" y="-108.93131313131313"/>
      <point x="40.26161616161617" y="-126.9131313131313" type="curve"/>
    </contour>
    <contour>
      <point x="109.94545454545455" y="426.50505050505046" type="curve" smooth="yes"/>
      <point x="129.0080808080808" y="426.50505050505046"/>
      <point x="144.93535353535353" y="436.96868686868686"/>
      <point x="144.93535353535353" y="471.6111111111111" type="curve" smooth="yes"/>
      <point x="144.93535353535353" y="505.8888888888889"/>
      <point x="129.0080808080808" y="515.719191919192"/>
      <point x="109.94545454545455" y="515.719191919192" type="curve" smooth="yes"/>
      <point x="90.59191919191919" y="515.719191919192"/>
      <point x="74.37777777777778" y="505.8888888888889"/>
      <point x="74.37777777777778" y="471.6111111111111" type="curve" smooth="yes"/>
      <point x="74.37777777777778" y="436.96868686868686"/>
      <point x="90.59191919191919" y="426.50505050505046"/>
    </contour>
  </outline>
</glyph>
<glyph name="equal" format="2">
  <advance width="509.8666666666667"/>
  <unicode hex="003D"/>
  <outline>
    <contour>
      <point x="60.24242424242425" y="443.1525252525252" type="line"/>
      <point x="448.33737373737375" y="443.1525252525252" type="line"/>
      <point x="448.33737373737375" y="477.65050505050505" type="line"/>
      <point x="60.24242424242425" y="477.65050505050505" type="line"/>
    </contour>
    <contour>
      <point x="60.24242424242425" y="236.63838383838385" type="line"/>
      <point x="448.33737373737375" y="236.63838383838385" type="line"/>
      <point x="448.33737373737375" y="271.1363636363637" type="line"/>
      <point x="60.24242424242425" y="271.1363636363637" type="line"/>
    </contour>
  </outline>
</glyph>
<glyph name="greater" format="2">
  <advance width="509.8666666666667"/>
  <unicode hex="003E"/>
  <outline>
    <contour>
      <point x="58.95555555555556" y="116.09191919191917" type="line"/>
      <point x="450.9111111111111" y="343.1515151515151" type="line"/>
      <point x="450.9111111111111" y="371.8484848484849" type="line"/>
      <point x="58.95555555555556" y="599.9080808080809" type="line"/>
      <point x="58.95555555555556" y="559.9828282828282" type="line"/>
      <point x="406.50707070707074" y="357.0" type="line"/>
      <point x="58.95555555555556" y="156.0949494949495" type="line"/>
    </contour>
  </outline>
</glyph>
<glyph name="question" format="2">
  <advance width="430.4404040404041"/>
  <unicode hex="003F"/>
  <outline>
    <contour>
      <point x="186.25252525252526" y="199.02222222222224" type="line"/>
      <point x="212.92727272727274" y="199.02222222222224" type="line"/>
      <point x="216.87878787878788" y="322.289898989899" type="line"/>
      <point x="322.6242424242424" y="372.76565656565657"/>
      <point x="372.2141414141414" y="438.669696969697"/>
      <point x="372.2141414141414" y="549.9030303030303" type="curve" smooth="yes"/>
      <point x="372.2141414141414" y="656.2616161616162"/>
      <point x="306.3959595959596" y="724.0"/>
      <point x="199.86262626262626" y="724.0" type="curve" smooth="yes"/>
      <point x="84.36060606060606" y="724.0"/>
      <point x="43.35050505050505" y="662.1090909090909"/>
      <point x="43.35050505050505" y="615.5717171717172" type="curve" smooth="yes"/>
      <point x="43.35050505050505" y="586.0969696969697"/>
      <point x="57.05656565656565" y="571.2343434343435"/>
      <point x="76.87979797979798" y="571.2343434343435" type="curve"/>
      <point x="76.87979797979798" y="636.4212121212121"/>
      <point x="103.18282828282827" y="693.9868686868687"/>
      <point x="201.85757575757577" y="693.9868686868687" type="curve" smooth="yes"/>
      <point x="287.5454545454545" y="693.9868686868687"/>
      <point x="330.9474747474748" y="634.5505050505052"/>
      <point x="330.9474747474748" y="551.6868686868687" type="curve" smooth="yes"/>
      <point x="330.9474747474748" y="454.7545454545455"/>
      <point x="287.5050505050506" y="389.7111111111111"/>
      <point x="182.66767676767677" y="339.84949494949495" type="curve"/>
    </contour>
    <contour>
      <point x="199.13939393939395" y="-5.424242424242424" type="curve" smooth="yes"/>
      <point x="218.85757575757575" y="-5.424242424242424"/>
      <point x="235.15151515151518" y="5.1171717171717175"/>
      <point x="235.15151515151518" y="39.759595959595956" type="curve" smooth="yes"/>
      <point x="235.15151515151518" y="74.03737373737374"/>
      <point x="218.85757575757575" y="83.94545454545454"/>
      <point x="199.13939393939395" y="83.94545454545454" type="curve" smooth="yes"/>
      <point x="180.44141414141413" y="83.94545454545454"/>
      <point x="164.22727272727275" y="74.03737373737374"/>
      <point x="164.22727272727275" y="39.759595959595956" type="curve" smooth="yes"/>
      <point x="164.22727272727275" y="5.1171717171717175"/>
      <point x="180.44141414141413" y="-5.424242424242424"/>
    </contour>
  </outline>
</glyph>
<glyph name="bracketleft" format="2">
  <advance width="284.40202020202025"/>
  <unicode hex="005B"/>
  <outline>
    <contour>
      <point x="91.14444444444445" y="-128.0" type="line"/>
      <point x="250.33535353535356" y="-128.0" type="line"/>
      <point x="250.33535353535356" y="-103.4111111111111" type="line"/>
      <point x="193.4858585858586" y="-103.4111111111111" type="line" smooth="yes"/>
      <point x="145.32424242424244" y="-103.4111111111111"/>
      <point x="133.2929292929293" y="-92.83535353535352"/>
      <point x="133.2929292929293" y="-18.805050505050506" type="curve" smooth="yes"/>
      <point x="133.2929292929293" y="650.8050505050505" type="line" smooth="yes"/>
      <point x="133.2929292929293" y="724.8353535353535"/>
      <point x="145.32424242424244" y="735.4111111111112"/>
      <point x="193.4858585858586" y="735.4111111111112" type="curve" smooth="yes"/>
      <point x="250.33535353535356" y="735.4111111111112" type="line"/>
      <point x="250.33535353535356" y="760.0" type="line"/>
      <point x="91.14444444444445" y="760.0" type="line"/>
    </contour>
  </outline>
</glyph>
<glyph name="backslash" format="2">
  <advance width="263.4"/>
  <unicode hex="005C"/>
  <outline>
    <contour>
      <point x="228.8141414141414" y="-121.0" type="line"/>
      <point x="263.4" y="-121.0" type="line"/>
      <point x="34.45151515151515" y="760.0" type="line"/>
      <point x="0.0" y="760.0" type="line"/>
    </contour>
  </outline>
</glyph>
<glyph name="bracketright" format="2">
  <advance width="284.40202020202025"/>
  <unicode hex="005D"/>
  <outline>
    <contour>
      <point x="33.56666666666667" y="-128.0" type="line"/>
      <point x="192.679797979798" y="-128.0" type="line"/>
      <point x="192.679797979798" y="760.0" type="line"/>
      <point x="33.56666666666667" y="760.0" type="line"/>
      <point x="33.56666666666667" y="735.4111111111112" type="line"/>
      <point x="90.33838383838383" y="735.4111111111112" type="line" smooth="yes"/>
      <point x="138.57777777777778" y="735.4111111111112"/>
      <point x="150.5313131313131" y="724.8353535353535"/>
      <point x="150.5313131313131" y="650.8050505050505" type="curve" smooth="yes"/>
      <point x="150.5313131313131" y="-18.805050505050506" type="line" smooth="yes"/>
      <point x="150.5313131313131" y="-92.83535353535352"/>
      <point x="138.57777777777778" y="-103.4111111111111"/>
      <point x="90.33838383838383" y="-103.4111111111111" type="curve" smooth="yes"/>
      <point x="33.56666666666667" y="-103.4111111111111" type="line"/>
    </contour>
  </outline>
</glyph>
<glyph name="asciicircum" format="2">
  <advance width="509.8666666666667"/>
  <unicode hex="005E"/>
  <outline>
    <contour>
      <point x="49.18282828282829" y="270.51616161616164" type="line"/>
      <point x="87.17474747474748" y="270.51616161616164" type="line"/>
      <point x="253.43333333333334" y="663.020202020202" type="line"/>
      <point x="421.61414141414144" y="270.51616161616164" type="line"/>
      <point x="459.68383838383835" y="270.51616161616164" type="line"/>
      <point x="266.47272727272724" y="714.0" type="line"/>
      <point x="240.10707070707068" y="714.0" type="line"/>
    </contour>
  </outline>
</glyph>
<glyph name="underscore" format="2">
  <advance width="419.1"/>
  <unicode hex="005F"/>
  <outline>
    <contour>
      <point x="-4.344444444444445" y="-125.03434343434344" type="line"/>
      <point x="423.73333333333335" y="-125.03434343434344" type="line"/>
      <point x="423.73333333333335" y="-83.0" type="line"/>
      <point x="-4.344444444444445" y="-83.0" type="line"/>
    </contour>
  </outline>
</glyph>
<glyph name="braceleft" format="2">
  <advance width="379.3181818181818"/>
  <unicode hex="007B"/>
  <outline>
    <contour>
      <point x="283.22828282828283" y="-131.15151515151516" type="curve" smooth="yes"/>
      <point x="317.6424242424243" y="-131.15151515151516" type="line"/>
      <point x="317.6424242424243" y="-102.4111111111111" type="line"/>
      <point x="292.0757575757576" y="-102.4111111111111" type="line" smooth="yes"/>
      <point x="237.97373737373738" y="-102.4111111111111"/>
      <point x="214.73131313131313" y="-64.41313131313132"/>
      <point x="214.73131313131313" y="10.914141414141415" type="curve" smooth="yes"/>
      <point x="214.73131313131313" y="188.4838383838384" type="line" smooth="yes"/>
      <point x="214.73131313131313" y="258.4222222222222"/>
      <point x="182.58686868686868" y="304.9969696969697"/>
      <point x="125.92525252525253" y="315.13535353535354" type="curve"/>
      <point x="125.92525252525253" y="317.2121212121212" type="line"/>
      <point x="182.97474747474746" y="327.2171717171717"/>
      <point x="214.73131313131313" y="373.55858585858584"/>
      <point x="214.73131313131313" y="442.57575757575756" type="curve" smooth="yes"/>
      <point x="214.73131313131313" y="616.5696969696969" type="line" smooth="yes"/>
      <point x="214.73131313131313" y="692.8171717171717"/>
      <point x="237.1070707070707" y="731.2595959595959"/>
      <point x="294.5707070707071" y="731.2595959595959" type="curve" smooth="yes"/>
      <point x="317.6424242424243" y="731.2595959595959" type="line"/>
      <point x="317.6424242424243" y="760.0" type="line"/>
      <point x="282.65050505050505" y="760.0" type="line" smooth="yes"/>
      <point x="211.11515151515152" y="760.0"/>
      <point x="172.50505050505052" y="709.5757575757576"/>
      <point x="172.50505050505052" y="620.1515151515151" type="curve" smooth="yes"/>
      <point x="172.50505050505052" y="444.57575757575756" type="line" smooth="yes"/>
      <point x="172.50505050505052" y="357.27272727272725"/>
      <point x="124.32727272727273" y="329.1808080808081"/>
      <point x="62.673737373737374" y="327.1808080808081" type="curve"/>
      <point x="62.673737373737374" y="303.66767676767677" type="line"/>
      <point x="129.52727272727273" y="300.3787878787879"/>
      <point x="172.50505050505052" y="268.95353535353536"/>
      <point x="172.50505050505052" y="185.4838383838384" type="curve" smooth="yes"/>
      <point x="172.50505050505052" y="9.696969696969697" type="line" smooth="yes"/>
      <point x="172.50505050505052" y="-76.5161616161616"/>
      <point x="211.11515151515152" y="-131.15151515151516"/>
    </contour>
  </outline>
</glyph>
<glyph name="bar" format="2">
  <advance width="510.61111111111114"/>
  <unicode hex="007C"/>
  <outline>
    <contour>
      <point x="238.05050505050505" y="-240.0" type="line"/>
      <point x="272.1383838383838" y="-240.0" type="line"/>
      <point x="272.1383838383838" y="760.0" type="line"/>
      <point x="238.05050505050505" y="760.0" type="line"/>
    </contour>
  </outline>
</glyph>
<glyph name="braceright" format="2">
  <advance width="379.3181818181818"/>
  <unicode hex="007D"/>
  <outline>
    <contour>
      <point x="62.673737373737374" y="-131.15151515151516" type="line"/>
      <point x="97.16565656565658" y="-131.15151515151516" type="line" smooth="yes"/>
      <point x="169.27878787878788" y="-131.15151515151516"/>
      <point x="207.81111111111113" y="-76.5161616161616"/>
      <point x="207.81111111111113" y="9.696969696969697" type="curve" smooth="yes"/>
      <point x="207.81111111111113" y="185.4838383838384" type="line" smooth="yes"/>
      <point x="207.81111111111113" y="268.95353535353536"/>
      <point x="250.94444444444446" y="300.3787878787879"/>
      <point x="317.6424242424243" y="303.66767676767677" type="curve"/>
      <point x="317.6424242424243" y="327.1808080808081" type="line"/>
      <point x="256.14444444444445" y="329.1808080808081"/>
      <point x="207.81111111111113" y="357.27272727272725"/>
      <point x="207.81111111111113" y="444.57575757575756" type="curve" smooth="yes"/>
      <point x="207.81111111111113" y="620.1515151515151" type="line" smooth="yes"/>
      <point x="207.81111111111113" y="709.5757575757576"/>
      <point x="169.27878787878788" y="760.0"/>
      <point x="97.74343434343434" y="760.0" type="curve" smooth="yes"/>
      <point x="62.673737373737374" y="760.0" type="line"/>
      <point x="62.673737373737374" y="731.2595959595959" type="line"/>
      <point x="85.82323232323232" y="731.2595959595959" type="line" smooth="yes"/>
      <point x="143.36464646464646" y="731.2595959595959"/>
      <point x="165.5848484848485" y="692.8171717171717"/>
      <point x="165.5848484848485" y="616.5696969696969" type="curve" smooth="yes"/>
      <point x="165.5848484848485" y="442.57575757575756" type="line" smooth="yes"/>
      <point x="165.5848484848485" y="373.55858585858584"/>
      <point x="197.41919191919192" y="327.2171717171717"/>
      <point x="254.5464646464646" y="317.2121212121212" type="curve"/>
      <point x="254.5464646464646" y="315.13535353535354" type="line"/>
      <point x="197.65151515151518" y="304.9969696969697"/>
      <point x="165.5848484848485" y="258.4222222222222"/>
      <point x="165.5848484848485" y="188.4838383838384" type="curve" smooth="yes"/>
      <point x="165.5848484848485" y="10.914141414141415" type="line" smooth="yes"/>
      <point x="165.5848484848485" y="-64.41313131313132"/>
      <point x="142.49797979797978" y="-102.4111111111111"/>
      <point x="88.31818181818181" y="-102.4111111111111" type="curve" smooth="yes"/>
      <point x="62.673737373737374" y="-102.4111111111111" type="line"/>
    </contour>
  </outline>
</glyph>
<glyph name="asciitilde" format="2">
  <advance width="509.8666666666667"/>
  <unicode hex="007E"/>
  <outline>
    <contour>
      <point x="55.101010101010104" y="275.3808080808081" type="curve"/>
      <point x="90.20808080808081" y="275.3808080808081" type="line"/>
      <point x="103.06464646464646" y="357.31717171717173"/>
      <point x="115.73535353535352" y="403.7212121212121"/>
      <point x="159.1030303030303" y="403.7212121212121" type="curve" smooth="yes"/>
      <point x="194.42020202020203" y="403.7212121212121"/>
      <point x="217.53636363636363" y="374.36161616161615"/>
      <point x="247.54040404040404" y="339.4818181818182" type="curve" smooth="yes"/>
      <point x="282.1666666666667" y="299.16969696969693"/>
      <point x="312.32323232323233" y="275.669696969697"/>
      <point x="350.96262626262626" y="275.669696969697" type="curve" smooth="yes"/>
      <point x="428.8868686868687" y="275.669696969697"/>
      <point x="445.0242424242424" y="374.9606060606061"/>
      <point x="454.36565656565654" y="437.4080808080808" type="curve"/>
      <point x="418.5474747474748" y="437.4080808080808" type="line"/>
      <point x="405.99898989898986" y="365.9888888888889"/>
      <point x="394.8828282828283" y="309.6454545454545"/>
      <point x="350.8636363636364" y="309.6454545454545" type="curve" smooth="yes"/>
      <point x="322.8575757575758" y="309.6454545454545"/>
      <point x="298.76262626262627" y="332.1525252525252"/>
      <point x="266.45656565656566" y="369.3333333333333" type="curve" smooth="yes"/>
      <point x="230.84343434343435" y="409.63030303030297"/>
      <point x="202.48787878787877" y="437.6969696969697"/>
      <point x="158.86969696969695" y="437.6969696969697" type="curve" smooth="yes"/>
      <point x="79.00303030303029" y="437.6969696969697"/>
      <point x="66.3040404040404" y="343.54949494949494"/>
    </contour>
  </outline>
</glyph>
<glyph name="twosuperior" format="2">
  <advance width="365.44444444444446"/>
  <unicode hex="00B2"/>
  <outline>
    <contour>
      <point x="43.03737373737374" y="386.7111111111111" type="line"/>
      <point x="299.1929292929293" y="386.7111111111111" type="line"/>
      <point x="301.53737373737374" y="487.2656565656566" type="line"/>
      <point x="280.0" y="487.2656565656566" type="line"/>
      <point x="278.3636363636364" y="463.35050505050503" type="line"/>
      <point x="276.72727272727275" y="429.45454545454544"/>
      <point x="271.82121212121217" y="419.75050505050507"/>
      <point x="235.1939393939394" y="419.75050505050507" type="curve"/>
      <point x="90.65454545454544" y="419.75050505050507" type="line"/>
      <point x="207.4040404040404" y="551.5444444444445" type="line"/>
      <point x="255.74444444444447" y="604.5252525252525"/>
      <point x="289.11515151515147" y="646.1080808080809"/>
      <point x="289.11515151515147" y="714.0919191919191" type="curve" smooth="yes"/>
      <point x="289.11515151515147" y="782.1989898989899"/>
      <point x="246.17777777777775" y="824.3444444444444"/>
      <point x="171.25555555555556" y="824.3444444444444" type="curve" smooth="yes"/>
      <point x="93.53131313131314" y="824.3444444444444"/>
      <point x="56.527272727272724" y="777.4747474747475"/>
      <point x="56.527272727272724" y="742.630303030303" type="curve" smooth="yes"/>
      <point x="56.527272727272724" y="720.779797979798"/>
      <point x="69.72323232323234" y="711.0252525252525"/>
      <point x="88.81111111111112" y="711.0252525252525" type="curve"/>
      <point x="88.81111111111112" y="755.9343434343434"/>
      <point x="109.46161616161616" y="796.629292929293"/>
      <point x="169.7909090909091" y="796.629292929293" type="curve" smooth="yes"/>
      <point x="229.57979797979797" y="796.629292929293"/>
      <point x="249.67474747474745" y="759.5070707070707"/>
      <point x="249.67474747474745" y="711.730303030303" type="curve" smooth="yes"/>
      <point x="249.67474747474745" y="647.9232323232324"/>
      <point x="220.65151515151516" y="607.2161616161617"/>
      <point x="171.95858585858588" y="552.7212121212121" type="curve" smooth="yes"/>
      <point x="43.03737373737374" y="406.42121212121214" type="line"/>
    </contour>
  </outline>
</glyph>
<glyph name="threesuperior" format="2">
  <advance width="365.44444444444446"/>
  <unicode hex="00B3"/>
  <outline>
    <contour>
      <point x="164.1050505050505" y="379.4222222222222" type="curve" smooth="yes"/>
      <point x="246.779797979798" y="379.4222222222222"/>
      <point x="307.5535353535353" y="424.33434343434345"/>
      <point x="307.5535353535353" y="507.74646464646463" type="curve" smooth="yes"/>
      <point x="307.5535353535353" y="575.4151515151515"/>
      <point x="263.62222222222226" y="602.7888888888889"/>
      <point x="210.16666666666669" y="611.9212121212121" type="curve"/>
      <point x="210.16666666666669" y="614.6121212121212" type="line"/>
      <point x="253.9656565656566" y="628.8010101010101"/>
      <point x="292.020202020202" y="660.5424242424242"/>
      <point x="292.020202020202" y="720.7737373737374" type="curve" smooth="yes"/>
      <point x="292.020202020202" y="781.1454545454545"/>
      <point x="251.8313131313131" y="823.0555555555555"/>
      <point x="168.62424242424245" y="823.0555555555555" type="curve" smooth="yes"/>
      <point x="97.93939393939395" y="823.0555555555555"/>
      <point x="47.614141414141415" y="780.3121212121212"/>
      <point x="47.614141414141415" y="735.3535353535353" type="curve" smooth="yes"/>
      <point x="47.614141414141415" y="708.7525252525253"/>
      <point x="61.809090909090905" y="698.8646464646465"/>
      <point x="77.35959595959596" y="698.8646464646465" type="curve"/>
      <point x="77.35959595959596" y="756.2040404040404"/>
      <point x="108.72525252525251" y="795.3404040404041"/>
      <point x="167.65959595959595" y="795.3404040404041" type="curve" smooth="yes"/>
      <point x="225.0515151515152" y="795.3404040404041"/>
      <point x="252.36767676767678" y="769.2121212121212"/>
      <point x="252.36767676767678" y="717.2323232323232" type="curve" smooth="yes"/>
      <point x="252.36767676767678" y="661.5808080808081"/>
      <point x="215.66666666666669" y="625.2484848484848"/>
      <point x="150.35252525252525" y="625.2484848484848" type="curve" smooth="yes"/>
      <point x="116.40303030303029" y="625.2484848484848" type="line"/>
      <point x="116.40303030303029" y="597.2434343434344" type="line"/>
      <point x="146.04747474747475" y="597.2434343434344" type="line" smooth="yes"/>
      <point x="229.35555555555555" y="597.2434343434344"/>
      <point x="267.74545454545455" y="567.0868686868687"/>
      <point x="267.74545454545455" y="507.66969696969693" type="curve" smooth="yes"/>
      <point x="267.74545454545455" y="439.26565656565657"/>
      <point x="226.12626262626264" y="408.12020202020204"/>
      <point x="164.96666666666667" y="408.12020202020204" type="curve" smooth="yes"/>
      <point x="93.77878787878787" y="408.12020202020204"/>
      <point x="69.3929292929293" y="446.26363636363635"/>
      <point x="69.3929292929293" y="504.9363636363636" type="curve"/>
      <point x="52.78989898989899" y="504.9363636363636"/>
      <point x="41.38080808080808" y="492.78282828282835"/>
      <point x="41.38080808080808" y="466.62222222222226" type="curve" smooth="yes"/>
      <point x="41.38080808080808" y="420.37979797979796"/>
      <point x="84.84545454545454" y="379.4222222222222"/>
    </contour>
  </outline>
</glyph>
<glyph name="multiply" format="2">
  <advance width="509.8666666666667"/>
  <unicode hex="00D7"/>
  <outline>
    <contour>
      <point x="86.10707070707072" y="146.5848484848485" type="line"/>
      <point x="256.68888888888887" y="333.25656565656567" type="line"/>
      <point x="427.2707070707071" y="146.5848484848485" type="line"/>
      <point x="452.8818181818182" y="169.63030303030305" type="line"/>
      <point x="280.31111111111113" y="358.94545454545454" type="line"/>
      <point x="452.8818181818182" y="549.259595959596" type="line"/>
      <point x="428.05858585858584" y="572.649494949495" type="line"/>
      <point x="256.68888888888887" y="385.00101010101014" type="line"/>
      <point x="85.8959595959596" y="572.0939393939394" type="line"/>
      <point x="60.9949494949495" y="548.8383838383838" type="line"/>
      <point x="233.64343434343434" y="359.079797979798" type="line"/>
      <point x="61.4939393939394" y="170.1858585858586" type="line"/>
    </contour>
  </outline>
</glyph>
<glyph name="divide" format="2">
  <advance width="509.8666666666667"/>
  <unicode hex="00F7"/>
  <outline>
    <contour>
      <point x="58.95555555555556" y="340.1848484848485" type="line"/>
      <point x="450.9111111111111" y="340.1848484848485" type="line"/>
      <point x="450.9111111111111" y="374.6050505050505" type="line"/>
      <point x="58.95555555555556" y="374.6050505050505" type="line"/>
    </contour>
    <contour>
      <point x="255.43333333333334" y="134.03535353535355" type="curve" smooth="yes"/>
      <point x="276.95050505050506" y="134.03535353535355"/>
      <point x="294.46565656565656" y="144.8050505050505"/>
      <point x="294.46565656565656" y="176.9818181818182" type="curve" smooth="yes"/>
      <point x="294.46565656565656" y="210.94646464646465"/>
      <point x="276.95050505050506" y="221.0050505050505"/>
      <point x="255.43333333333334" y="221.0050505050505" type="curve" smooth="yes"/>
      <point x="232.91616161616162" y="221.0050505050505"/>
      <point x="216.6121212121212" y="210.94646464646465"/>
      <point x="216.6121212121212" y="176.9818181818182" type="curve" smooth="yes"/>
      <point x="216.6121212121212" y="144.8050505050505"/>
      <point x="232.91616161616162" y="134.03535353535355"/>
    </contour>
    <contour>
      <point x="255.43333333333334" y="495.15050505050505" type="curve" smooth="yes"/>
      <point x="276.95050505050506" y="495.15050505050505"/>
      <point x="294.46565656565656" y="505.92020202020205"/>
      <point x="294.46565656565656" y="538.5959595959597" type="curve" smooth="yes"/>
      <point x="294.46565656565656" y="572.0616161616163"/>
      <point x="276.95050505050506" y="582.1202020202021"/>
      <point x="255.43333333333334" y="582.1202020202021" type="curve" smooth="yes"/>
      <point x="232.91616161616162" y="582.1202020202021"/>
      <point x="216.6121212121212" y="572.0616161616163"/>
      <point x="216.6121212121212" y="538.5959595959597" type="curve" smooth="yes"/>
      <point x="216.6121212121212" y="505.92020202020205"/>
      <point x="232.91616161616162" y="495.15050505050505"/>
    </contour>
  </outline>
</glyph>
<glyph name="udatta-deva" format="2">
  <unicode hex="0951"/>
  <anchor x="0.0" y="544.5454545454545" name="_vedic"/>
  <outline>
    <contour>
      <point x="-15.814141414141416" y="907.0050505050505" type="line"/>
      <point x="15.814141414141416" y="907.0050505050505" type="line"/>
      <point x="15.814141414141416" y="1093.3383838383838" type="line"/>
      <point x="-15.814141414141416" y="1093.3383838383838" type="line"/>
    </contour>
  </outline>
</glyph>
<glyph name="danda-deva" format="2">
  <advance width="274.3848484848485"/>
  <unicode hex="0964"/>
  <outline>
    <contour>
      <point x="115.74242424242424" y="0.0" type="line"/>
      <point x="158.35353535353536" y="0.0" type="line"/>
      <point x="158.35353535353536" y="544.5454545454545" type="line"/>
      <point x="115.74242424242424" y="544.5454545454545" type="line"/>
    </contour>
  </outline>
</glyph>
<glyph name="dbldanda-deva" format="2">
  <advance width="490.34747474747473"/>
  <unicode hex="0965"/>
  <outline>
    <contour>
      <point x="331.9939393939394" y="0.0" type="line"/>
      <point x="374.31616161616165" y="0.0" type="line"/>
      <point x="374.31616161616165" y="544.5454545454545" type="line"/>
      <point x="331.9939393939394" y="544.5454545454545" type="line"/>
    </contour>
    <contour>
      <point x="115.74242424242424" y="0.0" type="line"/>
      <point x="158.35353535353536" y="0.0" type="line"/>
      <point x="158.35353535353536" y="544.5454545454545" type="line"/>
      <point x="115.74242424242424" y="544.5454545454545" type="line"/>
    </contour>
  </outline>
</glyph>
<glyph name="anusvara-tamil" format="2">
  <unicode hex="0B82"/>
  <note>
uni0B82
</note>
  <anchor x="0.0" y="544.5454545454545" name="_top"/>
  <outline>
    <contour>
      <point x="0.0" y="646.3939393939394" type="curve" smooth="yes"/>
      <point x="57.03636363636364" y="646.3939393939394"/>
      <point x="96.88181818181818" y="687.8888888888889"/>
      <point x="96.88181818181818" y="743.4272727272727" type="curve" smooth="yes"/>
      <point x="96.88181818181818" y="798.5232323232324"/>
      <point x="57.03636363636364" y="840.3848484848485"/>
      <point x="0.0" y="840.3848484848485" type="curve" smooth="yes"/>
      <point x="-57.03636363636364" y="840.3848484848485"/>
      <point x="-96.88181818181818" y="798.5232323232324"/>
      <point x="-96.88181818181818" y="743.4272727272727" type="curve" smooth="yes"/>
      <point x="-96.88181818181818" y="687.8888888888889"/>
      <point x="-57.03636363636364" y="646.3939393939394"/>
    </contour>
    <contour>
      <point x="0.0" y="677.0464646464646" type="curve" smooth="yes"/>
      <point x="-37.92929292929293" y="677.0464646464646"/>
      <point x="-63.51717171717171" y="705.2858585858586"/>
      <point x="-63.51717171717171" y="743.4272727272727" type="curve" smooth="yes"/>
      <point x="-63.51717171717171" y="781.2040404040405"/>
      <point x="-37.92929292929293" y="809.7323232323232"/>
      <point x="0.0" y="809.7323232323232" type="curve" smooth="yes"/>
      <point x="37.92929292929293" y="809.7323232323232"/>
      <point x="63.51717171717171" y="781.2040404040405"/>
      <point x="63.51717171717171" y="743.4272727272727" type="curve" smooth="yes"/>
      <point x="63.51717171717171" y="705.2858585858586"/>
      <point x="37.92929292929293" y="677.0464646464646"/>
    </contour>
  </outline>
</glyph>
<glyph name="visarga-tamil" format="2">
  <advance width="789.7616161616161"/>
  <unicode hex="0B83"/>
  <note>
uni0B83
</note>
  <outline>
    <contour>
      <point x="586.2969696969697" y="0.0" type="curve" smooth="yes"/>
      <point x="670.4898989898991" y="0.0"/>
      <point x="727.1616161616162" y="76.57575757575758"/>
      <point x="727.1616161616162" y="181.84848484848484" type="curve" smooth="yes"/>
      <point x="727.1616161616162" y="285.3333333333333"/>
      <point x="675.5050505050505" y="363.4848484848485"/>
      <point x="588.160606060606" y="363.4848484848485" type="curve" smooth="yes"/>
      <point x="495.57373737373734" y="363.4848484848485"/>
      <point x="448.62929292929294" y="280.6060606060606"/>
      <point x="448.62929292929294" y="181.84848484848484" type="curve" smooth="yes"/>
      <point x="448.62929292929294" y="79.72727272727272"/>
      <point x="495.49595959595956" y="0.0"/>
    </contour>
    <contour>
      <point x="199.90101010101012" y="0.0" type="curve" smooth="yes"/>
      <point x="284.38282828282826" y="0.0"/>
      <point x="340.76565656565657" y="76.57575757575758"/>
      <point x="340.76565656565657" y="181.84848484848484" type="curve" smooth="yes"/>
      <point x="340.76565656565657" y="285.3333333333333"/>
      <point x="289.1090909090909" y="363.4848484848485"/>
      <point x="202.05353535353535" y="363.4848484848485" type="curve" smooth="yes"/>
      <point x="109.25555555555555" y="363.4848484848485"/>
      <point x="62.23535353535354" y="280.6060606060606"/>
      <point x="62.23535353535354" y="181.84848484848484" type="curve" smooth="yes"/>
      <point x="62.23535353535354" y="79.72727272727272"/>
      <point x="109.17777777777778" y="0.0"/>
    </contour>
    <contour>
      <point x="395.04040404040404" y="405.6969696969697" type="curve" smooth="yes"/>
      <point x="479.5222222222222" y="405.6969696969697"/>
      <point x="535.9050505050504" y="481.27272727272725"/>
      <point x="535.9050505050504" y="587.3333333333334" type="curve" smooth="yes"/>
      <point x="535.9050505050504" y="691.030303030303"/>
      <point x="484.24848484848485" y="768.969696969697"/>
      <point x="396.9040404040404" y="768.969696969697" type="curve" smooth="yes"/>
      <point x="304.3949494949495" y="768.969696969697"/>
      <point x="257.45050505050506" y="686.3030303030303"/>
      <point x="257.45050505050506" y="587.3333333333334" type="curve" smooth="yes"/>
      <point x="257.45050505050506" y="485.2121212121212"/>
      <point x="304.31717171717173" y="405.6969696969697"/>
    </contour>
    <contour>
      <point x="194.9" y="31.18989898989899" type="curve" smooth="yes"/>
      <point x="126.4141414141414" y="31.18989898989899"/>
      <point x="93.03434343434343" y="97.50606060606061"/>
      <point x="93.03434343434343" y="181.84848484848484" type="curve" smooth="yes"/>
      <point x="93.03434343434343" y="264.32525252525255"/>
      <point x="127.7010101010101" y="333.0050505050505"/>
      <point x="196.9747474747475" y="333.0050505050505" type="curve" smooth="yes"/>
      <point x="268.440404040404" y="333.0050505050505"/>
      <point x="303.99393939393934" y="268.25151515151515"/>
      <point x="303.99393939393934" y="181.84848484848484" type="curve" smooth="yes"/>
      <point x="303.99393939393934" y="91.94747474747476"/>
      <point x="263.7919191919192" y="31.18989898989899"/>
    </contour>
    <contour>
      <point x="390.03939393939396" y="436.75252525252523" type="curve" smooth="yes"/>
      <point x="322.05252525252524" y="436.75252525252523"/>
      <point x="288.17373737373737" y="503.0686868686868"/>
      <point x="288.17373737373737" y="587.3333333333334" type="curve" smooth="yes"/>
      <point x="288.17373737373737" y="669.8878787878788"/>
      <point x="322.84040404040405" y="738.5676767676767"/>
      <point x="392.61313131313136" y="738.5676767676767" type="curve" smooth="yes"/>
      <point x="463.579797979798" y="738.5676767676767"/>
      <point x="498.99898989899" y="673.870707070707"/>
      <point x="498.99898989899" y="587.3333333333334" type="curve" smooth="yes"/>
      <point x="498.99898989899" y="497.6444444444444"/>
      <point x="458.9313131313131" y="436.75252525252523"/>
    </contour>
    <contour>
      <point x="581.2959595959596" y="31.18989898989899" type="curve" smooth="yes"/>
      <point x="513.309090909091" y="31.18989898989899"/>
      <point x="479.35252525252525" y="97.50606060606061"/>
      <point x="479.35252525252525" y="181.84848484848484" type="curve" smooth="yes"/>
      <point x="479.35252525252525" y="264.32525252525255"/>
      <point x="514.0969696969697" y="333.0050505050505"/>
      <point x="583.869696969697" y="333.0050505050505" type="curve" smooth="yes"/>
      <point x="654.8363636363637" y="333.0050505050505"/>
      <point x="690.389898989899" y="268.25151515151515"/>
      <point x="690.389898989899" y="181.84848484848484" type="curve" smooth="yes"/>
      <point x="690.389898989899" y="91.94747474747476"/>
      <point x="650.1878787878788" y="31.18989898989899"/>
    </contour>
  </outline>
</glyph>
<glyph name="a-tamil" format="2">
  <advance width="1168.4939393939394"/>
  <unicode hex="0B85"/>
  <note>
uni0B85
</note>
  <anchor x="565.9272727272727" y="0.0" name="bottom"/>
  <anchor x="404.6151515151516" y="-94.94949494949495" name="nukta"/>
  <anchor x="571.6232323232323" y="544.5454545454545" name="top"/>
  <anchor x="572.0676767676767" y="544.5454545454545" name="vedic"/>
  <outline>
    <contour>
      <point x="1016.4131313131312" y="-162.66767676767677" type="line"/>
      <point x="1059.0242424242424" y="-162.66767676767677" type="line"/>
      <point x="1059.0242424242424" y="544.5454545454545" type="line"/>
      <point x="1016.4131313131312" y="544.5454545454545" type="line"/>
      <point x="1016.4131313131312" y="162.98989898989902" type="line"/>
      <point x="104.12929292929293" y="162.98989898989902" type="line" smooth="yes"/>
      <point x="63.077777777777776" y="162.98989898989902"/>
      <point x="43.15454545454545" y="141.58181818181816"/>
      <point x="43.15454545454545" y="103.5959595959596" type="curve" smooth="yes"/>
      <point x="43.15454545454545" y="22.646464646464647"/>
      <point x="180.669696969697" y="-94.94949494949495"/>
      <point x="404.6151515151516" y="-94.94949494949495" type="curve" smooth="yes"/>
      <point x="631.669696969697" y="-94.94949494949495"/>
      <point x="842.690909090909" y="11.406060606060606"/>
      <point x="842.690909090909" y="261.9232323232323" type="curve" smooth="yes"/>
      <point x="842.690909090909" y="450.640404040404"/>
      <point x="723.4141414141413" y="552.6969696969697"/>
      <point x="569.9343434343434" y="552.6969696969697" type="curve" smooth="yes"/>
      <point x="444.4909090909091" y="552.6969696969697"/>
      <point x="372.0030303030303" y="474.07070707070704"/>
      <point x="372.0030303030303" y="392.09090909090907" type="curve" smooth="yes"/>
      <point x="372.0030303030303" y="314.8"/>
      <point x="417.3585858585859" y="261.969696969697"/>
      <point x="491.2626262626263" y="261.969696969697" type="curve" smooth="yes"/>
      <point x="564.3969696969698" y="261.969696969697"/>
      <point x="616.5525252525252" y="309.52525252525254"/>
      <point x="616.5525252525252" y="388.030303030303" type="curve" smooth="yes"/>
      <point x="616.5525252525252" y="455.1515151515151"/>
      <point x="572.3474747474747" y="508.27272727272725"/>
      <point x="524.9818181818182" y="531.8949494949495" type="curve"/>
      <point x="491.7909090909091" y="527.030303030303" type="line"/>
      <point x="546.89898989899" y="494.4848484848485"/>
      <point x="576.5111111111111" y="445.3030303030303"/>
      <point x="576.5111111111111" y="389.93939393939394" type="curve" smooth="yes"/>
      <point x="576.5111111111111" y="332.4040404040404"/>
      <point x="543.8373737373738" y="293.1212121212121"/>
      <point x="486.4868686868687" y="293.1212121212121" type="curve" smooth="yes"/>
      <point x="437.0565656565657" y="293.1212121212121"/>
      <point x="405.35656565656564" y="329.7858585858586"/>
      <point x="405.35656565656564" y="389.8787878787879" type="curve" smooth="yes"/>
      <point x="405.35656565656564" y="460.63232323232324"/>
      <point x="463.22323232323237" y="522.3333333333334"/>
      <point x="564.3151515151516" y="522.3333333333334" type="curve" smooth="yes"/>
      <point x="692.9616161616162" y="522.3333333333334"/>
      <point x="799.5242424242423" y="433.47474747474746"/>
      <point x="799.5242424242423" y="262.7111111111111" type="curve" smooth="yes"/>
      <point x="799.5242424242423" y="32.707070707070706"/>
      <point x="602.7535353535354" y="-63.010101010101"/>
      <point x="400.3666666666667" y="-63.010101010101" type="curve" smooth="yes"/>
      <point x="210.0888888888889" y="-63.010101010101"/>
      <point x="76.13232323232323" y="35.53939393939394"/>
      <point x="76.13232323232323" y="106.12727272727273" type="curve" smooth="yes"/>
      <point x="76.13232323232323" y="120.55151515151515"/>
      <point x="85.83838383838383" y="133.41414141414143"/>
      <point x="108.61818181818182" y="133.41414141414143" type="curve" smooth="yes"/>
      <point x="1016.4131313131312" y="133.41414141414143" type="line"/>
    </contour>
  </outline>
</glyph>
<glyph name="aa-tamil" format="2">
  <advance width="1267.9343434343434"/>
  <unicode hex="0B86"/>
  <note>
uni0B86
</note>
  <anchor x="621.2272727272727" y="0.0" name="bottom"/>
  <anchor x="404.6151515151516" y="-94.94949494949495" name="nukta"/>
  <anchor x="626.5585858585858" y="544.5454545454545" name="top"/>
  <anchor x="627.0010101010101" y="544.5454545454545" name="vedic"/>
  <outline>
    <contour>
      <point x="900.6151515151515" y="-408.23636363636365" type="curve" smooth="yes"/>
      <point x="1059.5424242424242" y="-408.23636363636365"/>
      <point x="1239.5696969696971" y="-295.6515151515151"/>
      <point x="1239.5696969696971" y="-108.96262626262626" type="curve" smooth="yes"/>
      <point x="1239.5696969696971" y="-32.415151515151514"/>
      <point x="1202.1898989898991" y="10.333333333333336"/>
      <point x="1144.7181818181818" y="10.333333333333336" type="curve" smooth="yes"/>
      <point x="1079.788888888889" y="10.333333333333336"/>
      <point x="1044.6828282828283" y="-38.38383838383839"/>
      <point x="1037.8383838383838" y="-115.31010101010101" type="curve"/>
      <point x="1055.3727272727272" y="-125.42323232323233" type="line"/>
      <point x="1057.369696969697" y="-64.37575757575758"/>
      <point x="1089.6626262626262" y="-27.732323232323232"/>
      <point x="1132.7737373737373" y="-27.732323232323232" type="curve" smooth="yes"/>
      <point x="1172.2777777777776" y="-27.732323232323232"/>
      <point x="1197.5383838383837" y="-54.53636363636364"/>
      <point x="1197.5383838383837" y="-112.10202020202019" type="curve" smooth="yes"/>
      <point x="1197.460606060606" y="-277.49494949494954"/>
      <point x="1032.6393939393938" y="-375.220202020202"/>
      <point x="896.5767676767678" y="-375.220202020202" type="curve" smooth="yes"/>
      <point x="814.3616161616162" y="-375.220202020202"/>
      <point x="746.9737373737374" y="-345.67171717171715"/>
      <point x="746.9737373737374" y="-273.89898989898995" type="curve" smooth="yes"/>
      <point x="746.9737373737374" y="-228.13131313131314"/>
      <point x="773.130303030303" y="-193.83333333333334"/>
      <point x="831.2818181818182" y="-177.90707070707072" type="curve"/>
      <point x="822.2747474747475" y="-146.75757575757575" type="line"/>
      <point x="747.450505050505" y="-167.4767676767677"/>
      <point x="712.9565656565657" y="-212.8151515151515"/>
      <point x="712.9565656565657" y="-271.55151515151516" type="curve" smooth="yes"/>
      <point x="712.9565656565657" y="-360.6828282828283"/>
      <point x="790.5878787878787" y="-408.23636363636365"/>
    </contour>
    <component base="a-tamil"/>
  </outline>
</glyph>
<glyph name="i-tamil" format="2">
  <advance width="888.7939393939394"/>
  <unicode hex="0B87"/>
  <note>
uni0B87
</note>
  <anchor x="435.85959595959594" y="0.0" name="bottom"/>
  <anchor x="433.85959595959594" y="-249.76565656565657" name="nukta"/>
  <anchor x="440.9858585858585" y="792.6929292929293" name="top"/>
  <anchor x="441.85959595959594" y="544.5454545454545" name="vedic"/>
  <outline>
    <contour>
      <point x="209.26363636363638" y="-282.030303030303" type="curve" smooth="yes"/>
      <point x="452.75050505050507" y="-282.030303030303"/>
      <point x="663.0717171717172" y="-5.484848484848484"/>
      <point x="663.0717171717172" y="261.06060606060606" type="curve" smooth="yes"/>
      <point x="663.0717171717172" y="442.8787878787879"/>
      <point x="577.1262626262627" y="552.6969696969697"/>
      <point x="429.99292929292926" y="552.6969696969697" type="curve" smooth="yes"/>
      <point x="313.6393939393939" y="552.6969696969697"/>
      <point x="244.42121212121214" y="477.8848484848485"/>
      <point x="244.42121212121214" y="391.45454545454544" type="curve" smooth="yes"/>
      <point x="244.42121212121214" y="313.0262626262626"/>
      <point x="290.85050505050503" y="262.1818181818182"/>
      <point x="361.23535353535357" y="262.1818181818182" type="curve" smooth="yes"/>
      <point x="435.19494949494947" y="262.1818181818182"/>
      <point x="481.32020202020203" y="310.5272727272727"/>
      <point x="481.32020202020203" y="387.3939393939394" type="curve" smooth="yes"/>
      <point x="481.32020202020203" y="451.75757575757575"/>
      <point x="443.1757575757576" y="505.3030303030303"/>
      <point x="388.35252525252525" y="531.1818181818181" type="curve"/>
      <point x="355.179797979798" y="526.1818181818181" type="line"/>
      <point x="411.5020202020202" y="493.8484848484849"/>
      <point x="441.98989898989896" y="445.5151515151515"/>
      <point x="441.98989898989896" y="389.5151515151515" type="curve" smooth="yes"/>
      <point x="441.98989898989896" y="333.6363636363636"/>
      <point x="414.5212121212121" y="293.17777777777775"/>
      <point x="357.09494949494945" y="293.17777777777775" type="curve" smooth="yes"/>
      <point x="306.7010101010101" y="293.17777777777775"/>
      <point x="277.7747474747475" y="331.6363636363636"/>
      <point x="277.7747474747475" y="389.45454545454544" type="curve" smooth="yes"/>
      <point x="277.7747474747475" y="461.57575757575756"/>
      <point x="329.45757575757574" y="522.3333333333334"/>
      <point x="423.01212121212126" y="522.3333333333334" type="curve" smooth="yes"/>
      <point x="548.9181818181819" y="522.3333333333334"/>
      <point x="620.4040404040403" y="425.8484848484849"/>
      <point x="620.4040404040403" y="266.72727272727275" type="curve" smooth="yes"/>
      <point x="620.4040404040403" y="18.909090909090907"/>
      <point x="439.4555555555555" y="-250.0909090909091"/>
      <point x="216.24242424242425" y="-250.0909090909091" type="curve" smooth="yes"/>
      <point x="136.87676767676768" y="-250.0909090909091"/>
      <point x="91.93535353535354" y="-214.80808080808083"/>
      <point x="91.93535353535354" y="-144.58383838383838" type="curve" smooth="yes"/>
      <point x="91.93535353535354" y="-15.036363636363637"/>
      <point x="261.4222222222222" y="75.12121212121212"/>
      <point x="431.40606060606063" y="75.12121212121212" type="curve" smooth="yes"/>
      <point x="596.4898989898991" y="75.12121212121212"/>
      <point x="773.1444444444445" y="-14.225252525252525"/>
      <point x="773.1444444444445" y="-142.75252525252526" type="curve" smooth="yes"/>
      <point x="773.1444444444445" y="-217.9424242424242"/>
      <point x="721.7010101010102" y="-250.0909090909091"/>
      <point x="645.7717171717172" y="-250.0909090909091" type="curve" smooth="yes"/>
      <point x="436.77373737373733" y="-250.0909090909091"/>
      <point x="109.94949494949495" y="74.0111111111111"/>
      <point x="109.94949494949495" y="387.310101010101" type="curve" smooth="yes"/>
      <point x="109.94949494949495" y="608.6454545454545"/>
      <point x="224.37070707070706" y="749.2555555555556"/>
      <point x="439.910101010101" y="749.2555555555556" type="curve" smooth="yes"/>
      <point x="663.8353535353535" y="749.2555555555556"/>
      <point x="790.9929292929293" y="591.6919191919193"/>
      <point x="790.9929292929293" y="340.70303030303035" type="curve" smooth="yes"/>
      <point x="790.9929292929293" y="103.33333333333333" type="line"/>
      <point x="823.0484848484848" y="103.33333333333333" type="line"/>
      <point x="823.0484848484848" y="340.70303030303035" type="line" smooth="yes"/>
      <point x="823.0484848484848" y="630.0555555555557"/>
      <point x="684.7777777777778" y="792.6929292929293"/>
      <point x="440.9858585858585" y="792.6929292929293" type="curve" smooth="yes"/>
      <point x="200.0979797979798" y="792.6929292929293"/>
      <point x="73.81818181818181" y="625.359595959596"/>
      <point x="73.81818181818181" y="398.4616161616162" type="curve" smooth="yes"/>
      <point x="73.81818181818181" y="67.23939393939395"/>
      <point x="415.63333333333327" y="-282.030303030303"/>
      <point x="656.5858585858585" y="-282.030303030303" type="curve" smooth="yes"/>
      <point x="743.1545454545455" y="-282.030303030303"/>
      <point x="809.9848484848484" y="-240.9121212121212"/>
      <point x="809.9848484848484" y="-147.58686868686868" type="curve" smooth="yes"/>
      <point x="809.9848484848484" y="4.980808080808082"/>
      <point x="621.3171717171717" y="106.06060606060606"/>
      <point x="431.40606060606063" y="106.06060606060606" type="curve" smooth="yes"/>
      <point x="237.4757575757576" y="106.06060606060606"/>
      <point x="55.44141414141414" y="3.5151515151515156"/>
      <point x="55.44141414141414" y="-144.95050505050506" type="curve" smooth="yes"/>
      <point x="55.44141414141414" y="-233.54848484848483"/>
      <point x="116.910101010101" y="-282.030303030303"/>
    </contour>
  </outline>
</glyph>
<glyph name="ii-tamil" format="2">
  <advance width="684.3636363636364"/>
  <unicode hex="0B88"/>
  <note>
uni0B88
</note>
  <anchor x="363.979797979798" y="0.0" name="bottom"/>
  <anchor x="364.5565656565657" y="0.0" name="nukta"/>
  <anchor x="367.0565656565657" y="544.5454545454545" name="top"/>
  <anchor x="366.8454545454546" y="544.5454545454545" name="vedic"/>
  <outline>
    <contour>
      <point x="109.81515151515151" y="0.0" type="line"/>
      <point x="142.77272727272728" y="0.0" type="line"/>
      <point x="142.77272727272728" y="514.969696969697" type="line"/>
      <point x="414.1020202020201" y="514.969696969697" type="line"/>
      <point x="414.1020202020201" y="0.0" type="line"/>
      <point x="457.0020202020202" y="0.0" type="line"/>
      <point x="457.0020202020202" y="514.969696969697" type="line"/>
      <point x="639.1050505050505" y="514.969696969697" type="line"/>
      <point x="639.1050505050505" y="544.5454545454545" type="line"/>
      <point x="109.81515151515151" y="544.5454545454545" type="line"/>
    </contour>
    <contour>
      <point x="277.2828282828283" y="224.99494949494948" type="curve" smooth="yes"/>
      <point x="297.9606060606061" y="224.99494949494948"/>
      <point x="314.1363636363636" y="241.6151515151515"/>
      <point x="314.1363636363636" y="261.7141414141414" type="curve" smooth="yes"/>
      <point x="314.1363636363636" y="281.46868686868686"/>
      <point x="297.9606060606061" y="298.510101010101"/>
      <point x="277.2828282828283" y="298.510101010101" type="curve" smooth="yes"/>
      <point x="255.73939393939392" y="298.510101010101"/>
      <point x="238.77575757575755" y="281.46868686868686"/>
      <point x="238.77575757575755" y="261.7141414141414" type="curve" smooth="yes"/>
      <point x="238.77575757575755" y="241.6151515151515"/>
      <point x="255.73939393939392" y="224.99494949494948"/>
    </contour>
    <contour>
      <point x="591.3808080808082" y="224.99494949494948" type="curve" smooth="yes"/>
      <point x="612.6919191919193" y="224.99494949494948"/>
      <point x="628.7333333333333" y="241.6151515151515"/>
      <point x="628.7333333333333" y="261.7141414141414" type="curve" smooth="yes"/>
      <point x="628.7333333333333" y="281.46868686868686"/>
      <point x="612.6919191919193" y="298.510101010101"/>
      <point x="591.3808080808082" y="298.510101010101" type="curve" smooth="yes"/>
      <point x="569.8373737373738" y="298.510101010101"/>
      <point x="553.5070707070707" y="281.46868686868686"/>
      <point x="553.5070707070707" y="261.7141414141414" type="curve" smooth="yes"/>
      <point x="553.5070707070707" y="241.6151515151515"/>
      <point x="569.8373737373738" y="224.99494949494948"/>
    </contour>
  </outline>
</glyph>
<glyph name="u-tamil" format="2">
  <advance width="945.3474747474748"/>
  <unicode hex="0B89"/>
  <note>
uni0B89
</note>
  <anchor x="493.8282828282829" y="0.0" name="bottom"/>
  <anchor x="493.9060606060607" y="0.0" name="nukta"/>
  <anchor x="495.9838383838385" y="544.5454545454545" name="top"/>
  <anchor x="496.539393939394" y="544.5454545454545" name="vedic"/>
  <outline>
    <contour>
      <point x="146.9060606060606" y="0.0" type="curve" smooth="yes"/>
      <point x="920.6434343434343" y="0.0" type="line"/>
      <point x="920.6434343434343" y="29.575757575757578" type="line"/>
      <point x="144.56666666666666" y="29.575757575757578" type="line" smooth="yes"/>
      <point x="109.87979797979797" y="29.575757575757578"/>
      <point x="85.84343434343434" y="53.24242424242424"/>
      <point x="85.84343434343434" y="87.6969696969697" type="curve" smooth="yes"/>
      <point x="85.84343434343434" y="123.15151515151516"/>
      <point x="109.09191919191919" y="143.66666666666666"/>
      <point x="144.56666666666666" y="143.66666666666666" type="curve" smooth="yes"/>
      <point x="364.19191919191917" y="143.66666666666666" type="line" smooth="yes"/>
      <point x="495.0535353535353" y="143.66666666666666"/>
      <point x="583.5676767676766" y="208.95555555555555"/>
      <point x="583.5676767676766" y="338.3636363636364" type="curve" smooth="yes"/>
      <point x="583.5676767676766" y="473.1212121212121"/>
      <point x="485.70505050505056" y="552.6969696969697"/>
      <point x="338.8212121212121" y="552.6969696969697" type="curve" smooth="yes"/>
      <point x="216.07878787878786" y="552.6969696969697"/>
      <point x="139.5040404040404" y="475.06969696969696"/>
      <point x="139.5040404040404" y="391.8575757575757" type="curve" smooth="yes"/>
      <point x="139.5040404040404" y="315.3555555555556"/>
      <point x="184.23636363636365" y="261.969696969697"/>
      <point x="258.00707070707074" y="261.969696969697" type="curve" smooth="yes"/>
      <point x="331.4858585858586" y="261.969696969697"/>
      <point x="383.2191919191919" y="310.6585858585859"/>
      <point x="383.2191919191919" y="387.79696969696965" type="curve" smooth="yes"/>
      <point x="383.2191919191919" y="454.84040404040405"/>
      <point x="339.6131313131313" y="508.1171717171717"/>
      <point x="291.6151515151515" y="531.6060606060606" type="curve"/>
      <point x="258.48080808080806" y="527.030303030303" type="line"/>
      <point x="313.8767676767677" y="494.4848484848485"/>
      <point x="343.17777777777775" y="445.06969696969696"/>
      <point x="343.17777777777775" y="389.7060606060606" type="curve" smooth="yes"/>
      <point x="343.17777777777775" y="333.5373737373738"/>
      <point x="311.81414141414143" y="293.1212121212121"/>
      <point x="253.25353535353534" y="293.1212121212121" type="curve" smooth="yes"/>
      <point x="203.40101010101012" y="293.1212121212121"/>
      <point x="172.43434343434345" y="330.130303030303"/>
      <point x="172.43434343434345" y="389.6454545454545" type="curve" smooth="yes"/>
      <point x="172.43434343434345" y="461.55454545454546"/>
      <point x="234.84646464646463" y="522.3333333333334"/>
      <point x="332.33737373737375" y="522.3333333333334" type="curve" smooth="yes"/>
      <point x="455.6131313131313" y="522.3333333333334"/>
      <point x="540.1686868686869" y="455.6666666666667"/>
      <point x="540.1686868686869" y="341.90909090909093" type="curve" smooth="yes"/>
      <point x="540.1686868686869" y="230.6060606060606"/>
      <point x="469.1333333333334" y="173.8181818181818"/>
      <point x="356.07373737373734" y="173.8181818181818" type="curve" smooth="yes"/>
      <point x="146.9060606060606" y="173.8181818181818" type="line" smooth="yes"/>
      <point x="89.06161616161616" y="173.8181818181818"/>
      <point x="53.312121212121205" y="141.3939393939394"/>
      <point x="53.312121212121205" y="87.6969696969697" type="curve" smooth="yes"/>
      <point x="53.312121212121205" y="35.0"/>
      <point x="89.06161616161616" y="0.0"/>
    </contour>
  </outline>
</glyph>
<glyph name="uu-tamil" format="2">
  <advance width="1500.9959595959597"/>
  <unicode hex="0B8A"/>
  <note>
uni0B8A
</note>
  <anchor x="789.0707070707072" y="0.0" name="bottom"/>
  <anchor x="789.9929292929294" y="0.0" name="nukta"/>
  <anchor x="792.2050505050505" y="544.5454545454545" name="top"/>
  <anchor x="792.0707070707072" y="544.5454545454545" name="vedic"/>
  <outline>
    <contour>
      <point x="146.43939393939394" y="0.0" type="curve" smooth="yes"/>
      <point x="1482.9525252525252" y="0.0" type="line"/>
      <point x="1482.9525252525252" y="29.575757575757578" type="line"/>
      <point x="144.1" y="29.575757575757578" type="line" smooth="yes"/>
      <point x="109.33535353535353" y="29.575757575757578"/>
      <point x="85.84343434343434" y="53.24242424242424"/>
      <point x="85.84343434343434" y="87.6969696969697" type="curve" smooth="yes"/>
      <point x="85.84343434343434" y="123.15151515151516"/>
      <point x="108.54747474747475" y="143.66666666666666"/>
      <point x="144.1" y="143.66666666666666" type="curve" smooth="yes"/>
      <point x="364.19191919191917" y="143.66666666666666" type="line" smooth="yes"/>
      <point x="495.0535353535353" y="143.66666666666666"/>
      <point x="583.5676767676766" y="208.95555555555555"/>
      <point x="583.5676767676766" y="338.3636363636364" type="curve" smooth="yes"/>
      <point x="583.5676767676766" y="473.1212121212121"/>
      <point x="485.70505050505056" y="552.6969696969697"/>
      <point x="338.8212121212121" y="552.6969696969697" type="curve" smooth="yes"/>
      <point x="216.07878787878786" y="552.6969696969697"/>
      <point x="139.5040404040404" y="475.06969696969696"/>
      <point x="139.5040404040404" y="391.8575757575757" type="curve" smooth="yes"/>
      <point x="139.5040404040404" y="315.3555555555556"/>
      <point x="184.23636363636365" y="261.969696969697"/>
      <point x="258.00707070707074" y="261.969696969697" type="curve" smooth="yes"/>
      <point x="331.4858585858586" y="261.969696969697"/>
      <point x="383.2191919191919" y="310.6585858585859"/>
      <point x="383.2191919191919" y="387.79696969696965" type="curve" smooth="yes"/>
      <point x="383.2191919191919" y="454.84040404040405"/>
      <point x="339.6131313131313" y="508.1171717171717"/>
      <point x="291.6151515151515" y="531.6060606060606" type="curve"/>
      <point x="258.48080808080806" y="527.030303030303" type="line"/>
      <point x="313.8767676767677" y="494.4848484848485"/>
      <point x="343.17777777777775" y="445.06969696969696"/>
      <point x="343.17777777777775" y="389.7060606060606" type="curve" smooth="yes"/>
      <point x="343.17777777777775" y="333.5373737373738"/>
      <point x="311.81414141414143" y="293.1212121212121"/>
      <point x="253.25353535353534" y="293.1212121212121" type="curve" smooth="yes"/>
      <point x="203.40101010101012" y="293.1212121212121"/>
      <point x="172.43434343434345" y="330.130303030303"/>
      <point x="172.43434343434345" y="389.6454545454545" type="curve" smooth="yes"/>
      <point x="172.43434343434345" y="461.55454545454546"/>
      <point x="234.84646464646463" y="522.3333333333334"/>
      <point x="332.33737373737375" y="522.3333333333334" type="curve" smooth="yes"/>
      <point x="455.6131313131313" y="522.3333333333334"/>
      <point x="540.1686868686869" y="455.6666666666667"/>
      <point x="540.1686868686869" y="341.90909090909093" type="curve" smooth="yes"/>
      <point x="540.1686868686869" y="230.6060606060606"/>
      <point x="469.1333333333334" y="173.8181818181818"/>
      <point x="356.07373737373734" y="173.8181818181818" type="curve" smooth="yes"/>
      <point x="146.43939393939394" y="173.8181818181818" type="line" smooth="yes"/>
      <point x="88.59494949494949" y="173.8181818181818"/>
      <point x="53.312121212121205" y="141.3939393939394"/>
      <point x="53.312121212121205" y="87.6969696969697" type="curve" smooth="yes"/>
      <point x="53.312121212121205" y="35.0"/>
      <point x="88.59494949494949" y="0.0"/>
    </contour>
    <contour>
      <point x="827.1626262626263" y="103.78787878787878" type="curve" smooth="yes"/>
      <point x="907.949494949495" y="103.78787878787878"/>
      <point x="961.8333333333334" y="156.1161616161616"/>
      <point x="961.8333333333334" y="243.28686868686867" type="curve" smooth="yes"/>
      <point x="961.8333333333334" y="325.51111111111106"/>
      <point x="909.8666666666667" y="375.5292929292929"/>
      <point x="840.7676767676768" y="375.5292929292929" type="curve" smooth="yes"/>
      <point x="759.9575757575758" y="375.5292929292929"/>
      <point x="712.7444444444445" y="307.5272727272727"/>
      <point x="696.0040404040404" y="237.8181818181818" type="curve"/>
      <point x="708.9272727272727" y="209.0" type="line"/>
      <point x="727.2414141414141" y="277.0424242424242"/>
      <point x="767.8565656565657" y="342.75757575757575"/>
      <point x="831.9727272727273" y="342.75757575757575" type="curve" smooth="yes"/>
      <point x="885.8444444444444" y="342.75757575757575"/>
      <point x="921.5010101010101" y="306.94242424242424"/>
      <point x="921.5010101010101" y="241.06060606060606" type="curve" smooth="yes"/>
      <point x="921.5010101010101" y="172.43434343434345"/>
      <point x="879.9929292929293" y="134.72727272727272"/>
      <point x="822.3131313131314" y="134.72727272727272" type="curve" smooth="yes"/>
      <point x="756.2292929292929" y="134.72727272727272"/>
      <point x="704.7424242424242" y="192.96969696969697"/>
      <point x="704.7424242424242" y="293.7878787878788" type="curve" smooth="yes"/>
      <point x="704.7424242424242" y="426.9969696969697"/>
      <point x="766.4606060606061" y="522.3333333333334"/>
      <point x="891.189898989899" y="522.3333333333334" type="curve" smooth="yes"/>
      <point x="990.4818181818183" y="522.3333333333334"/>
      <point x="1079.7565656565657" y="458.3131313131313"/>
      <point x="1079.8343434343435" y="323.06060606060606" type="curve"/>
      <point x="1106.3101010101009" y="323.8484848484849" type="line"/>
      <point x="1106.232323232323" y="485.57575757575756"/>
      <point x="1006.1505050505051" y="552.6969696969697"/>
      <point x="890.4767676767677" y="552.6969696969697" type="curve" smooth="yes"/>
      <point x="747.0262626262627" y="552.6969696969697"/>
      <point x="671.2888888888889" y="440.22020202020207"/>
      <point x="671.2888888888889" y="294.93939393939394" type="curve" smooth="yes"/>
      <point x="671.2888888888889" y="180.21212121212122"/>
      <point x="737.7757575757576" y="103.78787878787878"/>
    </contour>
    <contour>
      <point x="1079.8343434343435" y="107.0" type="line"/>
      <point x="1121.7131313131313" y="107.0" type="line"/>
      <point x="1121.7131313131313" y="515.3939393939394" type="line"/>
      <point x="1319.4737373737373" y="515.3939393939394" type="line"/>
      <point x="1319.4737373737373" y="107.0" type="line"/>
      <point x="1360.9858585858588" y="107.0" type="line"/>
      <point x="1360.9858585858588" y="515.3939393939394" type="line"/>
      <point x="1482.9525252525252" y="515.3939393939394" type="line"/>
      <point x="1482.9525252525252" y="544.5454545454545" type="line"/>
      <point x="1081.8060606060608" y="544.5454545454545" type="line"/>
      <point x="1081.8060606060608" y="408.1515151515151" type="line"/>
      <point x="1079.8343434343435" y="390.75757575757575" type="line"/>
    </contour>
  </outline>
</glyph>
<glyph name="e-tamil" format="2">
  <advance width="786.9363636363637"/>
  <unicode hex="0B8E"/>
  <note>
uni0B8E
</note>
  <anchor x="414.3808080808081" y="0.0" name="bottom"/>
  <anchor x="415.3808080808081" y="0.0" name="nukta"/>
  <anchor x="416.82323232323233" y="544.5454545454545" name="top"/>
  <anchor x="417.3808080808081" y="544.5454545454545" name="vedic"/>
  <outline>
    <contour>
      <point x="234.3929292929293" y="-4.212121212121212" type="curve" smooth="yes"/>
      <point x="321.08989898989904" y="-4.212121212121212"/>
      <point x="380.32020202020203" y="52.54141414141414"/>
      <point x="380.32020202020203" y="147.00404040404038" type="curve" smooth="yes"/>
      <point x="380.32020202020203" y="235.14242424242423"/>
      <point x="323.4151515151515" y="287.24242424242425"/>
      <point x="249.69494949494947" y="287.24242424242425" type="curve" smooth="yes"/>
      <point x="160.56060606060606" y="287.24242424242425"/>
      <point x="109.62020202020202" y="214.67676767676767"/>
      <point x="92.50404040404041" y="138.86767676767676" type="curve"/>
      <point x="107.30000000000001" y="111.49898989898989" type="line"/>
      <point x="127.85555555555555" y="188.95151515151517"/>
      <point x="168.4151515151515" y="253.33333333333334"/>
      <point x="238.84141414141413" y="253.33333333333334" type="curve" smooth="yes"/>
      <point x="301.3717171717172" y="253.33333333333334"/>
      <point x="339.4434343434343" y="209.6969696969697"/>
      <point x="339.4434343434343" y="142.84848484848484" type="curve" smooth="yes"/>
      <point x="339.4434343434343" y="68.15151515151516"/>
      <point x="292.64949494949497" y="26.93939393939394"/>
      <point x="228.65757575757573" y="26.93939393939394" type="curve" smooth="yes"/>
      <point x="146.86969696969697" y="26.93939393939394"/>
      <point x="94.14545454545454" y="105.51818181818182"/>
      <point x="94.14545454545454" y="233.32020202020203" type="curve" smooth="yes"/>
      <point x="94.14545454545454" y="397.2959595959596"/>
      <point x="188.04949494949497" y="514.969696969697"/>
      <point x="365.1929292929293" y="514.969696969697" type="curve" smooth="yes"/>
      <point x="565.528282828283" y="514.969696969697" type="line"/>
      <point x="565.528282828283" y="0.0" type="line"/>
      <point x="608.139393939394" y="0.0" type="line"/>
      <point x="608.139393939394" y="514.969696969697" type="line"/>
      <point x="761.9" y="514.969696969697" type="line"/>
      <point x="761.9" y="544.5454545454545" type="line"/>
      <point x="368.54848484848486" y="544.5454545454545" type="line" smooth="yes"/>
      <point x="162.43434343434345" y="544.5454545454545"/>
      <point x="60.45959595959596" y="413.6353535353535"/>
      <point x="60.45959595959596" y="234.32020202020203" type="curve" smooth="yes"/>
      <point x="60.45959595959596" y="90.14343434343434"/>
      <point x="128.45959595959593" y="-4.212121212121212"/>
    </contour>
  </outline>
</glyph>
<glyph name="ee-tamil" format="2">
  <advance width="786.9363636363637"/>
  <unicode hex="0B8F"/>
  <note>
uni0B8F
</note>
  <anchor x="414.3808080808081" y="0.0" name="bottom"/>
  <anchor x="415.3808080808081" y="-186.2" name="nukta"/>
  <anchor x="417.24848484848485" y="544.5454545454545" name="top"/>
  <anchor x="417.3808080808081" y="544.5454545454545" name="vedic"/>
  <outline>
    <contour>
      <point x="425.47474747474746" y="-208.23232323232324" type="line"/>
      <point x="608.139393939394" y="2.039393939393941" type="line"/>
      <point x="608.139393939394" y="514.969696969697" type="line"/>
      <point x="761.9" y="514.969696969697" type="line"/>
      <point x="761.9" y="544.5454545454545" type="line"/>
      <point x="367.8767676767677" y="544.5454545454545" type="line" smooth="yes"/>
      <point x="161.76262626262627" y="544.5454545454545"/>
      <point x="60.45959595959596" y="413.6353535353535"/>
      <point x="60.45959595959596" y="234.32020202020203" type="curve" smooth="yes"/>
      <point x="60.45959595959596" y="90.14343434343434"/>
      <point x="128.45959595959593" y="-4.0777777777777775"/>
      <point x="234.3929292929293" y="-4.0777777777777775" type="curve" smooth="yes"/>
      <point x="321.08989898989904" y="-4.0777777777777775"/>
      <point x="380.32020202020203" y="52.67575757575757"/>
      <point x="380.32020202020203" y="147.00404040404038" type="curve" smooth="yes"/>
      <point x="380.32020202020203" y="235.14242424242423"/>
      <point x="323.4151515151515" y="287.37676767676766"/>
      <point x="249.69494949494947" y="287.37676767676766" type="curve" smooth="yes"/>
      <point x="160.56060606060606" y="287.37676767676766"/>
      <point x="109.62020202020202" y="214.67676767676767"/>
      <point x="92.50404040404041" y="139.00202020202022" type="curve"/>
      <point x="107.30000000000001" y="111.63333333333334" type="line"/>
      <point x="127.85555555555555" y="189.0858585858586"/>
      <point x="168.4151515151515" y="253.33333333333334"/>
      <point x="238.84141414141413" y="253.33333333333334" type="curve" smooth="yes"/>
      <point x="301.3717171717172" y="253.33333333333334"/>
      <point x="339.4434343434343" y="209.83131313131312"/>
      <point x="339.4434343434343" y="142.84848484848484" type="curve" smooth="yes"/>
      <point x="339.4434343434343" y="68.28585858585859"/>
      <point x="292.64949494949497" y="26.93939393939394"/>
      <point x="228.65757575757573" y="26.93939393939394" type="curve" smooth="yes"/>
      <point x="146.86969696969697" y="26.93939393939394"/>
      <point x="94.14545454545454" y="105.51818181818182"/>
      <point x="94.14545454545454" y="233.32020202020203" type="curve" smooth="yes"/>
      <point x="94.14545454545454" y="397.2959595959596"/>
      <point x="188.04949494949497" y="514.969696969697"/>
      <point x="365.1929292929293" y="514.969696969697" type="curve" smooth="yes"/>
      <point x="565.528282828283" y="514.969696969697" type="line"/>
      <point x="565.528282828283" y="3.7484848484848476" type="line"/>
      <point x="400.940404040404" y="-186.1878787878788" type="line"/>
    </contour>
  </outline>
</glyph>
<glyph name="ai-tamil" format="2">
  <advance width="874.9181818181818"/>
  <unicode hex="0B90"/>
  <note>
uni0B90
</note>
  <anchor x="452.43535353535356" y="0.0" name="bottom"/>
  <anchor x="450.62626262626264" y="-281.8181818181818" name="nukta"/>
  <anchor x="456.67373737373737" y="544.5454545454545" name="top"/>
  <anchor x="456.8606060606061" y="544.5454545454545" name="vedic"/>
  <outline>
    <contour>
      <point x="260.7050505050505" y="-281.8181818181818" type="curve" smooth="yes"/>
      <point x="365.1616161616161" y="-281.8181818181818"/>
      <point x="428.01515151515156" y="-227.92525252525252"/>
      <point x="455.4787878787879" y="-160.52121212121213" type="curve"/>
      <point x="480.289898989899" y="-227.65252525252527"/>
      <point x="537.730303030303" y="-281.8181818181818"/>
      <point x="626.6939393939394" y="-281.8181818181818" type="curve" smooth="yes"/>
      <point x="730.3767676767677" y="-281.8181818181818"/>
      <point x="814.5929292929293" y="-219.22323232323234"/>
      <point x="814.5929292929293" y="-93.61919191919193" type="curve" smooth="yes"/>
      <point x="814.5929292929293" y="-28.043434343434342"/>
      <point x="789.4111111111112" y="24.53131313131313"/>
      <point x="745.878787878788" y="79.55252525252526" type="curve"/>
      <point x="720.0151515151515" y="59.704040404040406" type="line"/>
      <point x="754.8626262626262" y="16.889898989898988"/>
      <point x="780.5616161616161" y="-37.38989898989899"/>
      <point x="780.5616161616161" y="-92.21212121212122" type="curve" smooth="yes"/>
      <point x="780.5616161616161" y="-193.41919191919192"/>
      <point x="715.0242424242425" y="-249.96969696969697"/>
      <point x="628.1919191919193" y="-249.96969696969697" type="curve" smooth="yes"/>
      <point x="530.7737373737374" y="-249.96969696969697"/>
      <point x="478.03636363636366" y="-177.95959595959596"/>
      <point x="478.03636363636366" y="-75.31313131313131" type="curve" smooth="yes"/>
      <point x="478.03636363636366" y="-15.0" type="line"/>
      <point x="437.7666666666667" y="-15.0" type="line"/>
      <point x="437.7666666666667" y="-91.67676767676767" type="line" smooth="yes"/>
      <point x="437.7666666666667" y="-171.03434343434344"/>
      <point x="373.16767676767677" y="-251.24242424242425"/>
      <point x="265.1727272727273" y="-251.24242424242425" type="curve" smooth="yes"/>
      <point x="171.05151515151516" y="-251.24242424242425"/>
      <point x="111.73535353535354" y="-200.02020202020202"/>
      <point x="111.73535353535354" y="-104.18383838383839" type="curve" smooth="yes"/>
      <point x="111.73535353535354" y="23.832323232323233"/>
      <point x="205.3838383838384" y="64.15555555555555"/>
      <point x="459.70101010101007" y="87.18585858585858" type="curve" smooth="yes"/>
      <point x="669.1828282828284" y="106.14242424242424"/>
      <point x="813.5545454545455" y="161.0040404040404"/>
      <point x="813.5545454545455" y="349.45454545454544" type="curve" smooth="yes"/>
      <point x="813.5545454545455" y="479.97171717171716"/>
      <point x="739.0080808080809" y="552.6969696969697"/>
      <point x="631.6040404040403" y="552.6969696969697" type="curve" smooth="yes"/>
      <point x="536.8181818181819" y="552.6969696969697"/>
      <point x="483.51010101010104" y="498.9262626262626"/>
      <point x="457.96262626262626" y="431.03737373737374" type="curve"/>
      <point x="429.0686868686868" y="500.1363636363636"/>
      <point x="370.76666666666665" y="552.6969696969697"/>
      <point x="271.25252525252523" y="552.6969696969697" type="curve" smooth="yes"/>
      <point x="139.0121212121212" y="552.6969696969697"/>
      <point x="61.23030303030303" y="461.8181818181818"/>
      <point x="61.23030303030303" y="350.57575757575756" type="curve" smooth="yes"/>
      <point x="61.23030303030303" y="238.78787878787878"/>
      <point x="113.25757575757575" y="162.3030303030303"/>
      <point x="201.8818181818182" y="162.3030303030303" type="curve" smooth="yes"/>
      <point x="268.19090909090914" y="162.3030303030303"/>
      <point x="320.6181818181819" y="206.2080808080808"/>
      <point x="320.6181818181819" y="283.8787878787879" type="curve" smooth="yes"/>
      <point x="320.6181818181819" y="354.5656565656566"/>
      <point x="277.210101010101" y="400.969696969697"/>
      <point x="215.8969696969697" y="400.969696969697" type="curve" smooth="yes"/>
      <point x="148.96161616161618" y="400.969696969697"/>
      <point x="102.4939393939394" y="344.830303030303"/>
      <point x="88.889898989899" y="265.5717171717172" type="curve"/>
      <point x="106.81111111111112" y="241.25454545454545" type="line"/>
      <point x="122.4090909090909" y="319.84646464646465"/>
      <point x="155.20909090909092" y="369.02222222222224"/>
      <point x="207.7171717171717" y="369.02222222222224" type="curve" smooth="yes"/>
      <point x="252.6939393939394" y="369.02222222222224"/>
      <point x="280.67474747474745" y="334.74343434343433"/>
      <point x="280.67474747474745" y="282.1515151515151" type="curve" smooth="yes"/>
      <point x="280.67474747474745" y="226.75656565656567"/>
      <point x="246.2919191919192" y="194.24242424242425"/>
      <point x="197.16666666666666" y="194.24242424242425" type="curve" smooth="yes"/>
      <point x="135.35757575757577" y="194.24242424242425"/>
      <point x="95.12828282828282" y="246.93939393939394"/>
      <point x="95.12828282828282" y="346.3636363636364" type="curve" smooth="yes"/>
      <point x="95.12828282828282" y="443.27272727272725"/>
      <point x="159.67070707070707" y="521.5454545454545"/>
      <point x="264.00404040404044" y="521.5454545454545" type="curve" smooth="yes"/>
      <point x="370.8949494949495" y="521.5454545454545"/>
      <point x="437.7666666666667" y="452.76060606060605"/>
      <point x="437.7666666666667" y="346.16262626262625" type="curve" smooth="yes"/>
      <point x="437.7666666666667" y="209.4848484848485" type="line"/>
      <point x="478.03636363636366" y="209.4848484848485" type="line"/>
      <point x="478.03636363636366" y="365.3606060606061" type="line" smooth="yes"/>
      <point x="478.03636363636366" y="440.5353535353535"/>
      <point x="529.7121212121212" y="522.3333333333334"/>
      <point x="626.1161616161615" y="522.3333333333334" type="curve" smooth="yes"/>
      <point x="720.509090909091" y="522.3333333333334"/>
      <point x="769.5010101010101" y="452.56363636363636"/>
      <point x="769.5010101010101" y="353.93939393939394" type="curve" smooth="yes"/>
      <point x="769.5010101010101" y="192.87878787878788"/>
      <point x="670.4070707070707" y="133.20808080808084"/>
      <point x="429.79090909090905" y="112.32929292929293" type="curve" smooth="yes"/>
      <point x="171.8141414141414" y="90.00909090909092"/>
      <point x="68.18080808080808" y="40.07070707070707"/>
      <point x="68.18080808080808" y="-99.27474747474749" type="curve" smooth="yes"/>
      <point x="68.18080808080808" y="-217.4888888888889"/>
      <point x="145.91313131313132" y="-281.8181818181818"/>
    </contour>
  </outline>
</glyph>
<glyph name="o-tamil" format="2">
  <advance width="888.7161616161616"/>
  <unicode hex="0B92"/>
  <note>
uni0B92
</note>
  <anchor x="448.3767676767677" y="0.0" name="bottom"/>
  <anchor x="446.3767676767677" y="-335.0" name="nukta"/>
  <anchor x="441.3767676767677" y="544.5454545454545" name="top"/>
  <anchor x="441.3767676767677" y="544.5454545454545" name="vedic"/>
  <outline>
    <contour>
      <point x="331.8565656565657" y="-294.81616161616165" type="curve" smooth="yes"/>
      <point x="490.43838383838386" y="-294.81616161616165"/>
      <point x="519.0101010101009" y="-128.04747474747475"/>
      <point x="683.4212121212122" y="-128.04747474747475" type="curve" smooth="yes"/>
      <point x="703.8676767676768" y="-128.04747474747475" type="line"/>
      <point x="703.8676767676768" y="-97.81818181818181" type="line"/>
      <point x="675.210101010101" y="-97.81818181818181" type="line" smooth="yes"/>
      <point x="528.380808080808" y="-97.81818181818181"/>
      <point x="417.56161616161614" y="45.9939393939394"/>
      <point x="549.8353535353535" y="222.93838383838386" type="curve"/>
      <point x="555.1232323232323" y="219.5939393939394" type="line"/>
      <point x="516.440404040404" y="125.56060606060606"/>
      <point x="540.3343434343435" y="-5.0"/>
      <point x="666.7464646464647" y="-5.0" type="curve" smooth="yes"/>
      <point x="758.6474747474747" y="-5.0"/>
      <point x="828.3909090909091" y="67.1131313131313"/>
      <point x="828.3909090909091" y="202.5313131313131" type="curve" smooth="yes"/>
      <point x="828.3909090909091" y="422.94444444444446"/>
      <point x="644.3646464646465" y="552.6969696969697"/>
      <point x="426.5070707070707" y="552.6969696969697" type="curve" smooth="yes"/>
      <point x="212.4868686868687" y="552.6969696969697"/>
      <point x="60.45959595959596" y="414.1777777777778"/>
      <point x="60.45959595959596" y="229.95353535353533" type="curve" smooth="yes"/>
      <point x="60.45959595959596" y="88.4070707070707"/>
      <point x="134.71616161616163" y="-4.212121212121212"/>
      <point x="237.88585858585856" y="-4.212121212121212" type="curve" smooth="yes"/>
      <point x="325.0818181818182" y="-4.212121212121212"/>
      <point x="383.8131313131313" y="53.673737373737374"/>
      <point x="383.8131313131313" y="148.0020202020202" type="curve" smooth="yes"/>
      <point x="383.8131313131313" y="235.64141414141412"/>
      <point x="326.9080808080808" y="287.37676767676766"/>
      <point x="253.68686868686868" y="287.37676767676766" type="curve" smooth="yes"/>
      <point x="164.05353535353535" y="287.37676767676766"/>
      <point x="110.61818181818181" y="215.67474747474748"/>
      <point x="93.5020202020202" y="139.5010101010101" type="curve"/>
      <point x="108.2979797979798" y="112.13232323232323" type="line"/>
      <point x="128.77575757575758" y="190.08383838383838"/>
      <point x="172.40707070707072" y="253.33333333333334"/>
      <point x="242.83333333333334" y="253.33333333333334" type="curve" smooth="yes"/>
      <point x="304.86464646464646" y="253.33333333333334"/>
      <point x="342.93636363636364" y="210.82929292929293"/>
      <point x="342.93636363636364" y="143.84646464646465" type="curve" smooth="yes"/>
      <point x="342.93636363636364" y="69.28383838383839"/>
      <point x="297.14040404040406" y="26.93939393939394"/>
      <point x="233.14848484848486" y="26.93939393939394" type="curve" smooth="yes"/>
      <point x="153.989898989899" y="26.93939393939394"/>
      <point x="94.14545454545454" y="101.34343434343434"/>
      <point x="94.14545454545454" y="228.320202020202" type="curve" smooth="yes"/>
      <point x="94.14545454545454" y="398.69696969696975"/>
      <point x="237.61111111111111" y="522.3333333333334"/>
      <point x="424.7020202020202" y="522.3333333333334" type="curve" smooth="yes"/>
      <point x="618.4676767676767" y="522.3333333333334"/>
      <point x="785.1474747474748" y="404.0323232323232"/>
      <point x="785.1474747474748" y="208.30303030303028" type="curve" smooth="yes"/>
      <point x="785.1474747474748" y="89.49292929292929"/>
      <point x="735.410101010101" y="26.93939393939394"/>
      <point x="660.6595959595959" y="26.93939393939394" type="curve" smooth="yes"/>
      <point x="563.7313131313132" y="26.93939393939394"/>
      <point x="542.3414141414141" y="150.37676767676768"/>
      <point x="598.0131313131313" y="252.97070707070708" type="curve"/>
      <point x="557.2010101010102" y="278.36767676767676" type="line"/>
      <point x="381.57878787878786" y="74.42929292929294"/>
      <point x="476.0252525252526" y="-77.03939393939393"/>
      <point x="600.7878787878788" y="-112.43838383838383" type="curve"/>
      <point x="600.7878787878788" y="-116.65050505050505" type="line"/>
      <point x="473.1222222222222" y="-136.45858585858585"/>
      <point x="450.4020202020202" y="-259.12222222222226"/>
      <point x="324.73232323232327" y="-259.12222222222226" type="curve" smooth="yes"/>
      <point x="261.379797979798" y="-259.12222222222226"/>
      <point x="228.33333333333331" y="-218.47474747474746"/>
      <point x="228.33333333333331" y="-171.19595959595964" type="curve" smooth="yes"/>
      <point x="228.33333333333331" y="-130.7707070707071"/>
      <point x="242.2686868686869" y="-106.54949494949494"/>
      <point x="280.7292929292929" y="-77.7060606060606" type="curve"/>
      <point x="259.98282828282834" y="-53.508080808080805" type="line"/>
      <point x="212.71717171717174" y="-89.25757575757576"/>
      <point x="195.01212121212123" y="-120.36464646464646"/>
      <point x="195.01212121212123" y="-170.19595959595964" type="curve" smooth="yes"/>
      <point x="195.01212121212123" y="-239.23838383838384"/>
      <point x="244.530303030303" y="-294.81616161616165"/>
    </contour>
  </outline>
</glyph>
<glyph name="oo-tamil" format="2">
  <advance width="888.7161616161616"/>
  <unicode hex="0B93"/>
  <note>
uni0B93
</note>
  <anchor x="438.76262626262627" y="0.0" name="bottom"/>
  <anchor x="436.76262626262627" y="-276.67474747474745" name="nukta"/>
  <anchor x="431.76262626262627" y="544.5454545454545" name="top"/>
  <anchor x="431.76262626262627" y="544.5454545454545" name="vedic"/>
  <outline>
    <contour>
      <point x="315.91111111111115" y="-299.51010101010104" type="curve" smooth="yes"/>
      <point x="476.5979797979798" y="-299.51010101010104"/>
      <point x="510.719191919192" y="-128.04747474747475"/>
      <point x="673.7484848484847" y="-128.04747474747475" type="curve" smooth="yes"/>
      <point x="692.1868686868687" y="-128.04747474747475" type="line"/>
      <point x="692.1868686868687" y="-97.81818181818181" type="line"/>
      <point x="666.5161616161616" y="-97.81818181818181" type="line" smooth="yes"/>
      <point x="524.6767676767677" y="-97.81818181818181"/>
      <point x="419.90101010101006" y="45.9939393939394"/>
      <point x="549.8353535353535" y="222.93838383838386" type="curve"/>
      <point x="555.1232323232323" y="219.5939393939394" type="line"/>
      <point x="516.440404040404" y="125.56060606060606"/>
      <point x="540.3343434343435" y="-5.0"/>
      <point x="666.7464646464647" y="-5.0" type="curve" smooth="yes"/>
      <point x="758.6474747474747" y="-5.0"/>
      <point x="828.3909090909091" y="67.1131313131313"/>
      <point x="828.3909090909091" y="202.5313131313131" type="curve" smooth="yes"/>
      <point x="828.3909090909091" y="422.94444444444446"/>
      <point x="644.3646464646465" y="552.6969696969697"/>
      <point x="426.5070707070707" y="552.6969696969697" type="curve" smooth="yes"/>
      <point x="212.4868686868687" y="552.6969696969697"/>
      <point x="60.45959595959596" y="414.1777777777778"/>
      <point x="60.45959595959596" y="229.95353535353533" type="curve" smooth="yes"/>
      <point x="60.45959595959596" y="88.4070707070707"/>
      <point x="134.71616161616163" y="-4.212121212121212"/>
      <point x="237.88585858585856" y="-4.212121212121212" type="curve" smooth="yes"/>
      <point x="325.0818181818182" y="-4.212121212121212"/>
      <point x="383.8131313131313" y="53.673737373737374"/>
      <point x="383.8131313131313" y="148.0020202020202" type="curve" smooth="yes"/>
      <point x="383.8131313131313" y="235.64141414141412"/>
      <point x="326.9080808080808" y="287.37676767676766"/>
      <point x="253.68686868686868" y="287.37676767676766" type="curve" smooth="yes"/>
      <point x="164.05353535353535" y="287.37676767676766"/>
      <point x="110.61818181818181" y="215.67474747474748"/>
      <point x="93.5020202020202" y="139.5010101010101" type="curve"/>
      <point x="108.2979797979798" y="112.13232323232323" type="line"/>
      <point x="128.77575757575758" y="190.08383838383838"/>
      <point x="172.40707070707072" y="253.33333333333334"/>
      <point x="242.83333333333334" y="253.33333333333334" type="curve" smooth="yes"/>
      <point x="304.86464646464646" y="253.33333333333334"/>
      <point x="342.93636363636364" y="210.82929292929293"/>
      <point x="342.93636363636364" y="143.84646464646465" type="curve" smooth="yes"/>
      <point x="342.93636363636364" y="69.28383838383839"/>
      <point x="297.14040404040406" y="26.93939393939394"/>
      <point x="233.14848484848486" y="26.93939393939394" type="curve" smooth="yes"/>
      <point x="153.989898989899" y="26.93939393939394"/>
      <point x="94.14545454545454" y="101.34343434343434"/>
      <point x="94.14545454545454" y="228.320202020202" type="curve" smooth="yes"/>
      <point x="94.14545454545454" y="398.69696969696975"/>
      <point x="237.61111111111111" y="522.3333333333334"/>
      <point x="424.7020202020202" y="522.3333333333334" type="curve" smooth="yes"/>
      <point x="618.4676767676767" y="522.3333333333334"/>
      <point x="785.1474747474748" y="404.0323232323232"/>
      <point x="785.1474747474748" y="208.30303030303028" type="curve" smooth="yes"/>
      <point x="785.1474747474748" y="89.49292929292929"/>
      <point x="735.410101010101" y="26.93939393939394"/>
      <point x="660.6595959595959" y="26.93939393939394" type="curve" smooth="yes"/>
      <point x="563.7313131313132" y="26.93939393939394"/>
      <point x="542.3414141414141" y="150.37676767676768"/>
      <point x="598.0131313131313" y="252.97070707070708" type="curve"/>
      <point x="557.2010101010102" y="278.36767676767676" type="line"/>
      <point x="384.91616161616156" y="75.92626262626263"/>
      <point x="472.18686868686865" y="-75.54242424242425"/>
      <point x="592.1696969696969" y="-112.43838383838383" type="curve"/>
      <point x="592.1696969696969" y="-116.65050505050505" type="line"/>
      <point x="464.4282828282828" y="-137.13030303030303"/>
      <point x="435.35252525252525" y="-264.6262626262626"/>
      <point x="307.99595959595956" y="-264.6262626262626" type="curve" smooth="yes"/>
      <point x="249.38989898989897" y="-264.6262626262626"/>
      <point x="212.44040404040405" y="-228.1040404040404"/>
      <point x="212.44040404040405" y="-181.6787878787879" type="curve" smooth="yes"/>
      <point x="212.44040404040405" y="-133.49191919191918"/>
      <point x="246.25151515151515" y="-104.71515151515152"/>
      <point x="287.7252525252525" y="-104.71515151515152" type="curve" smooth="yes"/>
      <point x="319.9494949494949" y="-104.71515151515152"/>
      <point x="345.3242424242424" y="-123.0030303030303"/>
      <point x="355.0929292929293" y="-147.25959595959597" type="curve"/>
      <point x="370.27373737373733" y="-138.70000000000002"/>
      <point x="380.8757575757576" y="-125.05858585858586"/>
      <point x="380.8757575757576" y="-106.57373737373736" type="curve" smooth="yes"/>
      <point x="380.8757575757576" y="-76.87575757575759"/>
      <point x="346.1454545454545" y="-57.871717171717165"/>
      <point x="306.5141414141414" y="-57.871717171717165" type="curve" smooth="yes"/>
      <point x="232.21313131313133" y="-57.871717171717165"/>
      <point x="180.31919191919192" y="-111.87575757575758"/>
      <point x="180.31919191919192" y="-180.04242424242423" type="curve" smooth="yes"/>
      <point x="180.31919191919192" y="-249.52323232323232"/>
      <point x="236.58383838383835" y="-299.51010101010104"/>
    </contour>
  </outline>
</glyph>
<glyph name="au-tamil" format="2">
  <advance width="1984.7777777777778"/>
  <unicode hex="0B94"/>
  <note>
uni0B94
</note>
  <anchor x="1005.9989898989899" y="0.0" name="bottom"/>
  <anchor x="1067.7929292929293" y="0.0" name="nukta"/>
  <anchor x="998.9989898989899" y="544.5454545454545" name="top"/>
  <anchor x="998.9989898989899" y="544.5454545454545" name="vedic"/>
  <outline>
    <contour>
      <point x="1120.70101010101" y="-4.0777777777777775" type="curve" smooth="yes"/>
      <point x="1206.6080808080808" y="-4.0777777777777775"/>
      <point x="1265.6303030303031" y="52.80707070707071"/>
      <point x="1265.6303030303031" y="148.57979797979797" type="curve" smooth="yes"/>
      <point x="1265.6303030303031" y="235.930303030303"/>
      <point x="1208.0131313131312" y="287.37676767676766"/>
      <point x="1135.869696969697" y="287.37676767676766" type="curve" smooth="yes"/>
      <point x="1049.1010101010102" y="287.37676767676766"/>
      <point x="995.5080808080806" y="218.19595959595958"/>
      <point x="978.0252525252525" y="139.5010101010101" type="curve"/>
      <point x="993.3202020202019" y="111.63333333333334" type="line"/>
      <point x="1013.6656565656564" y="189.5848484848485"/>
      <point x="1054.0141414141415" y="253.33333333333334"/>
      <point x="1124.228282828283" y="253.33333333333334" type="curve" smooth="yes"/>
      <point x="1186.3151515151517" y="253.33333333333334"/>
      <point x="1224.6757575757579" y="211.40707070707072"/>
      <point x="1224.6757575757579" y="144.42424242424244" type="curve" smooth="yes"/>
      <point x="1224.6757575757579" y="69.86161616161617"/>
      <point x="1179.5353535353534" y="26.93939393939394"/>
      <point x="1114.9656565656567" y="26.93939393939394" type="curve" smooth="yes"/>
      <point x="1033.3858585858584" y="26.93939393939394"/>
      <point x="979.7444444444444" y="105.83333333333333"/>
      <point x="979.7444444444444" y="230.24747474747477" type="curve" smooth="yes"/>
      <point x="979.7444444444444" y="402.4727272727273"/>
      <point x="1071.4858585858585" y="522.3333333333334"/>
      <point x="1226.4656565656564" y="522.3333333333334" type="curve" smooth="yes"/>
      <point x="1352.0111111111112" y="522.3333333333334"/>
      <point x="1457.0959595959596" y="453.1808080808081"/>
      <point x="1457.0959595959596" y="277.31616161616165" type="curve"/>
      <point x="1486.8060606060606" y="279.03030303030306" type="line"/>
      <point x="1484.9121212121213" y="475.4858585858586"/>
      <point x="1371.9222222222222" y="552.6969696969697"/>
      <point x="1225.7878787878788" y="552.6969696969697" type="curve" smooth="yes"/>
      <point x="1050.5383838383839" y="552.6969696969697"/>
      <point x="945.9242424242424" y="418.9131313131313"/>
      <point x="945.9242424242424" y="232.03535353535355" type="curve" smooth="yes"/>
      <point x="945.9242424242424" y="89.67070707070707"/>
      <point x="1014.7676767676767" y="-4.0777777777777775"/>
    </contour>
    <contour>
      <point x="1457.1737373737374" y="0.0" type="line"/>
      <point x="1498.7848484848485" y="0.0" type="line"/>
      <point x="1498.7848484848485" y="514.969696969697" type="line"/>
      <point x="1739.4171717171716" y="514.969696969697" type="line"/>
      <point x="1739.4171717171716" y="0.0" type="line"/>
      <point x="1781.3737373737374" y="0.0" type="line"/>
      <point x="1781.3737373737374" y="514.969696969697" type="line"/>
      <point x="1959.7414141414142" y="514.969696969697" type="line"/>
      <point x="1959.7414141414142" y="544.5454545454545" type="line"/>
      <point x="1459.0333333333333" y="544.5454545454545" type="line"/>
      <point x="1459.0333333333333" y="383.8484848484849" type="line"/>
      <point x="1457.1737373737374" y="362.3030303030303" type="line"/>
    </contour>
    <component base="o-tamil"/>
  </outline>
</glyph>
<glyph name="nga-tamil" format="2">
  <advance width="925.3757575757576"/>
  <unicode hex="0B99"/>
  <note>
uni0B99
</note>
  <anchor x="466.40505050505055" y="0.0" name="bottom"/>
  <anchor x="521.9535353535354" y="544.5454545454545" name="imatra"/>
  <anchor x="466.40505050505055" y="0.0" name="nukta"/>
  <anchor x="467.6141414141414" y="544.5454545454545" name="top"/>
  <anchor x="464.33030303030307" y="544.5454545454545" name="vedic"/>
  <outline>
    <contour>
      <point x="109.81515151515151" y="0.0" type="line"/>
      <point x="143.0838383838384" y="0.0" type="line"/>
      <point x="143.0838383838384" y="514.969696969697" type="line"/>
      <point x="336.12727272727267" y="514.969696969697" type="line"/>
      <point x="336.12727272727267" y="189.6969696969697" type="line"/>
      <point x="378.42727272727274" y="189.6969696969697" type="line"/>
      <point x="378.42727272727274" y="211.16464646464647" type="line" smooth="yes"/>
      <point x="378.42727272727274" y="262.389898989899"/>
      <point x="408.04949494949494" y="328.3727272727273"/>
      <point x="484.75858585858583" y="328.3727272727273" type="curve" smooth="yes"/>
      <point x="545.0313131313131" y="328.3727272727273"/>
      <point x="582.6808080808081" y="285.1505050505051"/>
      <point x="582.6808080808081" y="208.42424242424244" type="curve" smooth="yes"/>
      <point x="582.6808080808081" y="76.69090909090909"/>
      <point x="463.7252525252526" y="29.575757575757578"/>
      <point x="405.8484848484849" y="29.575757575757578" type="curve" smooth="yes"/>
      <point x="336.12727272727267" y="29.575757575757578" type="line"/>
      <point x="336.12727272727267" y="0.0" type="line"/>
      <point x="815.9060606060606" y="0.0" type="line"/>
      <point x="815.9060606060606" y="544.5454545454545" type="line"/>
      <point x="773.5060606060606" y="544.5454545454545" type="line"/>
      <point x="773.5060606060606" y="29.575757575757578" type="line"/>
      <point x="496.0878787878788" y="29.575757575757578" type="line"/>
      <point x="567.8404040404041" y="56.91717171717172"/>
      <point x="625.5" y="113.58585858585857"/>
      <point x="625.5" y="216.54545454545456" type="curve" smooth="yes"/>
      <point x="625.5" y="307.06464646464644"/>
      <point x="570.8929292929292" y="360.0909090909091"/>
      <point x="495.2191919191919" y="360.0909090909091" type="curve" smooth="yes"/>
      <point x="428.12020202020204" y="360.0909090909091"/>
      <point x="393.36262626262624" y="323.7555555555556"/>
      <point x="378.58282828282825" y="291.26363636363635" type="curve"/>
      <point x="378.58282828282825" y="514.969696969697" type="line"/>
      <point x="556.239393939394" y="514.969696969697" type="line"/>
      <point x="556.239393939394" y="544.5454545454545" type="line"/>
      <point x="109.81515151515151" y="544.5454545454545" type="line"/>
    </contour>
  </outline>
</glyph>
<glyph name="tta-tamil" format="2">
  <advance width="794.6333333333333"/>
  <unicode hex="0B9F"/>
  <note>
uni0B9F
</note>
  <anchor x="444.4777777777778" y="0.0" name="bottom"/>
  <anchor x="444.4777777777778" y="0.0" name="nukta"/>
  <anchor x="459.6969696969697" y="544.5454545454545" name="top"/>
  <anchor x="442.1272727272727" y="544.5454545454545" name="vedic"/>
  <outline>
    <contour>
      <point x="109.81515151515151" y="0.0" type="line"/>
      <point x="775.0171717171717" y="0.0" type="line"/>
      <point x="775.0171717171717" y="29.575757575757578" type="line"/>
      <point x="152.29191919191916" y="29.575757575757578" type="line"/>
      <point x="152.29191919191916" y="544.5454545454545" type="line"/>
      <point x="109.81515151515151" y="544.5454545454545" type="line"/>
    </contour>
  </outline>
</glyph>
<glyph name="ta-tamil" format="2">
  <advance width="726.8353535353535"/>
  <unicode hex="0BA4"/>
  <note>
uni0BA4
</note>
  <anchor x="361.7919191919192" y="0.0" name="bottom"/>
  <anchor x="522.7444444444445" y="544.5454545454545" name="imatra"/>
  <anchor x="363.0363636363636" y="-130.02020202020202" name="nukta"/>
  <anchor x="383.5535353535354" y="544.5454545454545" name="top"/>
  <anchor x="368.0969696969697" y="544.5454545454545" name="vedic"/>
  <outline>
    <contour>
      <point x="136.86060606060607" y="-205.8131313131313" type="curve"/>
      <point x="136.86060606060607" y="-162.8909090909091"/>
      <point x="155.52626262626262" y="-126.04343434343434"/>
      <point x="213.14545454545453" y="-126.04343434343434" type="curve" smooth="yes"/>
      <point x="391.1080808080808" y="-126.04343434343434" type="line" smooth="yes"/>
      <point x="564.1262626262627" y="-126.04343434343434"/>
      <point x="667.0313131313131" y="-53.65959595959596"/>
      <point x="667.0313131313131" y="95.26161616161616" type="curve" smooth="yes"/>
      <point x="667.0313131313131" y="228.18585858585857"/>
      <point x="586.5646464646464" y="302.8181818181818"/>
      <point x="456.6474747474748" y="302.8181818181818" type="curve" smooth="yes"/>
      <point x="419.10303030303027" y="302.8181818181818" type="line"/>
      <point x="419.10303030303027" y="514.969696969697" type="line"/>
      <point x="586.8838383838385" y="514.969696969697" type="line"/>
      <point x="586.8838383838385" y="544.5454545454545" type="line"/>
      <point x="174.11717171717174" y="544.5454545454545" type="line"/>
      <point x="174.11717171717174" y="284.42424242424244" type="line"/>
      <point x="207.07474747474745" y="284.42424242424244" type="line"/>
      <point x="207.07474747474745" y="514.969696969697" type="line"/>
      <point x="377.279797979798" y="514.969696969697" type="line"/>
      <point x="377.279797979798" y="302.8181818181818" type="line"/>
      <point x="227.03737373737374" y="302.8181818181818" type="line" smooth="yes"/>
      <point x="124.16363636363637" y="302.8181818181818"/>
      <point x="64.59191919191919" y="232.9151515151515"/>
      <point x="64.59191919191919" y="148.81616161616162" type="curve" smooth="yes"/>
      <point x="64.59191919191919" y="61.096969696969694"/>
      <point x="128.72222222222223" y="-4.0"/>
      <point x="232.97373737373738" y="-4.0" type="curve" smooth="yes"/>
      <point x="344.84040404040405" y="-4.0"/>
      <point x="419.10303030303027" y="68.27373737373738"/>
      <point x="419.10303030303027" y="187.91919191919192" type="curve" smooth="yes"/>
      <point x="419.10303030303027" y="272.45454545454544" type="line"/>
      <point x="457.3575757575758" y="272.45454545454544" type="line" smooth="yes"/>
      <point x="563.5555555555555" y="272.45454545454544"/>
      <point x="624.8767676767677" y="203.27979797979796"/>
      <point x="624.8767676767677" y="96.68585858585858" type="curve" smooth="yes"/>
      <point x="624.8767676767677" y="-34.07575757575758"/>
      <point x="531.2848484848486" y="-96.81717171717172"/>
      <point x="382.11818181818177" y="-96.81717171717172" type="curve" smooth="yes"/>
      <point x="180.24646464646463" y="-96.81717171717172" type="line" smooth="yes"/>
      <point x="124.89898989898991" y="-96.81717171717172"/>
      <point x="85.40505050505051" y="-118.67777777777778"/>
      <point x="85.40505050505051" y="-159.44949494949495" type="curve" smooth="yes"/>
      <point x="85.40505050505051" y="-187.96464646464645"/>
      <point x="103.85353535353536" y="-205.8131313131313"/>
    </contour>
    <contour>
      <point x="229.7020202020202" y="26.93939393939394" type="curve" smooth="yes"/>
      <point x="149.73434343434343" y="26.93939393939394"/>
      <point x="102.56565656565657" y="76.35353535353535"/>
      <point x="102.56565656565657" y="149.96767676767678" type="curve" smooth="yes"/>
      <point x="102.56565656565657" y="214.1757575757576"/>
      <point x="142.710101010101" y="272.45454545454544"/>
      <point x="231.3090909090909" y="272.45454545454544" type="curve" smooth="yes"/>
      <point x="377.279797979798" y="272.45454545454544" type="line"/>
      <point x="377.279797979798" y="182.93333333333334" type="line" smooth="yes"/>
      <point x="377.279797979798" y="85.1979797979798"/>
      <point x="314.9040404040404" y="26.93939393939394"/>
    </contour>
  </outline>
</glyph>
<glyph name="na-tamil" format="2">
  <advance width="711.1666666666667"/>
  <unicode hex="0BA8"/>
  <note>
uni0BA8
</note>
  <anchor x="359.93939393939394" y="0.0" name="bottom"/>
  <anchor x="515.2646464646465" y="544.5454545454545" name="imatra"/>
  <anchor x="369.5414141414141" y="-167.34343434343435" name="nukta"/>
  <anchor x="377.1929292929293" y="544.5454545454545" name="top"/>
  <anchor x="373.0141414141414" y="544.5454545454545" name="vedic"/>
  <outline>
    <contour>
      <point x="140.589898989899" y="-206.97979797979798" type="curve"/>
      <point x="140.589898989899" y="-163.97979797979798"/>
      <point x="159.25555555555556" y="-127.13232323232323"/>
      <point x="216.74040404040403" y="-127.13232323232323" type="curve" smooth="yes"/>
      <point x="350.1050505050505" y="-127.13232323232323" type="line" smooth="yes"/>
      <point x="530.1414141414141" y="-127.13232323232323"/>
      <point x="659.3808080808082" y="-52.256565656565655"/>
      <point x="659.3808080808082" y="145.73131313131313" type="curve" smooth="yes"/>
      <point x="659.3808080808082" y="267.9878787878788"/>
      <point x="595.7939393939394" y="331.6060606060606"/>
      <point x="514.1030303030302" y="331.6060606060606" type="curve" smooth="yes"/>
      <point x="439.7737373737374" y="331.6060606060606"/>
      <point x="408.61212121212117" y="284.4717171717172"/>
      <point x="395.80707070707075" y="253.15252525252524" type="curve"/>
      <point x="395.80707070707075" y="514.969696969697" type="line"/>
      <point x="573.8151515151515" y="514.969696969697" type="line"/>
      <point x="573.8151515151515" y="544.5454545454545" type="line"/>
      <point x="114.32929292929293" y="544.5454545454545" type="line"/>
      <point x="114.32929292929293" y="0.0" type="line"/>
      <point x="147.28686868686867" y="0.0" type="line"/>
      <point x="147.28686868686867" y="514.969696969697" type="line"/>
      <point x="353.6191919191919" y="514.969696969697" type="line"/>
      <point x="353.6191919191919" y="0.0" type="line"/>
      <point x="395.80707070707075" y="0.0" type="line"/>
      <point x="395.80707070707075" y="172.1868686868687" type="line" smooth="yes"/>
      <point x="395.80707070707075" y="224.25353535353537"/>
      <point x="429.6909090909091" y="299.559595959596"/>
      <point x="503.44848484848484" y="299.559595959596" type="curve" smooth="yes"/>
      <point x="568.1818181818182" y="299.559595959596"/>
      <point x="614.4050505050506" y="251.3959595959596"/>
      <point x="614.4050505050506" y="144.1858585858586" type="curve" smooth="yes"/>
      <point x="614.4050505050506" y="-36.01414141414141"/>
      <point x="505.36767676767676" y="-97.9060606060606"/>
      <point x="342.469696969697" y="-97.9060606060606" type="curve" smooth="yes"/>
      <point x="183.97575757575757" y="-97.9060606060606" type="line" smooth="yes"/>
      <point x="128.70606060606062" y="-97.9060606060606"/>
      <point x="89.13434343434345" y="-119.84444444444443"/>
      <point x="89.13434343434345" y="-160.61616161616163" type="curve" smooth="yes"/>
      <point x="89.13434343434345" y="-188.4949494949495"/>
      <point x="107.66060606060606" y="-206.97979797979798"/>
    </contour>
  </outline>
</glyph>
<glyph name="nnna-tamil" format="2">
  <advance width="1138.3676767676768"/>
  <unicode hex="0BA9"/>
  <note>
uni0BA9
</note>
  <anchor x="586.9676767676767" y="0.0" name="bottom"/>
  <anchor x="1016.9050505050506" y="544.5454545454545" name="imatra"/>
  <anchor x="588.2545454545455" y="0.0" name="nukta"/>
  <anchor x="605.640404040404" y="544.5454545454545" name="top"/>
  <anchor x="593.4414141414142" y="544.5454545454545" name="vedic"/>
  <outline>
    <contour>
      <point x="233.7939393939394" y="-4.0777777777777775" type="curve" smooth="yes"/>
      <point x="320.0676767676768" y="-4.0777777777777775"/>
      <point x="379.95353535353536" y="52.80707070707071"/>
      <point x="379.95353535353536" y="148.57979797979797" type="curve" smooth="yes"/>
      <point x="379.95353535353536" y="235.930303030303"/>
      <point x="322.470707070707" y="287.37676767676766"/>
      <point x="250.3272727272727" y="287.37676767676766" type="curve" smooth="yes"/>
      <point x="163.55858585858584" y="287.37676767676766"/>
      <point x="110.04343434343436" y="217.6969696969697"/>
      <point x="92.63838383838383" y="139.5010101010101" type="curve"/>
      <point x="107.43434343434343" y="112.13232323232323" type="line"/>
      <point x="127.9121212121212" y="190.08383838383838"/>
      <point x="168.47171717171716" y="253.33333333333334"/>
      <point x="238.68585858585857" y="253.33333333333334" type="curve" smooth="yes"/>
      <point x="300.77272727272725" y="253.33333333333334"/>
      <point x="339.1333333333334" y="211.40707070707072"/>
      <point x="339.1333333333334" y="144.42424242424244" type="curve" smooth="yes"/>
      <point x="339.1333333333334" y="69.86161616161617"/>
      <point x="293.9929292929293" y="26.93939393939394"/>
      <point x="229.42323232323236" y="26.93939393939394" type="curve" smooth="yes"/>
      <point x="149.24444444444444" y="26.93939393939394"/>
      <point x="94.14545454545454" y="104.02929292929292"/>
      <point x="94.14545454545454" y="229.32626262626263" type="curve" smooth="yes"/>
      <point x="94.14545454545454" y="413.73838383838387"/>
      <point x="213.08080808080805" y="522.3333333333334"/>
      <point x="375.3737373737374" y="522.3333333333334" type="curve" smooth="yes"/>
      <point x="570.1414141414141" y="522.3333333333334"/>
      <point x="716.420202020202" y="386.37777777777774"/>
      <point x="716.420202020202" y="184.0070707070707" type="curve" smooth="yes"/>
      <point x="716.420202020202" y="81.24242424242425"/>
      <point x="670.0232323232324" y="26.93939393939394"/>
      <point x="603.7929292929293" y="26.93939393939394" type="curve" smooth="yes"/>
      <point x="537.6989898989899" y="26.93939393939394"/>
      <point x="501.4111111111111" y="87.21717171717172"/>
      <point x="501.4111111111111" y="182.50606060606063" type="curve" smooth="yes"/>
      <point x="501.4111111111111" y="367.5474747474747"/>
      <point x="632.9090909090909" y="514.969696969697"/>
      <point x="828.9606060606061" y="514.969696969697" type="curve" smooth="yes"/>
      <point x="1113.3313131313132" y="514.969696969697" type="line"/>
      <point x="1113.3313131313132" y="544.5454545454545" type="line"/>
      <point x="837.7171717171717" y="544.5454545454545" type="line" smooth="yes"/>
      <point x="614.4727272727273" y="544.5454545454545"/>
      <point x="469.780808080808" y="380.62020202020204"/>
      <point x="469.780808080808" y="185.71818181818185" type="curve" smooth="yes"/>
      <point x="469.780808080808" y="64.51616161616161"/>
      <point x="518.8797979797979" y="-5.0"/>
      <point x="608.6424242424242" y="-5.0" type="curve" smooth="yes"/>
      <point x="697.769696969697" y="-5.0"/>
      <point x="758.6464646464647" y="66.53737373737374"/>
      <point x="758.6464646464647" y="184.66060606060609" type="curve" smooth="yes"/>
      <point x="758.6464646464647" y="405.2040404040404"/>
      <point x="587.5696969696969" y="552.6969696969697"/>
      <point x="381.0838383838384" y="552.6969696969697" type="curve" smooth="yes"/>
      <point x="193.1131313131313" y="552.6969696969697"/>
      <point x="60.45959595959596" y="429.81010101010105"/>
      <point x="60.45959595959596" y="231.38282828282829" type="curve" smooth="yes"/>
      <point x="60.45959595959596" y="90.86060606060606"/>
      <point x="131.25959595959594" y="-4.0777777777777775"/>
    </contour>
    <contour>
      <point x="920.610101010101" y="0.0" type="line"/>
      <point x="962.6444444444445" y="0.0" type="line"/>
      <point x="962.6444444444445" y="528.2121212121212" type="line"/>
      <point x="920.610101010101" y="528.2121212121212" type="line"/>
    </contour>
  </outline>
</glyph>
<glyph name="pa-tamil" format="2">
  <advance width="804.6989898989899"/>
  <unicode hex="0BAA"/>
  <note>
uni0BAA
</note>
  <anchor x="404.93333333333334" y="0.0" name="bottom"/>
  <anchor x="686.4848484848485" y="544.5454545454545" name="imatra"/>
  <anchor x="404.93333333333334" y="0.0" name="nukta"/>
  <anchor x="406.4323232323233" y="544.5454545454545" name="top"/>
  <anchor x="402.43838383838386" y="544.5454545454545" name="vedic"/>
  <outline>
    <contour>
      <point x="109.81515151515151" y="0.0" type="line"/>
      <point x="695.2292929292929" y="0.0" type="line"/>
      <point x="695.2292929292929" y="544.5454545454545" type="line"/>
      <point x="652.6959595959596" y="544.5454545454545" type="line"/>
      <point x="652.6959595959596" y="29.575757575757578" type="line"/>
      <point x="152.29191919191916" y="29.575757575757578" type="line"/>
      <point x="152.29191919191916" y="544.5454545454545" type="line"/>
      <point x="109.81515151515151" y="544.5454545454545" type="line"/>
    </contour>
  </outline>
</glyph>
<glyph name="ma-tamil" format="2">
  <advance width="817.769696969697"/>
  <unicode hex="0BAE"/>
  <note>
uni0BAE
</note>
  <anchor x="414.0808080808081" y="0.0" name="bottom"/>
  <anchor x="733.8252525252525" y="544.5454545454545" name="imatra"/>
  <anchor x="415.0808080808081" y="0.0" name="nukta"/>
  <anchor x="438.08484848484846" y="544.5454545454545" name="top"/>
  <anchor x="432.2444444444444" y="544.5454545454545" name="vedic"/>
  <outline>
    <contour>
      <point x="109.81515151515151" y="0.0" type="line"/>
      <point x="606.0353535353536" y="0.0" type="line" smooth="yes"/>
      <point x="710.5484848484849" y="0.0"/>
      <point x="755.1959595959596" y="77.5020202020202"/>
      <point x="755.1959595959596" y="218.010101010101" type="curve" smooth="yes"/>
      <point x="755.1959595959596" y="416.330303030303"/>
      <point x="683.320202020202" y="552.6969696969697"/>
      <point x="549.3212121212122" y="552.6969696969697" type="curve" smooth="yes"/>
      <point x="452.7919191919192" y="552.6969696969697"/>
      <point x="413.87676767676766" y="484.78686868686873"/>
      <point x="413.87676767676766" y="381.979797979798" type="curve" smooth="yes"/>
      <point x="413.87676767676766" y="29.575757575757578" type="line"/>
      <point x="152.29191919191916" y="29.575757575757578" type="line"/>
      <point x="152.29191919191916" y="544.5454545454545" type="line"/>
      <point x="109.81515151515151" y="544.5454545454545" type="line"/>
    </contour>
    <contour>
      <point x="456.4878787878788" y="29.575757575757578" type="line"/>
      <point x="456.4878787878788" y="382.1919191919192" type="line" smooth="yes"/>
      <point x="456.4878787878788" y="471.79898989898993"/>
      <point x="482.99898989898986" y="520.9838383838384"/>
      <point x="553.6262626262627" y="520.9838383838384" type="curve" smooth="yes"/>
      <point x="657.2555555555556" y="520.9838383838384"/>
      <point x="721.1626262626262" y="396.610101010101"/>
      <point x="721.1626262626262" y="216.010101010101" type="curve" smooth="yes"/>
      <point x="721.1626262626262" y="96.86565656565658"/>
      <point x="685.4626262626263" y="29.575757575757578"/>
      <point x="600.5525252525252" y="29.575757575757578" type="curve" smooth="yes"/>
    </contour>
  </outline>
</glyph>
<glyph name="ya-tamil" format="2">
  <advance width="856.5818181818181"/>
  <unicode hex="0BAF"/>
  <note>
uni0BAF
</note>
  <anchor x="442.20909090909095" y="0.0" name="bottom"/>
  <anchor x="738.789898989899" y="544.5454545454545" name="imatra"/>
  <anchor x="442.44242424242424" y="0.0" name="nukta"/>
  <anchor x="444.0474747474748" y="544.5454545454545" name="top"/>
  <anchor x="428.439393939394" y="544.5454545454545" name="vedic"/>
  <outline>
    <contour>
      <point x="230.56666666666666" y="-5.0" type="curve" smooth="yes"/>
      <point x="287.63535353535354" y="-5.0"/>
      <point x="324.889898989899" y="29.342424242424244"/>
      <point x="342.9757575757576" y="66.23333333333333" type="curve"/>
      <point x="342.9757575757576" y="0.0" type="line"/>
      <point x="747.1121212121212" y="0.0" type="line"/>
      <point x="747.1121212121212" y="544.5454545454545" type="line"/>
      <point x="704.290909090909" y="544.5454545454545" type="line"/>
      <point x="704.290909090909" y="29.575757575757578" type="line"/>
      <point x="382.469696969697" y="29.575757575757578" type="line"/>
      <point x="382.469696969697" y="544.5454545454545" type="line"/>
      <point x="340.1272727272727" y="544.5454545454545" type="line"/>
      <point x="340.1272727272727" y="141.2080808080808" type="line" smooth="yes"/>
      <point x="340.1272727272727" y="80.42020202020203"/>
      <point x="297.4787878787879" y="28.424242424242426"/>
      <point x="237.79999999999998" y="28.424242424242426" type="curve" smooth="yes"/>
      <point x="183.7171717171717" y="28.424242424242426"/>
      <point x="150.46363636363637" y="64.48282828282827"/>
      <point x="150.46363636363637" y="134.2828282828283" type="curve" smooth="yes"/>
      <point x="150.46363636363637" y="544.5454545454545" type="line"/>
      <point x="108.41010101010102" y="544.5454545454545" type="line"/>
      <point x="108.41010101010102" y="140.9171717171717" type="line" smooth="yes"/>
      <point x="108.41010101010102" y="43.31717171717172"/>
      <point x="158.12424242424245" y="-5.0"/>
    </contour>
  </outline>
</glyph>
<glyph name="ra-tamil" format="2">
  <advance width="617.1343434343435"/>
  <unicode hex="0BB0"/>
  <note>
uni0BB0
</note>
  <anchor x="325.24747474747477" y="0.0" name="bottom"/>
  <anchor x="532.5868686868687" y="544.5454545454545" name="imatra"/>
  <anchor x="323.1727272727273" y="-172.21212121212122" name="nukta"/>
  <anchor x="342.530303030303" y="544.5454545454545" name="top"/>
  <anchor x="347.1888888888889" y="544.5454545454545" name="vedic"/>
  <outline>
    <contour>
      <point x="231.35555555555555" y="-208.23232323232324" type="line"/>
      <point x="414.01818181818186" y="2.039393939393941" type="line"/>
      <point x="414.01818181818186" y="514.969696969697" type="line"/>
      <point x="592.0979797979799" y="514.969696969697" type="line"/>
      <point x="592.0979797979799" y="544.5454545454545" type="line"/>
      <point x="109.81515151515151" y="544.5454545454545" type="line"/>
      <point x="109.81515151515151" y="0.0" type="line"/>
      <point x="142.92828282828282" y="0.0" type="line"/>
      <point x="142.92828282828282" y="514.969696969697" type="line"/>
      <point x="371.830303030303" y="514.969696969697" type="line"/>
      <point x="371.830303030303" y="3.7484848484848476" type="line"/>
      <point x="207.03131313131314" y="-186.1878787878788" type="line"/>
    </contour>
  </outline>
</glyph>
<glyph name="la-tamil" format="2">
  <advance width="922.7020202020202"/>
  <unicode hex="0BB2"/>
  <note>
uni0BB2
</note>
  <anchor x="465.9868686868687" y="0.0" name="bottom"/>
  <anchor x="465.9868686868687" y="0.0" name="nukta"/>
  <anchor x="478.2959595959596" y="544.5454545454545" name="top"/>
  <anchor x="463.40505050505044" y="544.5454545454545" name="vedic"/>
  <outline>
    <contour>
      <point x="234.52727272727273" y="-4.0777777777777775" type="curve" smooth="yes"/>
      <point x="321.08989898989904" y="-4.0777777777777775"/>
      <point x="380.32020202020203" y="52.67575757575757"/>
      <point x="380.32020202020203" y="147.00404040404038" type="curve" smooth="yes"/>
      <point x="380.32020202020203" y="235.14242424242423"/>
      <point x="323.4151515151515" y="287.37676767676766"/>
      <point x="249.69494949494947" y="287.37676767676766" type="curve" smooth="yes"/>
      <point x="160.6949494949495" y="287.37676767676766"/>
      <point x="109.75454545454546" y="214.67676767676767"/>
      <point x="92.63838383838383" y="139.00202020202022" type="curve"/>
      <point x="107.43434343434343" y="111.63333333333334" type="line"/>
      <point x="127.9121212121212" y="189.0858585858586"/>
      <point x="168.54949494949494" y="253.33333333333334"/>
      <point x="238.84141414141413" y="253.33333333333334" type="curve" smooth="yes"/>
      <point x="301.5060606060606" y="253.33333333333334"/>
      <point x="339.5777777777778" y="209.83131313131312"/>
      <point x="339.5777777777778" y="142.84848484848484" type="curve" smooth="yes"/>
      <point x="339.5777777777778" y="68.28585858585859"/>
      <point x="292.7838383838384" y="26.93939393939394"/>
      <point x="228.7919191919192" y="26.93939393939394" type="curve" smooth="yes"/>
      <point x="147.2727272727273" y="26.93939393939394"/>
      <point x="94.14545454545454" y="104.71212121212122"/>
      <point x="94.14545454545454" y="230.90202020202022" type="curve" smooth="yes"/>
      <point x="94.14545454545454" y="395.42929292929296"/>
      <point x="172.60202020202024" y="522.3333333333334"/>
      <point x="324.5111111111112" y="522.3333333333334" type="curve" smooth="yes"/>
      <point x="436.97777777777776" y="522.3333333333334"/>
      <point x="513.0676767676767" y="455.8919191919192"/>
      <point x="513.0676767676767" y="326.80202020202023" type="curve" smooth="yes"/>
      <point x="513.0676767676767" y="152.91919191919192" type="line" smooth="yes"/>
      <point x="513.0676767676767" y="54.6989898989899"/>
      <point x="560.9050505050506" y="-3.1515151515151514"/>
      <point x="651.069696969697" y="-3.1515151515151514" type="curve" smooth="yes"/>
      <point x="764.8939393939394" y="-3.1515151515151514"/>
      <point x="860.4737373737374" y="107.88383838383838"/>
      <point x="860.4737373737374" y="282.93939393939394" type="curve" smooth="yes"/>
      <point x="860.4737373737374" y="383.17979797979797"/>
      <point x="834.5979797979797" y="466.95656565656566"/>
      <point x="761.5151515151515" y="550.1232323232323" type="curve"/>
      <point x="735.4767676767676" y="529.1595959595959" type="line"/>
      <point x="796.3929292929294" y="462.1272727272728"/>
      <point x="827.0363636363636" y="388.4323232323232"/>
      <point x="827.0363636363636" y="285.06060606060606" type="curve" smooth="yes"/>
      <point x="827.0363636363636" y="125.8020202020202"/>
      <point x="743.2363636363635" y="28.272727272727273"/>
      <point x="655.0242424242424" y="28.272727272727273" type="curve" smooth="yes"/>
      <point x="582.5111111111112" y="28.272727272727273"/>
      <point x="555.6787878787878" y="75.17474747474748"/>
      <point x="555.6787878787878" y="151.42020202020203" type="curve" smooth="yes"/>
      <point x="555.6787878787878" y="325.32424242424247" type="line" smooth="yes"/>
      <point x="555.6787878787878" y="480.479797979798"/>
      <point x="459.13434343434346" y="552.6969696969697"/>
      <point x="326.94242424242424" y="552.6969696969697" type="curve" smooth="yes"/>
      <point x="153.88181818181818" y="552.6969696969697"/>
      <point x="60.45959595959596" y="411.3444444444445"/>
      <point x="60.45959595959596" y="232.17070707070707" type="curve" smooth="yes"/>
      <point x="60.45959595959596" y="89.33737373737375"/>
      <point x="129.13131313131314" y="-4.0777777777777775"/>
    </contour>
  </outline>
</glyph>
<glyph name="va-tamil" format="2">
  <advance width="1036.5070707070709"/>
  <unicode hex="0BB5"/>
  <note>
uni0BB5
</note>
  <anchor x="529.5151515151515" y="0.0" name="bottom"/>
  <anchor x="891.9858585858586" y="544.5454545454545" name="imatra"/>
  <anchor x="529.5151515151515" y="0.0" name="nukta"/>
  <anchor x="514.3222222222223" y="544.5454545454545" name="top"/>
  <anchor x="505.9848484848485" y="544.5454545454545" name="vedic"/>
  <outline>
    <contour>
      <point x="233.94949494949498" y="-4.0777777777777775" type="curve" smooth="yes"/>
      <point x="320.22323232323237" y="-4.0777777777777775"/>
      <point x="380.03131313131314" y="51.809090909090905"/>
      <point x="380.03131313131314" y="147.58181818181816" type="curve" smooth="yes"/>
      <point x="380.03131313131314" y="235.43131313131312"/>
      <point x="322.5484848484848" y="287.37676767676766"/>
      <point x="249.98383838383836" y="287.37676767676766" type="curve" smooth="yes"/>
      <point x="162.13939393939395" y="287.37676767676766"/>
      <point x="110.04343434343436" y="216.6989898989899"/>
      <point x="92.63838383838383" y="139.00202020202022" type="curve"/>
      <point x="107.43434343434343" y="111.63333333333334" type="line"/>
      <point x="127.9121212121212" y="189.0858585858586"/>
      <point x="168.54949494949494" y="253.33333333333334"/>
      <point x="238.84141414141413" y="253.33333333333334" type="curve" smooth="yes"/>
      <point x="300.9282828282828" y="253.33333333333334"/>
      <point x="339.2888888888889" y="210.4090909090909"/>
      <point x="339.2888888888889" y="143.42626262626263" type="curve" smooth="yes"/>
      <point x="339.2888888888889" y="68.86363636363636"/>
      <point x="293.07272727272726" y="26.93939393939394"/>
      <point x="228.5030303030303" y="26.93939393939394" type="curve" smooth="yes"/>
      <point x="146.40606060606063" y="26.93939393939394"/>
      <point x="94.14545454545454" y="107.02323232323232"/>
      <point x="94.14545454545454" y="230.32424242424244" type="curve" smooth="yes"/>
      <point x="94.14545454545454" y="399.6050505050505"/>
      <point x="191.66969696969696" y="522.3333333333334"/>
      <point x="354.26969696969695" y="522.3333333333334" type="curve" smooth="yes"/>
      <point x="496.02828282828284" y="522.3333333333334"/>
      <point x="612.0939393939394" y="429.2868686868687"/>
      <point x="612.0939393939394" y="260.020202020202" type="curve" smooth="yes"/>
      <point x="612.0939393939394" y="149.65858585858584"/>
      <point x="572.3757575757576" y="80.15959595959596"/>
      <point x="524.1919191919192" y="23.85757575757576" type="curve"/>
      <point x="537.2323232323232" y="0.0" type="line"/>
      <point x="927.0373737373736" y="0.0" type="line"/>
      <point x="927.0373737373736" y="544.5454545454545" type="line"/>
      <point x="884.4262626262627" y="544.5454545454545" type="line"/>
      <point x="884.4262626262627" y="29.575757575757578" type="line"/>
      <point x="571.2414141414141" y="29.575757575757578" type="line"/>
      <point x="615.9000000000001" y="85.72626262626262"/>
      <point x="654.5282828282828" y="156.0131313131313"/>
      <point x="654.5282828282828" y="260.46969696969694" type="curve" smooth="yes"/>
      <point x="654.5282828282828" y="447.169696969697"/>
      <point x="525.3727272727273" y="552.6969696969697"/>
      <point x="360.25656565656567" y="552.6969696969697" type="curve" smooth="yes"/>
      <point x="174.0060606060606" y="552.6969696969697"/>
      <point x="60.45959595959596" y="414.5767676767677"/>
      <point x="60.45959595959596" y="231.88181818181818" type="curve" smooth="yes"/>
      <point x="60.45959595959596" y="91.35959595959596"/>
      <point x="128.84242424242424" y="-4.0777777777777775"/>
    </contour>
  </outline>
</glyph>
<glyph name="sa-tamil" format="2">
  <advance width="1168.5363636363638"/>
  <unicode hex="0BB8"/>
  <note>
uni0BB8
</note>
  <anchor x="600.0979797979799" y="0.0" name="bottom"/>
  <anchor x="600.0979797979799" y="0.0" name="nukta"/>
  <anchor x="589.9656565656567" y="544.5454545454545" name="top"/>
  <anchor x="584.8838383838383" y="544.5454545454545" name="vedic"/>
  <outline>
    <contour>
      <point x="532.6505050505051" y="0.0" type="line"/>
      <point x="574.7626262626263" y="0.0" type="line"/>
      <point x="574.7626262626263" y="416.0929292929293" type="line" smooth="yes"/>
      <point x="574.7626262626263" y="482.50404040404044"/>
      <point x="609.0535353535354" y="522.1212121212121"/>
      <point x="667.7181818181818" y="522.1212121212121" type="curve" smooth="yes"/>
      <point x="726.2272727272727" y="522.1212121212121"/>
      <point x="757.5585858585858" y="480.9494949494949"/>
      <point x="757.5585858585858" y="416.5424242424243" type="curve" smooth="yes"/>
      <point x="757.5585858585858" y="153.5909090909091" type="line" smooth="yes"/>
      <point x="757.5585858585858" y="55.37070707070708"/>
      <point x="805.3181818181819" y="-3.1515151515151514"/>
      <point x="896.059595959596" y="-3.1515151515151514" type="curve" smooth="yes"/>
      <point x="1010.8626262626263" y="-3.1515151515151514"/>
      <point x="1106.3080808080808" y="107.88383838383838"/>
      <point x="1106.3080808080808" y="282.93939393939394" type="curve" smooth="yes"/>
      <point x="1106.3080808080808" y="383.6787878787879"/>
      <point x="1080.0494949494948" y="466.5131313131313"/>
      <point x="1006.4090909090909" y="549.5454545454545" type="curve"/>
      <point x="979.6989898989898" y="528.4676767676767" type="line"/>
      <point x="1041.4393939393938" y="460.8979797979798"/>
      <point x="1071.5272727272727" y="388.93131313131306"/>
      <point x="1071.5272727272727" y="285.06060606060606" type="curve" smooth="yes"/>
      <point x="1071.5272727272727" y="125.8020202020202"/>
      <point x="987.7272727272726" y="28.272727272727273"/>
      <point x="899.8020202020202" y="28.272727272727273" type="curve" smooth="yes"/>
      <point x="829.8414141414141" y="28.272727272727273"/>
      <point x="800.0919191919191" y="75.17474747474748"/>
      <point x="800.0919191919191" y="152.0919191919192" type="curve" smooth="yes"/>
      <point x="800.0919191919191" y="410.86262626262624" type="line" smooth="yes"/>
      <point x="800.0919191919191" y="502.13535353535354"/>
      <point x="749.7121212121212" y="552.6969696969697"/>
      <point x="671.2878787878789" y="552.6969696969697" type="curve" smooth="yes"/>
      <point x="590.8959595959597" y="552.6969696969697"/>
      <point x="543.959595959596" y="494.82121212121217"/>
      <point x="543.959595959596" y="422.17070707070707" type="curve" smooth="yes"/>
      <point x="543.959595959596" y="370.45656565656566" type="line"/>
      <point x="532.6505050505051" y="370.45656565656566" type="line"/>
    </contour>
    <contour>
      <point x="238.50404040404038" y="-4.0777777777777775" type="curve" smooth="yes"/>
      <point x="325.2010101010101" y="-4.0777777777777775"/>
      <point x="384.50909090909096" y="52.67575757575757"/>
      <point x="384.50909090909096" y="147.00404040404038" type="curve" smooth="yes"/>
      <point x="384.50909090909096" y="235.14242424242423"/>
      <point x="327.6040404040404" y="287.37676767676766"/>
      <point x="253.30707070707072" y="287.37676767676766" type="curve" smooth="yes"/>
      <point x="164.74949494949496" y="287.37676767676766"/>
      <point x="113.88686868686868" y="214.67676767676767"/>
      <point x="96.77070707070706" y="139.00202020202022" type="curve"/>
      <point x="111.56666666666668" y="111.63333333333334" type="line"/>
      <point x="132.1222222222222" y="189.0858585858586"/>
      <point x="172.60404040404038" y="253.33333333333334"/>
      <point x="242.81818181818184" y="253.33333333333334" type="curve" smooth="yes"/>
      <point x="305.4828282828283" y="253.33333333333334"/>
      <point x="343.55454545454546" y="209.83131313131312"/>
      <point x="343.55454545454546" y="142.84848484848484" type="curve" smooth="yes"/>
      <point x="343.55454545454546" y="68.28585858585859"/>
      <point x="296.83838383838383" y="26.93939393939394"/>
      <point x="232.84646464646463" y="26.93939393939394" type="curve" smooth="yes"/>
      <point x="150.55757575757576" y="26.93939393939394"/>
      <point x="98.12323232323233" y="105.51818181818182"/>
      <point x="98.12323232323233" y="233.32020202020203" type="curve" smooth="yes"/>
      <point x="98.12323232323233" y="395.5353535353535"/>
      <point x="178.13737373737376" y="522.3333333333334"/>
      <point x="332.2989898989899" y="522.3333333333334" type="curve" smooth="yes"/>
      <point x="444.2707070707071" y="522.3333333333334"/>
      <point x="532.6505050505051" y="460.620202020202"/>
      <point x="532.6505050505051" y="318.2919191919192" type="curve"/>
      <point x="565.239393939394" y="318.0656565656566" type="line"/>
      <point x="564.1232323232323" y="484.08787878787876"/>
      <point x="463.32020202020203" y="552.6969696969697"/>
      <point x="332.55555555555554" y="552.6969696969697" type="curve" smooth="yes"/>
      <point x="158.72828282828283" y="552.6969696969697"/>
      <point x="64.59191919191919" y="411.6272727272727"/>
      <point x="64.59191919191919" y="234.32020202020203" type="curve" smooth="yes"/>
      <point x="64.59191919191919" y="90.14343434343434"/>
      <point x="132.64848484848483" y="-4.0777777777777775"/>
    </contour>
  </outline>
</glyph>
<glyph name="ha-tamil" format="2">
  <advance width="1448.9404040404042"/>
  <unicode hex="0BB9"/>
  <note>
uni0BB9
</note>
  <anchor x="739.7727272727274" y="0.0" name="bottom"/>
  <anchor x="739.7727272727274" y="-141.75757575757575" name="nukta"/>
  <anchor x="742.8222222222222" y="549.0363636363636" name="top"/>
  <anchor x="736.0050505050505" y="544.5454545454545" name="vedic"/>
  <outline>
    <contour>
      <point x="169.14949494949497" y="-211.1929292929293" type="curve"/>
      <point x="169.14949494949497" y="-168.53939393939393"/>
      <point x="187.1050505050505" y="-131.82525252525252"/>
      <point x="245.01111111111112" y="-131.82525252525252" type="curve" smooth="yes"/>
      <point x="958.60101010101" y="-131.82525252525252" type="line" smooth="yes"/>
      <point x="1222.5404040404042" y="-131.82525252525252"/>
      <point x="1386.1353535353537" y="-28.86969696969697"/>
      <point x="1386.1353535353537" y="257.2474747474747" type="curve" smooth="yes"/>
      <point x="1386.1353535353537" y="426.83131313131315"/>
      <point x="1320.268686868687" y="552.6969696969697"/>
      <point x="1175.430303030303" y="552.6969696969697" type="curve" smooth="yes"/>
      <point x="1087.4858585858588" y="552.6969696969697"/>
      <point x="1046.7505050505051" y="503.88888888888886"/>
      <point x="1031.2696969696972" y="466.81313131313135" type="curve"/>
      <point x="1017.7717171717172" y="504.9080808080808"/>
      <point x="985.4333333333333" y="552.4848484848485"/>
      <point x="912.6868686868687" y="552.4848484848485" type="curve" smooth="yes"/>
      <point x="833.7919191919193" y="552.4848484848485"/>
      <point x="783.7848484848485" y="496.56060606060606"/>
      <point x="783.7848484848485" y="402.51010101010104" type="curve" smooth="yes"/>
      <point x="783.7848484848485" y="29.575757575757578" type="line"/>
      <point x="571.2414141414141" y="29.575757575757578" type="line"/>
      <point x="615.9000000000001" y="85.72626262626262"/>
      <point x="654.5282828282828" y="156.0131313131313"/>
      <point x="654.5282828282828" y="260.46969696969694" type="curve" smooth="yes"/>
      <point x="654.5282828282828" y="447.169696969697"/>
      <point x="525.3727272727273" y="552.6969696969697"/>
      <point x="360.25656565656567" y="552.6969696969697" type="curve" smooth="yes"/>
      <point x="174.0060606060606" y="552.6969696969697"/>
      <point x="60.45959595959596" y="414.5767676767677"/>
      <point x="60.45959595959596" y="231.88181818181818" type="curve" smooth="yes"/>
      <point x="60.45959595959596" y="91.35959595959596"/>
      <point x="128.84242424242424" y="-4.0777777777777775"/>
      <point x="233.94949494949498" y="-4.0777777777777775" type="curve" smooth="yes"/>
      <point x="320.22323232323237" y="-4.0777777777777775"/>
      <point x="380.03131313131314" y="51.809090909090905"/>
      <point x="380.03131313131314" y="147.58181818181816" type="curve" smooth="yes"/>
      <point x="380.03131313131314" y="235.43131313131312"/>
      <point x="322.5484848484848" y="287.37676767676766"/>
      <point x="249.98383838383836" y="287.37676767676766" type="curve" smooth="yes"/>
      <point x="162.13939393939395" y="287.37676767676766"/>
      <point x="110.04343434343436" y="216.6989898989899"/>
      <point x="92.63838383838383" y="139.00202020202022" type="curve"/>
      <point x="107.43434343434343" y="111.63333333333334" type="line"/>
      <point x="127.98989898989899" y="189.0858585858586"/>
      <point x="168.54949494949494" y="253.33333333333334"/>
      <point x="238.84141414141413" y="253.33333333333334" type="curve" smooth="yes"/>
      <point x="300.9282828282828" y="253.33333333333334"/>
      <point x="339.2888888888889" y="210.4090909090909"/>
      <point x="339.2888888888889" y="143.42626262626263" type="curve" smooth="yes"/>
      <point x="339.2888888888889" y="68.86363636363636"/>
      <point x="293.07272727272726" y="26.93939393939394"/>
      <point x="228.5030303030303" y="26.93939393939394" type="curve" smooth="yes"/>
      <point x="146.40606060606063" y="26.93939393939394"/>
      <point x="94.14545454545454" y="107.02323232323232"/>
      <point x="94.14545454545454" y="230.32424242424244" type="curve" smooth="yes"/>
      <point x="94.14545454545454" y="399.6050505050505"/>
      <point x="191.66969696969696" y="522.3333333333334"/>
      <point x="354.26969696969695" y="522.3333333333334" type="curve" smooth="yes"/>
      <point x="496.02828282828284" y="522.3333333333334"/>
      <point x="612.0939393939394" y="429.2868686868687"/>
      <point x="612.0939393939394" y="260.020202020202" type="curve" smooth="yes"/>
      <point x="612.0939393939394" y="149.65858585858584"/>
      <point x="572.3757575757576" y="80.15959595959596"/>
      <point x="524.1919191919192" y="23.85757575757576" type="curve"/>
      <point x="537.2323232323232" y="0.0" type="line"/>
      <point x="816.8202020202021" y="0.0" type="line"/>
      <point x="816.8202020202021" y="406.8707070707071" type="line" smooth="yes"/>
      <point x="816.8202020202021" y="477.6848484848485"/>
      <point x="852.3919191919192" y="522.1212121212121"/>
      <point x="912.6303030303031" y="522.1212121212121" type="curve" smooth="yes"/>
      <point x="972.5212121212121" y="522.1212121212121"/>
      <point x="1010.6535353535354" y="477.3949494949495"/>
      <point x="1010.6535353535354" y="405.65656565656565" type="curve" smooth="yes"/>
      <point x="1010.6535353535354" y="0.0" type="line"/>
      <point x="1052.9757575757574" y="0.0" type="line"/>
      <point x="1052.9757575757574" y="404.65656565656565" type="line" smooth="yes"/>
      <point x="1052.9757575757574" y="478.7515151515151"/>
      <point x="1105.7151515151515" y="522.3333333333334"/>
      <point x="1174.5959595959596" y="522.3333333333334" type="curve" smooth="yes"/>
      <point x="1261.3484848484848" y="522.3333333333334"/>
      <point x="1342.7353535353534" y="457.1515151515151"/>
      <point x="1342.7353535353534" y="259.9020202020202" type="curve" smooth="yes"/>
      <point x="1342.7353535353534" y="-12.874747474747474"/>
      <point x="1192.649494949495" y="-100.9070707070707"/>
      <point x="947.4979797979798" y="-100.9070707070707" type="curve" smooth="yes"/>
      <point x="212.24646464646463" y="-100.9070707070707" type="line" smooth="yes"/>
      <point x="157.26565656565654" y="-100.9070707070707"/>
      <point x="117.19494949494951" y="-124.34444444444445"/>
      <point x="117.19494949494951" y="-164.82929292929293" type="curve" smooth="yes"/>
      <point x="117.19494949494951" y="-193.34444444444446"/>
      <point x="136.3757575757576" y="-211.1929292929293"/>
    </contour>
  </outline>
</glyph>
<glyph name="aaMatra-tamil" format="2">
  <advance width="632.5464646464646"/>
  <unicode hex="0BBE"/>
  <note>
uni0BBE
</note>
  <anchor x="343.010101010101" y="0.0" name="bottom"/>
  <anchor x="342.2989898989899" y="0.0" name="nukta"/>
  <anchor x="336.2989898989899" y="544.5454545454545" name="top"/>
  <anchor x="336.2989898989899" y="544.5454545454545" name="vedic"/>
  <outline>
    <contour>
      <point x="109.81515151515151" y="0.0" type="line"/>
      <point x="142.92828282828282" y="0.0" type="line"/>
      <point x="142.92828282828282" y="514.969696969697" type="line"/>
      <point x="387.24242424242425" y="514.969696969697" type="line"/>
      <point x="387.24242424242425" y="0.0" type="line"/>
      <point x="429.71919191919187" y="0.0" type="line"/>
      <point x="429.71919191919187" y="514.969696969697" type="line"/>
      <point x="607.5101010101009" y="514.969696969697" type="line"/>
      <point x="607.5101010101009" y="544.5454545454545" type="line"/>
      <point x="109.81515151515151" y="544.5454545454545" type="line"/>
    </contour>
  </outline>
</glyph>
<glyph name="iMatra-tamil" format="2">
  <advance width="210.55353535353535"/>
  <unicode hex="0BBF"/>
  <note>
uni0BBF
</note>
  <anchor x="-108.37373737373738" y="800.2454545454545" name="top"/>
  <outline>
    <contour>
      <point x="80.04141414141414" y="0.0" type="line"/>
      <point x="114.78484848484851" y="0.0" type="line"/>
      <point x="114.78484848484851" y="555.5323232323233" type="line" smooth="yes"/>
      <point x="114.78484848484851" y="712.209090909091"/>
      <point x="23.593939393939394" y="800.2454545454545"/>
      <point x="-108.37373737373738" y="800.2454545454545" type="curve" smooth="yes"/>
      <point x="-215.7616161616162" y="800.2454545454545"/>
      <point x="-281.06060606060606" y="731.970707070707"/>
      <point x="-281.06060606060606" y="647.4919191919192" type="curve" smooth="yes"/>
      <point x="-281.06060606060606" y="562.4313131313132"/>
      <point x="-219.15757575757578" y="514.969696969697"/>
      <point x="-149.3959595959596" y="514.969696969697" type="curve" smooth="yes"/>
      <point x="-142.61010101010103" y="514.969696969697" type="line"/>
      <point x="-142.61010101010103" y="544.5454545454545" type="line"/>
      <point x="-147.32121212121214" y="544.5454545454545" type="line" smooth="yes"/>
      <point x="-203.34545454545457" y="544.5454545454545"/>
      <point x="-245.67878787878786" y="581.0717171717171"/>
      <point x="-245.67878787878786" y="640.7171717171718" type="curve" smooth="yes"/>
      <point x="-245.67878787878786" y="708.7555555555555"/>
      <point x="-195.74646464646463" y="757.7313131313131"/>
      <point x="-110.33535353535353" y="757.7313131313131" type="curve" smooth="yes"/>
      <point x="0.6030303030303035" y="757.7313131313131"/>
      <point x="80.04141414141414" y="687.089898989899"/>
      <point x="80.04141414141414" y="540.0030303030303" type="curve" smooth="yes"/>
    </contour>
  </outline>
</glyph>
<glyph name="iiMatra-tamil" format="2">
  <unicode hex="0BC0"/>
  <note>
uni0BC0
</note>
  <anchor x="0.0" y="544.5454545454545" name="_imatra"/>
  <anchor x="7.943434343434343" y="874.1212121212121" name="top"/>
  <outline>
    <contour>
      <point x="-16.095959595959595" y="517.6060606060606" type="curve" smooth="yes"/>
      <point x="0.0" y="517.6060606060606" type="line"/>
      <point x="0.0" y="544.5454545454545" type="line"/>
      <point x="-15.862626262626264" y="544.5454545454545" type="line" smooth="yes"/>
      <point x="-97.85151515151514" y="544.5454545454545"/>
      <point x="-145.04040404040404" y="599.4828282828282"/>
      <point x="-145.04040404040404" y="685.9959595959596" type="curve" smooth="yes"/>
      <point x="-145.04040404040404" y="776.6444444444444"/>
      <point x="-95.08080808080808" y="845.3333333333334"/>
      <point x="5.73030303030303" y="845.3333333333334" type="curve" smooth="yes"/>
      <point x="81.4070707070707" y="845.3333333333334"/>
      <point x="135.97070707070705" y="803.9494949494949"/>
      <point x="135.97070707070705" y="733.2828282828283" type="curve" smooth="yes"/>
      <point x="135.97070707070705" y="682.5131313131312"/>
      <point x="105.00707070707071" y="647.3333333333334"/>
      <point x="53.403030303030306" y="647.3333333333334" type="curve" smooth="yes"/>
      <point x="-31.992929292929293" y="647.3333333333334"/>
      <point x="-52.24545454545454" y="756.7616161616162"/>
      <point x="-6.167676767676769" y="854.1515151515151" type="curve"/>
      <point x="-31.54646464646465" y="858.1515151515151" type="line"/>
      <point x="-92.35555555555555" y="743.9434343434343"/>
      <point x="-57.829292929292926" y="617.7575757575758"/>
      <point x="57.84747474747475" y="617.7575757575758" type="curve" smooth="yes"/>
      <point x="127.60303030303031" y="617.7575757575758"/>
      <point x="175.8030303030303" y="662.7444444444444"/>
      <point x="175.8030303030303" y="730.879797979798" type="curve" smooth="yes"/>
      <point x="175.8030303030303" y="818.8868686868688"/>
      <point x="107.9979797979798" y="874.1212121212121"/>
      <point x="7.943434343434343" y="874.1212121212121" type="curve" smooth="yes"/>
      <point x="-111.98686868686869" y="874.1212121212121"/>
      <point x="-180.37979797979798" y="790.3323232323232"/>
      <point x="-180.37979797979798" y="686.4969696969697" type="curve" smooth="yes"/>
      <point x="-180.37979797979798" y="583.3010101010101"/>
      <point x="-117.18989898989899" y="517.6060606060606"/>
    </contour>
  </outline>
</glyph>
<glyph name="uMatra-tamil" format="2">
  <advance width="486.30707070707075"/>
  <unicode hex="0BC1"/>
  <note>
uni0BC1
</note>
  <anchor x="205.89999999999998" y="544.5454545454545" name="top"/>
  <outline>
    <contour>
      <point x="301.0535353535353" y="225.8181818181818" type="curve" smooth="yes"/>
      <point x="388.1555555555555" y="225.8181818181818"/>
      <point x="456.12222222222215" y="282.37070707070706"/>
      <point x="456.12222222222215" y="388.2676767676768" type="curve" smooth="yes"/>
      <point x="456.12222222222215" y="544.5454545454545" type="line"/>
      <point x="-222.63030303030303" y="544.5454545454545" type="line"/>
      <point x="-195.9151515151515" y="514.969696969697" type="line"/>
      <point x="413.58888888888896" y="514.969696969697" type="line"/>
      <point x="413.58888888888896" y="381.7868686868687" type="line" smooth="yes"/>
      <point x="413.58888888888896" y="304.0020202020202"/>
      <point x="365.3707070707071" y="257.9909090909091"/>
      <point x="296.02727272727276" y="257.9909090909091" type="curve" smooth="yes"/>
      <point x="224.1646464646465" y="257.9909090909091"/>
      <point x="188.09191919191917" y="308.16868686868685"/>
      <point x="188.09191919191917" y="389.0" type="curve" smooth="yes"/>
      <point x="188.09191919191917" y="527.7272727272727" type="line"/>
      <point x="155.13434343434344" y="527.7272727272727" type="line"/>
      <point x="155.13434343434344" y="392.26868686868687" type="line" smooth="yes"/>
      <point x="155.13434343434344" y="289.0969696969697"/>
      <point x="204.76464646464643" y="225.8181818181818"/>
    </contour>
  </outline>
</glyph>
<glyph name="uuMatra-tamil" format="2">
  <advance width="782.910101010101"/>
  <unicode hex="0BC2"/>
  <note>
uni0BC2
</note>
  <anchor x="420.01010101010104" y="780.0" name="top"/>
  <outline>
    <contour>
      <point x="367.8161616161616" y="0.7878787878787878" type="curve" smooth="yes"/>
      <point x="593.8272727272728" y="0.7878787878787878"/>
      <point x="737.321212121212" y="157.8121212121212"/>
      <point x="737.321212121212" y="407.8484848484849" type="curve" smooth="yes"/>
      <point x="737.321212121212" y="631.3858585858586"/>
      <point x="612.5252525252525" y="780.0"/>
      <point x="420.01010101010104" y="780.0" type="curve" smooth="yes"/>
      <point x="234.07272727272726" y="780.0"/>
      <point x="161.5878787878788" y="654.2757575757577"/>
      <point x="161.5878787878788" y="528.5121212121213" type="curve" smooth="yes"/>
      <point x="161.5878787878788" y="394.2838383838384" type="line" smooth="yes"/>
      <point x="161.5878787878788" y="289.90303030303033"/>
      <point x="211.62121212121212" y="225.8181818181818"/>
      <point x="308.4858585858585" y="225.8181818181818" type="curve" smooth="yes"/>
      <point x="394.78181818181815" y="225.8181818181818"/>
      <point x="461.9424242424243" y="282.77373737373733"/>
      <point x="461.9424242424243" y="388.2676767676768" type="curve" smooth="yes"/>
      <point x="461.9424242424243" y="544.5454545454545" type="line"/>
      <point x="-225.04949494949494" y="544.5454545454545" type="line"/>
      <point x="-205.19292929292928" y="514.969696969697" type="line"/>
      <point x="419.5434343434344" y="514.969696969697" type="line"/>
      <point x="419.5434343434344" y="381.7868686868687" type="line" smooth="yes"/>
      <point x="419.5434343434344" y="304.0020202020202"/>
      <point x="370.9585858585859" y="257.9909090909091"/>
      <point x="302.48080808080806" y="257.9909090909091" type="curve" smooth="yes"/>
      <point x="229.85050505050506" y="257.9909090909091"/>
      <point x="194.54545454545453" y="309.37777777777774"/>
      <point x="194.54545454545453" y="391.0151515151515" type="curve" smooth="yes"/>
      <point x="194.54545454545453" y="528.5121212121213" type="line" smooth="yes"/>
      <point x="194.54545454545453" y="641.7909090909092"/>
      <point x="261.1212121212121" y="749.8484848484849"/>
      <point x="413.5080808080808" y="749.8484848484849" type="curve" smooth="yes"/>
      <point x="592.5333333333333" y="749.8484848484849"/>
      <point x="694.5535353535353" y="608.9737373737373"/>
      <point x="694.5535353535353" y="413.3919191919192" type="curve" smooth="yes"/>
      <point x="694.5535353535353" y="185.62525252525253"/>
      <point x="575.320202020202" y="31.151515151515152"/>
      <point x="367.37373737373736" y="31.151515151515152" type="curve" smooth="yes"/>
      <point x="251.28686868686867" y="31.151515151515152"/>
      <point x="177.78080808080807" y="69.41414141414141"/>
      <point x="103.21919191919191" y="154.8979797979798" type="curve"/>
      <point x="78.3010101010101" y="133.7737373737374" type="line"/>
      <point x="157.34141414141416" y="45.44646464646465"/>
      <point x="236.56868686868685" y="0.7878787878787878"/>
    </contour>
  </outline>
</glyph>
<glyph name="eMatra-tamil" format="2">
  <advance width="747.6010101010102"/>
  <unicode hex="0BC6"/>
  <note>
uni0BC6
</note>
  <outline>
    <contour>
      <point x="278.8777777777778" y="-4.0777777777777775" type="curve" smooth="yes"/>
      <point x="367.88282828282826" y="-4.0777777777777775"/>
      <point x="430.76363636363635" y="54.54040404040404"/>
      <point x="430.76363636363635" y="150.67777777777778" type="curve" smooth="yes"/>
      <point x="430.76363636363635" y="239.35454545454544"/>
      <point x="373.779797979798" y="293.9525252525252"/>
      <point x="294.3727272727273" y="293.9525252525252" type="curve" smooth="yes"/>
      <point x="208.21919191919193" y="293.9525252525252"/>
      <point x="143.11212121212122" y="226.96666666666667"/>
      <point x="120.15454545454544" y="127.79292929292927" type="curve"/>
      <point x="138.1252525252525" y="101.78989898989899" type="line"/>
      <point x="160.7929292929293" y="197.59393939393942"/>
      <point x="213.71010101010103" y="259.9090909090909"/>
      <point x="284.96262626262626" y="259.9090909090909" type="curve" smooth="yes"/>
      <point x="349.2979797979798" y="259.9090909090909"/>
      <point x="390.38585858585856" y="215.12020202020202"/>
      <point x="390.38585858585856" y="147.2323232323232" type="curve" smooth="yes"/>
      <point x="390.38585858585856" y="72.51414141414143"/>
      <point x="340.020202020202" y="26.93939393939394"/>
      <point x="273.0080808080808" y="26.93939393939394" type="curve" smooth="yes"/>
      <point x="159.84848484848484" y="26.93939393939394"/>
      <point x="88.4828282828283" y="155.1909090909091"/>
      <point x="88.4828282828283" y="357.0030303030303" type="curve" smooth="yes"/>
      <point x="88.4828282828283" y="595.9808080808081"/>
      <point x="203.24848484848482" y="762.3353535353535"/>
      <point x="392.4919191919192" y="762.3353535353535" type="curve" smooth="yes"/>
      <point x="528.3282828282828" y="762.3353535353535"/>
      <point x="617.3777777777779" y="690.9454545454545"/>
      <point x="617.3777777777779" y="500.11414141414144" type="curve" smooth="yes"/>
      <point x="617.3777777777779" y="0.0" type="line"/>
      <point x="651.8323232323232" y="0.0" type="line"/>
      <point x="651.8323232323232" y="512.1777777777778" type="line" smooth="yes"/>
      <point x="651.8323232323232" y="716.8424242424243"/>
      <point x="550.0656565656566" y="805.0626262626263"/>
      <point x="394.54949494949494" y="805.0626262626263" type="curve" smooth="yes"/>
      <point x="181.66666666666666" y="805.0626262626263"/>
      <point x="54.66262626262626" y="616.8545454545455"/>
      <point x="54.66262626262626" y="360.42424242424244" type="curve" smooth="yes"/>
      <point x="54.66262626262626" y="141.08787878787876"/>
      <point x="139.97171717171716" y="-4.0777777777777775"/>
    </contour>
  </outline>
</glyph>
<glyph name="eeMatra-tamil" format="2">
  <advance width="549.8737373737374"/>
  <unicode hex="0BC7"/>
  <note>
uni0BC7
</note>
  <outline>
    <contour>
      <point x="343.77878787878785" y="-4.212121212121212" type="curve" smooth="yes"/>
      <point x="433.5747474747474" y="-4.212121212121212"/>
      <point x="495.9454545454546" y="50.50000000000001"/>
      <point x="495.9454545454546" y="146.23939393939395" type="curve" smooth="yes"/>
      <point x="495.9454545454546" y="236.51010101010104"/>
      <point x="440.34747474747473" y="288.7060606060606"/>
      <point x="367.2232323232323" y="288.7060606060606" type="curve" smooth="yes"/>
      <point x="270.74040404040403" y="288.7060606060606"/>
      <point x="215.33030303030304" y="198.36767676767676"/>
      <point x="208.41515151515154" y="69.63333333333334" type="curve"/>
      <point x="229.85050505050503" y="43.16969696969697" type="line"/>
      <point x="239.66363636363636" y="174.64040404040404"/>
      <point x="279.75050505050507" y="254.66262626262628"/>
      <point x="356.4080808080808" y="254.66262626262628" type="curve" smooth="yes"/>
      <point x="418.4949494949495" y="254.66262626262628"/>
      <point x="454.9909090909091" y="210.66161616161617"/>
      <point x="454.9909090909091" y="142.0060606060606" type="curve" smooth="yes"/>
      <point x="454.9909090909091" y="66.60909090909091"/>
      <point x="405.55555555555554" y="26.93939393939394"/>
      <point x="339.7515151515151" y="26.93939393939394" type="curve" smooth="yes"/>
      <point x="205.58080808080808" y="26.93939393939394"/>
      <point x="96.20404040404041" y="172.28181818181818"/>
      <point x="96.20404040404041" y="391.4707070707071" type="curve" smooth="yes"/>
      <point x="96.20404040404041" y="611.5040404040404"/>
      <point x="205.58080808080808" y="768.2111111111111"/>
      <point x="339.25252525252523" y="768.2111111111111" type="curve" smooth="yes"/>
      <point x="405.55555555555554" y="768.2111111111111"/>
      <point x="454.9909090909091" y="728.4636363636363"/>
      <point x="454.9909090909091" y="653.0666666666666" type="curve" smooth="yes"/>
      <point x="454.9909090909091" y="584.7"/>
      <point x="418.4949494949495" y="540.7767676767677"/>
      <point x="356.4080808080808" y="540.7767676767677" type="curve" smooth="yes"/>
      <point x="280.249494949495" y="540.7767676767677"/>
      <point x="241.65959595959598" y="617.8616161616162"/>
      <point x="231.84646464646465" y="751.2717171717172" type="curve"/>
      <point x="209.91212121212124" y="725.1525252525253" type="line"/>
      <point x="217.32626262626263" y="593.7888888888889"/>
      <point x="271.2393939393939" y="506.78989898989903"/>
      <point x="367.2232323232323" y="506.78989898989903" type="curve" smooth="yes"/>
      <point x="440.34747474747473" y="506.78989898989903"/>
      <point x="495.9454545454546" y="558.6404040404041"/>
      <point x="495.9454545454546" y="648.911111111111" type="curve" smooth="yes"/>
      <point x="495.9454545454546" y="744.8616161616161"/>
      <point x="433.07575757575756" y="799.5737373737373"/>
      <point x="343.77878787878785" y="799.5737373737373" type="curve" smooth="yes"/>
      <point x="184.63939393939395" y="799.5737373737373"/>
      <point x="62.67272727272727" y="625.7616161616163"/>
      <point x="62.67272727272727" y="391.62626262626264" type="curve" smooth="yes"/>
      <point x="62.67272727272727" y="158.27878787878788"/>
      <point x="185.13838383838385" y="-4.212121212121212"/>
    </contour>
  </outline>
</glyph>
<glyph name="aiMatra-tamil" format="2">
  <advance width="1119.69898989899"/>
  <unicode hex="0BC8"/>
  <note>
uni0BC8
</note>
  <outline>
    <contour>
      <point x="924.1242424242425" y="-6.8090909090909095" type="line"/>
      <point x="1004.120202020202" y="52.147474747474746"/>
      <point x="1059.3737373737374" y="138.33131313131312"/>
      <point x="1059.3737373737374" y="264.58484848484846" type="curve" smooth="yes"/>
      <point x="1059.3737373737374" y="442.30505050505053"/>
      <point x="947.6272727272726" y="552.6969696969697"/>
      <point x="787.5696969696969" y="552.6969696969697" type="curve" smooth="yes"/>
      <point x="581.5141414141414" y="552.6969696969697"/>
      <point x="469.1090909090909" y="369.7606060606061"/>
      <point x="469.1090909090909" y="187.06161616161617" type="curve" smooth="yes"/>
      <point x="469.1090909090909" y="65.72525252525253"/>
      <point x="518.4414141414142" y="-5.0"/>
      <point x="608.2040404040405" y="-5.0" type="curve" smooth="yes"/>
      <point x="697.409090909091" y="-5.0"/>
      <point x="757.9747474747476" y="66.53737373737374"/>
      <point x="757.9747474747476" y="184.66060606060609" type="curve" smooth="yes"/>
      <point x="757.9747474747476" y="403.65959595959595"/>
      <point x="587.5696969696969" y="552.6969696969697"/>
      <point x="381.0838383838384" y="552.6969696969697" type="curve" smooth="yes"/>
      <point x="193.1131313131313" y="552.6969696969697"/>
      <point x="60.45959595959596" y="429.81010101010105"/>
      <point x="60.45959595959596" y="231.38282828282829" type="curve" smooth="yes"/>
      <point x="60.45959595959596" y="90.86060606060606"/>
      <point x="131.25959595959594" y="-4.0777777777777775"/>
      <point x="233.7939393939394" y="-4.0777777777777775" type="curve" smooth="yes"/>
      <point x="320.0676767676768" y="-4.0777777777777775"/>
      <point x="379.95353535353536" y="52.80707070707071"/>
      <point x="379.95353535353536" y="148.57979797979797" type="curve" smooth="yes"/>
      <point x="379.95353535353536" y="235.930303030303"/>
      <point x="322.470707070707" y="287.37676767676766"/>
      <point x="250.3272727272727" y="287.37676767676766" type="curve" smooth="yes"/>
      <point x="163.55858585858584" y="287.37676767676766"/>
      <point x="110.04343434343436" y="217.6969696969697"/>
      <point x="92.63838383838383" y="139.5010101010101" type="curve"/>
      <point x="107.43434343434343" y="112.13232323232323" type="line"/>
      <point x="127.98989898989899" y="190.08383838383838"/>
      <point x="168.47171717171716" y="253.33333333333334"/>
      <point x="238.68585858585857" y="253.33333333333334" type="curve" smooth="yes"/>
      <point x="300.77272727272725" y="253.33333333333334"/>
      <point x="339.1333333333334" y="211.40707070707072"/>
      <point x="339.1333333333334" y="144.42424242424244" type="curve" smooth="yes"/>
      <point x="339.1333333333334" y="69.86161616161617"/>
      <point x="293.9929292929293" y="26.93939393939394"/>
      <point x="229.42323232323236" y="26.93939393939394" type="curve" smooth="yes"/>
      <point x="149.24444444444444" y="26.93939393939394"/>
      <point x="94.14545454545454" y="104.02929292929292"/>
      <point x="94.14545454545454" y="229.32626262626263" type="curve" smooth="yes"/>
      <point x="94.14545454545454" y="413.73838383838387"/>
      <point x="213.08080808080805" y="522.3333333333334"/>
      <point x="375.3737373737374" y="522.3333333333334" type="curve" smooth="yes"/>
      <point x="570.1414141414141" y="522.3333333333334"/>
      <point x="715.7484848484848" y="385.2222222222222"/>
      <point x="715.7484848484848" y="184.0070707070707" type="curve" smooth="yes"/>
      <point x="715.7484848484848" y="81.24242424242425"/>
      <point x="669.5848484848485" y="26.93939393939394"/>
      <point x="603.2767676767677" y="26.93939393939394" type="curve" smooth="yes"/>
      <point x="537.2606060606059" y="26.93939393939394"/>
      <point x="500.73939393939395" y="88.56060606060605"/>
      <point x="500.73939393939395" y="183.84949494949498" type="curve" smooth="yes"/>
      <point x="500.73939393939395" y="356.0323232323233"/>
      <point x="603.7656565656566" y="522.3333333333334"/>
      <point x="781.7818181818183" y="522.3333333333334" type="curve" smooth="yes"/>
      <point x="921.4252525252525" y="522.3333333333334"/>
      <point x="1017.7818181818182" y="421.5020202020202"/>
      <point x="1017.7818181818182" y="262.00404040404044" type="curve" smooth="yes"/>
      <point x="1017.7818181818182" y="150.36363636363637"/>
      <point x="968.3767676767677" y="69.60606060606061"/>
      <point x="905.439393939394" y="17.251515151515154" type="curve"/>
    </contour>
  </outline>
</glyph>
